<svg viewBox="0 0 312 194" xmlns="http://www.w3.org/2000/svg" fill-rule="evenodd" clip-rule="evenodd" stroke-linecap="round" stroke-linejoin="round" stroke-miterlimit="1.414">
  <path d="M173.88 21.243l-.343.21h.003l-.35.218h.002l-.364.23-.128.08-.046.03h.002l-.18.12-.202.13-.17.11-.188.13h.002l-.19.13h.002l-.19.13-.192.13h.003l-.19.13-.19.13h.01l-.19.14h.01l-.2.14-.19.14h.01l-.14.1-.06.05-.2.14-.2.15V24l-.21.154-.19.146v-.005l-.2.154-.21.15-.2.16-.2.15-.22.17-.2.16-.21.17-.2.16h-.01v-.01l-.21.17.01-.01-.21.18.01-.01-.21.18-.22.18h.01l-.21.19.01-.01-.17.15-.04.03-.21.19-.22.19h.01l-.21.2-.21.2-.21.21-.09.09-.12.11-.21.21.01-.01-.22.22-.21.22-.22.23.01-.01-.22.23v-.01l-.17.18-.05.04-.21.23-.21.23-.21.24-.21.24-.21.25-.1.12-.11.12-.1.12-.04.05-.06.08v-.01l-.11.13-.11.13h.01l-.1.12-.11.14h.01l-.11.13-.11.13v-.01l-.12.16-.09.11-.11.14-.09.12-.11.16-.1.14-.1.14-.1.15h.01l-.11.15-.09.13-.1.15-.1.15-.1.15-.1.15-.1.15h.01l-.1.15-.1.15-.1.16-.1.16v-.01l-.1.15-.1.16-.09.14-.05.09-.05.09-.1.16-.06.09-.08.08-.08.07-.1.05-.1.04-.11.02h-.11l-.23-.01-.23-.01-.22-.01-.23-.01-.44-.01h.01l-.45-.01-.44-.01-.43-.01h-1.29.01l-.43.01-.42.01-.41.01-.27.01h-.14l-.4.02-.4.02-.4.02h.01l-.39.02-.4.03-.39.03-.38.03h.01l-.39.03-.38.04h.01l-.38.04-.37.04-.37.04-.37.04h.01l-.36.05-.36.05-.09.01-.26.04-.35.05-.34.05h.01l-.34.05-.34.06-.33.06-.33.06-.33.06-.32.06-.32.06-.32.07-.31.06-.31.07-.31.07-.31.07-.3.08h.01l-.3.07-.29.08-.29.08-.28.07-.28.08-.27.08-.27.08-.27.08-.27.08h.01l-.27.08-.26.08-.26.08-.25.09h.01l-.25.09-.24.08-.25.08-.24.08-.24.09-.23.08-.23.08-.23.08-.22.08-.22.09-.22.08-.21.08-.21.09-.2.08-.2.09h.01l-.2.09-.19.09-.19.08h.01l-.19.08-.17.08-.19.09-.17.08-.17.08-.16.08-.17.08-.15.08-.16.08-.14.07-.16.08-.15.08-.14.07-.14.07-.13.07-.13.07-.13.07-.25.14-.24.14-.22.13-.2.12-.19.12-.18.12-.16.1-.15.1-.13.09-.12.09-.1.07-.09.06-.07.05h.01l-.06.05-.08.06-.03.02-.56-.06.06-.57.03-.02.09-.07h.01l.07-.05.07-.06.1-.07.11-.09.12-.08.14-.1.15-.1.17-.11.18-.12.2-.13.2-.13.23-.14.23-.14.25-.15.15-.09.14-.08.13-.07.14-.08.15-.09.15-.08.16-.09.14-.08.17-.09.16-.08.16-.08.19-.09.17-.08.17-.09.19-.09.18-.09.19-.1.19-.09.2-.09.19-.08.21-.1.2-.09v-.01l.2-.09.22-.1.22-.09.21-.09.24-.1.22-.09.24-.09.23-.09.23-.09.23-.09.26-.09.25-.09.25-.09.26-.09.26-.09.26-.09h.01l.26-.09.28-.09.27-.09.29-.09.28-.08.28-.08.29-.09.29-.08.3-.08.3-.08.3-.08.31-.08.31-.08.32-.08.32-.07.33-.07.32-.07.33-.07h.01l.32-.07.34-.07.33-.07.35-.07.34-.06.35-.07.36-.06.27-.04.09-.01.36-.06.37-.06.37-.05.38-.05.37-.05.38-.04h.006l.38-.05.4-.04.39-.04.4-.04.4-.03.41-.03.4-.03.41-.03.41-.02.15-.01.27-.01.43-.02.42-.01.42-.016.44-.01h.45l.44-.01h1.34l.46.01h.23l.23.01h.03l.1-.16.08-.13.13-.2.08-.13.1-.16.1-.16.11-.16.1-.15.1-.16.09-.13.12-.18.1-.15.104-.15.09-.14.1-.15v-.01l.09-.12.13-.18.08-.12.13-.17.1-.13.12-.156.09-.13.004-.01.106-.14.13-.17.07-.1.14-.17.11-.14.11-.14.05-.06.033-.04v-.01l.1-.13.11-.14.12-.14.21-.25.22-.25.22-.25.22-.24v-.01l.22-.24.04-.05.175-.19.22-.23.2-.21.24-.24.22-.22.22-.22.01-.01.12-.12.1-.1.227-.21.22-.21.205-.18.23-.21.24-.21.04-.03.175-.15.22-.19.24-.2.21-.18.01-.01.23-.18.21-.17.01-.01.215-.17.21-.16.22-.17.23-.16.22-.16.21-.16.21-.15h.01l.22-.16.19-.13.22-.16.21-.14.21-.14.07-.05.15-.1.2-.12.01-.01.2-.13.2-.13.22-.14.19-.12.22-.14.19-.11.2-.12.2-.12.187-.11.19-.11.18-.1.05-.03.14-.08.38-.21h.01l.36-.2.37-.2.32-.17.35-.18.47-.24.19-.1.32-.17.28-.15.29-.15.28-.15.26-.14.138-.07.12-.07.13-.08.11-.07.11-.06.11-.07.11-.065.105-.07.1-.06h-.01l.1-.07.09-.06.09-.06.08-.06.08-.06.07-.06.08-.06.07-.06.06-.05.06-.06.06-.06.05-.05.02-.027.02-.02.02-.03.02-.03.02-.03.02-.03.02-.03.01-.02.02-.02.02-.03.02-.02.02-.02.01-.02.01-.02.01-.02.01-.03.01-.03v-.02l.01-.03.01-.02.01-.02.01-.03v-.03l.01-.02v-.25l.25-.4.41.25.01.04.01.04.01.05v.05l.01.03v.2l-.01.03v.1l-.01.05-.01.05-.01.03v.05l-.01.03-.014.04v.01l-.01.03-.01.01-.01.03v.01l-.01.03v.01l-.02.04-.02.04v.01l-.02.04-.01.04-.02.04-.01.01-.02.03-.01.01-.02.03v.01l-.02.04-.02.03-.03.04-.03.04-.03.04-.01.01-.03.04-.06.08-.06.08-.01.01-.06.08-.07.07-.01.01-.07.07-.08.07-.01.01-.08.08-.08.07-.09.08-.09.07H178l-.09.07h-.008l-.093.07-.01.01-.1.07-.1.07-.01.004-.11.07V19l-.11.076-.11.07-.12.08v.01l-.11.074-.13.08v.006l-.13.08-.25.164-.26.16-.29.174-.3.183-.29.18-.19.11-.44.27-.32.2-.34.2z" fill="#54a793"/>
  <path d="M171.433 16.662l-.166.148-.168.15-.17.152v-.002l-.17.156v-.002l-.19.17-.16.147-.05.04-.14.13-.18.17-.19.18-.17.16-.18.18-.18.18-.18.18-.18.18-.19.18-.19.18-.19.19v-.01l-.19.19-.09.1-.1.1-.19.2-.19.2v-.01l-.19.2h.01l-.2.21-.17.2-.19.21h.01l-.19.21-.18.21-.19.22-.19.21-.18.22-.07.08-.12.14v-.01l-.18.22-.19.23v-.01l-.19.23v-.01l-.18.23-.19.24-.02.03-.16.21-.18.24-.18.24-.18.25-.18.24-.13.18-.06.07-.18.25-.18.25-.18.26-.17.26-.17.26-.17.26-.02.03-.15.24-.06.11-.1.16-.08.14-.09.15-.08.14-.08.13v-.01l-.08.14-.09.15-.08.14-.08.15-.09.15v.01l-.08.15-.04.06-.05.09-.08.15-.08.15v-.01l-.08.15-.08.15-.08.15-.08.15-.08.16v-.01l-.08.16-.08.15V30l-.08.153-.07.15-.08.17-.08.16-.07.16v-.01l-.07.16v-.01l-.08.16v-.006l-.08.16-.08.16v-.02l-.07.16-.07.17-.07.166-.07.17V32l-.07.16-.07.17-.07.16v-.005l-.07.17v-.005l-.06.17-.06.17v-.005l-.06.17-.06.158v.02l-.06.18-.06.177v-.01l-.06.18-.06.17-.05.17-.06.17-.06.18-.04.1-.05.09-.07.087-.09.07-.09.06-.11.04-.11.03-.11.01-.11-.01-.51-.086-.5-.08-.49-.08-.5-.07-.48-.08-.48-.07-.48-.07-.47-.07h.01l-.47-.06-.22-.03-.24-.03-.45-.05-.45-.05-.45-.05-.44-.04-.44-.04-.44-.04-.43-.03-.43-.03h.01l-.42-.03h.01l-.41-.03-.41-.03h.01l-.4-.03-.4-.02-.36-.01h-.04.01l-.4-.02-.39-.02-.38-.01-.37-.01-.37-.01-.37-.01h-1.43l-.35.01h-.68l-.34.01-.33.01-.33.02-.32.02-.32.02h.01l-.32.02-.31.02h.01l-.31.02-.3.02-.29.02-.29.02-.29.03h.01l-.28.02-.27.03h.01l-.28.03-.27.03-.27.03-.26.03h.01l-.26.03-.25.03-.25.03-.25.04-.24.04-.17.03-.06.01-.23.04-.23.04-.23.04-.21.04-.22.05-.21.04-.21.04-.2.04-.21.04h.04l-.2.04-.2.04h.01l-.19.05-.18.05-.18.05-.18.05-.18.05-.17.04-.17.05-.16.05-.16.05-.16.04-.16.05-.15.04-.14.05-.14.05-.14.05-.14.05-.14.04-.13.05-.12.05-.12.04-.12.04-.11.05-.11.04-.11.04-.2.09-.18.08-.17.08-.16.07-.14.07-.13.07-.12.06-.11.06-.09.05-.08.04-.06.04-.05.03-.068.04-.02.01-.56-.11.12-.56.03-.02.08-.05.06-.03.07-.05.087-.05h.01l.1-.06.11-.06.12-.07.14-.07.15-.08.16-.08.18-.08v-.01l.19-.08.21-.09h.01l.1-.05.12-.04.12-.05.12-.05.12-.05.12-.05.13-.05.135-.05.14-.05.14-.05.15-.05.14-.05.16-.05.16-.05.16-.05.16-.05.16-.05.16-.05.18-.05.18-.06.18-.05.18-.05.19-.06.19-.05h.01l.19-.05.2-.05.21-.05.21-.05.2-.05.23-.05.21-.04.23-.05.23-.05.23-.05h.01l.23-.05.07-.01.17-.03.24-.05.252-.04.25-.04.26-.04.26-.04.27-.04.27-.04.28-.03.27-.04.29-.04.29-.03.29-.03.29-.03.3-.03.3-.03.31-.02.32-.02.32-.02.32-.02.33-.02.33-.02.33-.01.35-.02.34-.02h.01l.34-.01.35-.01.36-.01h.36l.37-.01h.01l.36-.01h1.14l.39.01.4.01.39.01h.04l.37.02.42.02.4.02.41.02h.01l.41.02.44.02.43.03.44.03.45.04.44.03.45.04.45.04.46.05.46.05.25.03.23.02.47.05.48.05.49.06.49.06.49.07.5.07.5.07.43.06.06-.17.05-.16h.01l.05-.15.06-.18.01-.02.052-.16.07-.19.08-.21.05-.13.07-.18.07-.18.06-.17.07-.18.07-.18.07-.17.07-.17.07-.17.06-.12.09-.21.07-.17.06-.13.08-.18.07-.15.1-.2.06-.13.07-.15.08-.15.08-.17.08-.15.08-.16.08-.16v-.01l.08-.15.08-.15.08-.16V28l.08-.15.05-.095.03-.06.08-.15.06-.11.1-.19.07-.135.06-.1.11-.18.07-.12.1-.18.09-.154.08-.14.09-.15.07-.12v-.007l.15-.24.02-.03.17-.28.18-.27.18-.28.18-.26.18-.27.19-.26.05-.08.13-.18v-.01l.18-.25v-.01l.18-.25.19-.25.19-.24.17-.22.02-.03.19-.24.2-.25.2-.24.19-.23.18-.21.13-.15.08-.09.19-.21v-.01l.2-.22.19-.21.2-.21.2-.21.21-.22.18-.19.01-.01.18-.19.21-.22.19-.19.2-.19.1-.1.09-.09.19-.18.21-.2.19-.18.19-.17.18-.17.2-.18v-.01l.19-.17.18-.16.2-.17.19-.17.18-.15.14-.11.042-.04.17-.14.19-.16.18-.14.19-.16.18-.13.17-.13.35-.27.35-.27.33-.26.05-.03.27-.2v-.01l.3-.22.32-.24.2.06-.19-.06.85-.65.24-.17.25-.19.24-.18.21-.16.09-.08.12-.09.1-.08.09-.08.09-.08.09-.07.01-.01.06-.06.08-.07.07-.07.07-.06.07-.06.06-.06.06-.06.05-.05.05-.06.04-.05.04-.05.03-.04.01-.02.01-.03.01-.01.01-.02.01-.01.01-.01.01-.01h.04l-.03-.01.01-.02v.01l.01-.02.01-.01v.01l.01-.01h.13l.06-.01-.12-.01.07-.02-.11.01h-.02v-.01l.23-.42.42.23v.08l.01.02v.16l-.007.02v.11l-.007.03-.01.01v.03l-.01.01-.01.03-.01.03-.01.01-.01.03v.1l-.02.03-.01.03-.02.03-.02.04-.02.04-.04.06-.01.01-.04.06-.05.07v.01l-.05.07-.06.07-.06.07-.06.08-.01.01-.07.07-.07.07-.07.08-.08.08-.01.01-.06.07-.01.01-.09.08v.01l-.09.08-.1.09-.1.09-.1.1-.1.09v.01l-.21.19h-.01l-.24.2-.24.2-.24.21-.68.58-.13.11-.29.25-.3.26-.26.22-.04.04-.32.27h.02l-.33.28h.01l-.33.29zm4.443-5.09h.007l.14-.04-.147.04z" fill="#54a793"/>
  <path d="M166.306 18.658l-.19.243-.207.27-.1.12-.1.13-.2.27-.1.13-.1.13-.1.14-.1.13-.1.14-.1.14-.1.14v-.01l-.1.14-.1.14-.1.14-.1.14-.1.15v-.01l-.1.15h.01l-.1.15.01-.01-.04.07-.06.09-.1.15-.09.14-.1.16v-.01l-.1.17-.09.14-.1.16v-.01l-.1.17-.07.13-.09.16-.09.17v-.01l-.09.17v-.01l-.08.17-.09.17-.08.17-.09.17-.09.18-.03.05-.05.11-.09.19-.09.19v-.01l-.08.18-.08.18-.08.19-.07.18-.09.2-.01.03-.07.17-.08.19-.08.21v-.01l-.08.21h.01l-.08.21v-.01l-.08.21-.08.21v-.02l-.03.1-.04.12-.08.23-.08.21v-.01l-.08.22-.08.23v-.01l-.07.22-.08.24v-.01l-.08.24h.01l-.03.11-.04.13-.07.25-.07.25-.07.25v-.01l-.07.26-.07.25-.07.26-.07.27v-.02l-.05.21-.02.07v-.01l-.07.28v-.01l-.06.28v-.01.23l-.06.29v-.01l-.07.29-.06.3-.06.3v-.02l-.06.3v-.02l-.06.31-.06.3-.06.31v-.01l-.06.31v-.01l-.05.32-.03.12-.05.11-.07.1-.08.09-.1.07-.1.05-.11.04-.12.01-.12-.01-.12-.02-.11-.05-.1-.06-.16-.12-.16-.12h.01l-.16-.12-.16-.12-.17-.12-.04-.03-.11-.07h.01l-.16-.11-.16-.11-.16-.11h.01l-.16-.1-.16-.1h.01l-.16-.1-.17-.1-.16-.1-.16-.1-.16-.1h.01l-.18-.1-.15-.09h.01l-.18-.1-.15-.08h.01l-.16-.09h.01l-.17-.09-.16-.09-.16-.09-.16-.08-.16-.08-.16-.09h.01l-.16-.08h.01l-.16-.08-.16-.08h.01l-.17-.08-.15-.08-.17-.07-.16-.07-.16-.07-.06-.03-.1-.04-.17-.07-.16-.07-.17-.07-.16-.07-.17-.07-.17-.06h.01l-.15-.06-.17-.06-.16-.06-.17-.06-.17-.06-.16-.05-.17-.05-.16-.06-.16-.05h.01l-.16-.05-.16-.05h.01l-.17-.05-.15-.05-.16-.05h.01l-.16-.04-.16-.04-.17-.04-.16-.05-.16-.04h.01l-.16-.04-.16-.04h.01l-.16-.04-.16-.04-.15-.03-.16-.04-.16-.03-.16-.03-.13-.03-.04-.01-.15-.03-.16-.03-.16-.03-.16-.03-.16-.03-.16-.03-.16-.03-.15-.03-.15-.02-.16-.03-.15-.02-.16-.03h-.19l-.16-.02-.16-.02-.16-.02-.15-.02-.15-.02-.31-.04-.3-.03-.3-.03-.3-.03-.29-.02-.3-.02-.29-.02-.29-.01-.3-.01-.28-.01-.29-.01h-.85.01-.28l-.27.01-.27.01-.27.01h.01l-.27.01-.27.01-.27.02-.26.02-.26.01h.01l-.26.02-.26.02-.25.02-.25.02-.24.03-.24.03h-.01l-.23.03-.24.03h.01l-.24.03-.23.03-.23.03h.003l-.23.04-.21.03-.22.04-.22.03-.21.04-.21.04-.2.04-.2.04-.2.04-.19.04-.187.04h.01l-.19.04-.18.04-.173.04-.18.04h.01l-.17.04-.16.04-.16.04-.16.04-.15.04-.29.08-.27.08-.26.08-.23.07-.22.07-.2.07h.01l-.18.06-.16.06v-.01l-.14.05-.13.05v-.01l-.1.04-.13.05-.05.02-.52-.23.22-.52.05-.02.14-.05.1-.04.12-.05.14-.06.16-.06.19-.06.2-.07.22-.07.25-.08.26-.08h.01l.28-.09.3-.09.15-.05.16-.04.17-.05.16-.04.17-.04.18-.04.17-.04.19-.04.18-.04.2-.04.19-.04.2-.04.2-.04.21-.04.22-.05.21-.04.21-.04.22-.04.22-.04.23-.04.23-.04.24-.04.24-.04.236-.03.23-.03h.014l.244-.04.25-.03.25-.03.25-.03.27-.03.27-.03.26-.02.27-.02.27-.02.27-.02.273-.02.28-.01.28-.01.28-.02.28-.01h1.8l.3.01.3.01.3.02.31.02.306.02.31.03.31.03h.01l.31.03.16.01.16.02.153.02.15.02.15.02.16.02.16.02.16.02.17.02.16.02.16.02.154.03.16.02.16.03.16.03.16.03.17.03.17.03.03.01.12.02.17.04.17.04.16.03.17.03.15.04.18.04.17.03.16.04.17.04.17.04.16.04.17.05.174.05.17.05.15.05.17.05.17.05.17.05.17.05.16.05.18.06.16.05.17.06.15.05.18.07.15.06.16.06.18.07.16.06h.01l.17.06.16.06.16.06.19.08.1.04.06.03.17.07.17.07.17.07.16.07.18.08.15.07.19.08.15.08.18.09.17.08.17.08.18.09.16.08.18.09.18.1.15.08.17.1.16.09.18.1.16.09.18.11.15.09.17.1.16.1.17.11.17.1.17.11.17.1.18.11.06.04.02-.17.06-.32.06-.3.05-.29.06-.32.05-.27.06-.3.06-.29.06-.29.07-.29.02-.07.05-.2.06-.24.07-.27.07-.26.07-.27.07-.26.07-.26.06-.22.04-.13.03-.11.08-.25.08-.25.07-.22.08-.24.08-.232.07-.22.09-.25.04-.1.03-.09.08-.22.08-.22.08-.21.08-.19.1-.24.07-.18.07-.15.01-.03.09-.21.09-.19.08-.19.09-.2.08-.17.1-.196.1-.2.01-.01.06-.12.03-.06.1-.17.1-.18.1-.17.09-.17v-.01l.09-.15.11-.2.08-.15.11-.17.09-.15.1-.16.11-.176.1-.17.08-.13.1-.16h.01l.1-.16.09-.13.05-.08.04-.05.12-.16.006-.01.1-.15.1-.14.1-.14v-.01l.1-.13.1-.14.1-.13.12-.16.1-.13.12-.15.08-.1.12-.15.1-.12.11-.13.22-.26.1-.13.1-.12.24-.27.21-.23.22-.25.2-.22.22-.23.26-.28.41-.45.073-.08.36-.37.22-.23.21-.23.22-.23.23-.26.22-.25.21-.23.22-.25.22-.26.12-.14.1-.11.11-.14.05-.06.06-.08.1-.11.12-.15.1-.12.11-.134.11-.14.1-.13.1-.13.11-.15.48-.09.08.48-.09.15-.1.15-.1.14-.1.15-.1.14-.1.15-.09.14-.09.14-.06.08-.04.06-.1.14-.1.13v.01l-.1.13-.01.01-.2.27-.2.26v.01l-.2.26-.2.26v.004l-.2.26-.2.25-.22.27-.18.23-.4.5h-.01l-.06.07-.35.42-.2.25-.2.25-.21.26-.19.24z" fill="#54a793"/>
  <path d="M165.19 9.63l-.09.12v-.002l-.09.12v-.002l-.092.122-.086.116v-.002l-.087.12v-.002l-.01.016-.077.103v-.01l-.085.12-.086.12v-.01l-.083.12-.084.12-.083.11-.088.13-.08.11v-.01l-.08.12-.08.12-.08.12-.08.12v-.01l-.15.23-.16.25v-.01l-.15.24v-.01l-.15.24-.14.24-.14.24v-.01l-.14.24v-.01l-.13.24v-.01l-.03.05-.1.18v-.01l-.13.24-.12.24-.12.24v-.01l-.12.24v-.01l-.12.23-.11.24v-.01l-.11.24-.11.24-.1.24v-.01l-.03.08-.07.16-.1.23v-.01l-.1.24v-.01l-.09.24-.09.23-.09.24-.09.24-.08.23-.08.24v-.01l-.08.24v-.01l-.07.24v-.01l-.07.24v-.01l-.02.05-.05.18-.06.23-.07.22-.07.24v-.01l-.07.23-.06.23-.06.23-.05.23v-.01l-.05.23-.05.23v-.01l-.05.23v-.01l-.05.23-.04.22-.03.16-.02.06v-.01l-.04.22-.04.23-.03.21-.04.22-.04.22-.03.22-.03.21v.01-.01l-.03.22-.03.21-.03.22-.02.22-.03.21v-.01l-.02.21-.03.22v-.01l-.01.13-.01.09-.02.24-.01.16-.02.23-.01.21v-.01l-.02.21-.01.2-.01.19-.01.24-.01.17v.01l-.01.19-.01.2v-.01.2l-.01.2v.77-.01.76-.01.18-.01.18-.01.18-.01l.01.36.01.35.02.33.02.33.02.33.02.32.02.31.03.31.02.31.02.29.03.3.05.53.04.47.01.03.04.47v.12l-.01.12-.04.11-.06.11-.07.09-.08.08-.1.06-.11.05-.11.03-.12.01-.12-.01-.11-.02-.11-.04-.1-.06-.09-.07-.14-.15-.14-.14h.01l-.14-.14-.13-.13-.14-.14-.14-.13h.01l-.14-.14h.01l-.15-.14-.14-.14-.15-.13-.15-.13v.01l-.14-.13-.14-.13-.14-.13-.15-.12-.14-.13-.14-.12-.16-.14-.13-.11-.14-.12-.15-.12-.17-.13-.12-.1-.15-.12h.01l-.16-.12-.15-.11-.13-.1-.06-.04-.08-.06-.15-.11h.01l-.15-.11-.14-.11-.15-.11-.14-.1-.15-.11v.01l-.15-.1V31l-.15-.1h.01l-.15-.1-.15-.1h.01l-.15-.1-.15-.09h.01l-.15-.1-.15-.09-.15-.09-.15-.09-.15-.09-.15-.08-.15-.09-.15-.08-.14-.09-.14-.085-.15-.09-.15-.08-.15-.08-.15-.08-.15-.08-.15-.07-.15-.08-.15-.07-.14-.07-.16-.08-.15-.07-.15-.07-.02-.01-.12-.06h.01l-.15-.07-.15-.07h.01l-.14-.07-.15-.07-.15-.06h.01l-.15-.06-.14-.06-.14-.06-.15-.07-.15-.06-.15-.06-.14-.06-.16-.06-.15-.05-.13-.05-.15-.06-.15-.06-.14-.06-.15-.05-.28-.1-.28-.1-.28-.1-.28-.1-.28-.09-.28-.08-.27-.08-.28-.09-.27-.08-.27-.07-.27-.07-.28-.07-.27-.06-.27-.06-.26-.06-.27-.06-.27-.05-.26-.05h.01l-.27-.05h.01l-.26-.05h.01l-.26-.05-.25-.04-.26-.04-.25-.04-.25-.03-.25-.04-.25-.03-.24-.03-.24-.03-.1-.01-.14-.01-.23-.02-.23-.02-.23-.02-.22-.02-.22-.01-.22-.01-.22-.01h.01l-.22-.01-.21-.01-.2-.01-.21-.01h-1.51l-.18.01h-.17l-.17.004h-.17l-.16.01-.16.01-.15.01-.15.01-.29.02-.26.02-.25.02-.23.02-.22.02-.19.02-.17.02-.16.02h.01l-.14.01h.01l-.12.02-.1.01-.13.02-.04.01-.47-.33.32-.47.05-.01h.004l.13-.02.1-.02.12-.02.15-.03.17-.026.18-.026.2-.03h.01l.21-.02h.01l.23-.03.26-.03.275-.03.28-.025.15-.01.15-.01.16-.01.16-.01.16-.01.17-.01.17-.01.18-.01h.005l.18-.01h1.8l.22.01h.22l.23.01.22.01.22.01.24.01.23.01.23.02.238.02.14.01.1.01.25.02.25.03.25.03.25.03.25.03.26.04.26.03.26.03.26.04.27.05h.01l.27.04.27.05.27.05.27.05.27.06.28.06.28.06.27.06.29.07.28.07.28.07h.01l.29.08.29.08.29.08.29.083h.01l.29.09h.005l.3.1.29.09.3.1.14.05.14.05.15.05.14.05.15.06.15.05.15.06.15.06.16.06.15.06.14.06h.01l.16.07.16.07.14.06.16.07.14.06.15.063.14.06.16.08.14.06.02.01.14.06.16.08.14.07.17.08.15.07h.01l.16.08.15.07.15.08.16.08.16.08.15.08.15.08.16.08.16.09.15.08.15.09.15.09h.006l.16.09.15.09.16.09.15.09.16.1.15.09.15.09.16.1.15.09.15.1.15.1.16.1.16.11.15.1.14.1v.01l.153.11.16.11.09.06.07.05.15.11.13.1.16.13.14.1.15.12.15.11.16.12.15.12.15.12.15.12.15.13.16.13.14.12.16.13.13.12.17.15.12.11.1.08-.02-.22-.03-.29-.03-.31-.03-.31-.02-.33-.03-.35v-.01l-.02-.34-.02-.36-.02-.36V30l-.01-.34-.01-.21-.01-.16V29l-.01-.09-.004-.25-.01-.14v-1.777l.01-.224.01-.2.01-.22.01-.21.01-.21v-.01l.02-.18.01-.22.02-.22.02-.22.01-.1.01-.13.03-.22.03-.23.02-.23.03-.2v.01l.03-.22.03-.23.03-.23v-.01l.04-.23.03-.2.04-.23.04-.24.04-.21.05-.25v-.01l.06-.25.01-.06.03-.15.06-.24.06-.23.05-.23.06-.24.05-.22.07-.24.07-.24.07-.24.07-.24.08-.24.08-.25.07-.21.06-.18.02-.05.08-.23.09-.25.09-.24.09-.23.1-.24.09-.23.1-.23.11-.25.1-.23.11-.25.12-.24v-.01l.07-.15.04-.07.13-.26.12-.23.13-.24.12-.24.13-.24.13-.23.14-.24.14-.24.15-.24.11-.18.03-.05.15-.23.15-.23h.01l.16-.23.16-.24.16-.23h.01l.17-.25.16-.21.18-.24.08-.11.1-.13.08-.1.1-.13.09-.11.1-.11.1-.12.09-.11.1-.12.1-.12.09-.12.09-.11.01-.01.1-.11.1-.11.1-.12.11-.11.1-.12.1-.1.11-.12.09-.1.11-.11.11-.11.48-.04.02.48-.09.12-.1.12-.1.12-.09.12-.09.12z" fill="#54a793"/>
  <path d="M161.384 38.2l.608 1.554.7 1.777h-.002l.78 1.98.86 2.18.454 1.15.473 1.19.487 1.23.503 1.27.517 1.3.53 1.33.532 1.33.565 1.41.62 1.55.53 1.29.59 1.45.18.44.42 1.03.6 1.48.61 1.49.52 1.28.53 1.29.53 1.3.54 1.31.53 1.29.53 1.3.54 1.3.54 1.3.54 1.29.54 1.29.54 1.28.54 1.27.35.83.19.44.52 1.24.53 1.25.53 1.23v-.01l.83 1.96.78 1.82.19.43.52 1.25.65 1.54.57 1.35.62 1.46.16.36.26.67.2.53.19.53.29.81.05.15.27.86v-.01l.24.76.21.66.05.15.12.42.14.49.12.41.1.34V102l.08.265.06.208.04.136.02.08.01.02.01.02.04.08.04.08.04.09.03.09.03.19v.08l-.01.18-.04.17-.08.19-.11.17-.13.15-.16.14-.17.11-.17.07-.19.04-.19.01-.18-.02-.19-.04-.18-.07-.15-.09-.13-.1-.12-.11-.06-.08-.09-.13-.04-.08-.04-.06-.08-.13-.09-.15-.13-.2-.15-.24-.19-.32-.23-.37-.27-.44-.21-.35-.07-.14-.35-.64-.35-.63-.47-.9-.08-.15-.43-.88-.17-.33-.15-.33-.36-.81-.18-.45-.53-1.29-.63-1.52v-.01l-.67-1.64-.48-1.18-.16-.41-.67-1.66-.91-2.24-.48-1.21-.48-1.21-.51-1.28-.18-.46-.34-.86-.52-1.33-.46-1.18-.51-1.34-.52-1.35-.52-1.35-.45-1.18-.51-1.33-.51-1.33-.5-1.33-.49-1.31-.52-1.37-.49-1.29-.56-1.48-.57-1.52-.35-.94-.14-.4-.58-1.55-.53-1.44-.59-1.6-.43-1.16-.53-1.43-.49-1.34-.49-1.34-.48-1.31-.34-.95-.47-1.29-.46-1.26-.82-2.26-.73-2.03-.63-1.77-.6-1.67-.48-1.35-.33-.93-.27-.75-.25-.71.7-1.55 1.54.71.24.64.3.78.4 1.02.53 1.35zm23.41 65.282v-.013l.02.1v-.02l.016.06-.002-.03-.002-.04-.006-.05-.012-.06-.023-.11.01.15zm.043-.55l-.05.326.256-.564-.206.24zm2.01-.56l-.26-.2h-.177l.436.2z" fill="#54a793"/>
  <path d="M185.826 100.437l1.174.096.152.035 1.428.35.006.003.64.35.247.22.186.24.03.07.3.57.02.06.36.78.01.04.21.58v.01l.34.86.16.42.11.34.25.77.31.93.05.16.25.79.29.94.19.67.06.22.28.99.28.99.28 1v.01l.27.98.15.55.14.49.27.99.15.53v.01l.13.46.13.47.16.52.01.05.16.44.17.46.17.46v.01l.15.4.03.08.15.43.17.46.02.06.12.41.05.17-.94.74-1.17.2-.09-.15-.22-.36-.03-.05-.23-.41-.23-.43-.04-.07-.2-.36-.24-.43-.24-.43-.22-.39-.03-.04-.28-.42-.28-.42-.28-.42-.01-.01v.01l-.29-.42-.6-.84-.29-.4-.32-.45.01.01-.6-.84h.01l-.6-.83v.01l-.6-.82-.6-.82-.15-.19-.43-.61v.01l-.57-.79v.01l-.46-.65-.09-.13v.01l-.56-.85-.46-.65-.21-.31-.26-.41.01.01-.43-.69-.38-.62-.03-.04v.01l-.36-.64v.01l-.03-.05-.27-.57v.01l-.03-.07-.07-.28-.02-.31.1-.7v.01-.01l.54-1.39h.01l.06-.15.6-1.02.59-1.01 1.17.12z" fill="#54a793"/>
  <path d="M134.488 52.206s5.4-7.246 24.293-18.108c10.14 3.987 21.28 1.02 26.6 2.837" fill="none" stroke-width="1.5" stroke="#54a793"/>
  <path d="M145.746 65.645s-4.415-10.392 13.035-31.547c15.33 10.014 24.73 5.664 25.9 7.9" fill="none" stroke-width="1.5" stroke="#54a793"/>
  <path d="M137.55 61.75s1.088-12.69 21.23-27.652c7.076 10.164 22.108 12.52 23.935 13.583" fill="none" stroke-width="1.5" stroke="#54a793"/>
  <path d="M128.842 47.07s9.087-6.4 29.94-12.972c20.557-6.48 23.797-15.316 25.495-12.39" fill="none" stroke-width="1.5" stroke="#54a793"/>
  <g fill="#54a793" fill-rule="nonzero">
    <path d="M91.596 109.293c0 .387-.083.885-.25 1.493-.054.11-.22.58-.497 1.41-2.6-1.935-5.89-2.903-9.88-2.903-3.87 0-11.31 1.908-22.32 5.724-11.45 3.98-18.14 7.19-20.08 9.622-.78.99-2.38 3.65-4.81 7.96-1.28 2.27-2.3 3.92-3.07 4.97 1.32.33 2.32.49 2.98.49 1.6 0 3.99-.35 7.17-1.04 3.18-.69 5.57-1.04 7.18-1.04 2.6 0 4.23.05 4.89.16 1.93.33 3.37 1.07 4.31 2.24l-15.01 3.23c-4.98 1.1-9.87 2.68-14.69 4.73-2.55 1.1-4.65 3.73-6.31 7.88-.72 1.99-2.13 5.5-4.23 10.53-1.55 3.48-3.76 5.22-6.64 5.22v-1.41c0-2.1 1.49-5.89 4.48-11.37 1.55-2.82 4.34-7.86 8.38-15.1 3.04-5.53 4.56-9.1 4.56-10.7 0-.78-.31-1.5-.91-2.16-1.72-1.83-2.6-2.85-2.66-3.07l.16-1.33 1.82-1.91c5.42-.83 11.83-2.74 19.24-5.73l18.92-7.63c6.3-2.55 13.05-3.82 20.24-3.82 3.81 0 6.14 1.16 6.97 3.48z"/>
    <path d="M104.62 137.33c0 6.97-3.485 14.033-10.453 21.195-6.968 7.16-13.908 10.742-20.82 10.742H68.7c-6.856 0-11.944-.58-15.262-1.742-5.475-1.99-8.212-5.834-8.212-11.53 0-9.844 5.143-18.94 15.43-27.29 2.377-1.826 6.607-5.227 12.69-10.204 1.217-1.1 3.374-3.04 6.47-5.8 2.545-2.21 5.144-3.32 7.798-3.32 5.42 0 9.76 3.43 13.024 10.29 2.654 5.59 3.98 11.48 3.98 17.67zm-7.798-9.954c0-3.207-1.134-5.364-3.4-6.47-1.605-.774-4.232-1.16-7.882-1.16-3.594 0-8.627 2.598-15.097 7.796-4.866 3.927-9.097 8.02-12.69 12.277-4.702 5.58-7.052 9.95-7.052 13.1 0 3.43 2.19 6.27 6.56 8.54 3.65 1.88 7.36 2.82 11.12 2.82 9.29 0 16.54-3.96 21.74-11.87 4.48-6.8 6.72-15.16 6.72-25.05z"/>
    <path d="M164.26 111.118c0 8.295-10.533 16.452-31.603 24.47-3.373 1.273-9.43 3.54-18.167 6.803 3.54 3.65 6.885 8.11 10.038 13.36 3.76 6.31 5.64 11.39 5.64 15.27 0 3.27-1.852 5.06-5.557 5.39 0-5.03-1.52-10.86-4.56-17.5-3.59-7.91-7.49-11.86-11.69-11.86-2.1 0-3.95 1.83-5.56 5.48-1.82 4.1-3.54 6.42-5.14 6.97-1.38-.27-2.13-.44-2.24-.5-.88-.33-1.3-.8-1.24-1.41.83-.6 2.26-2.48 4.27-5.64 2.02-3.15 3.2-5.25 3.53-6.3l-1.57-1.66c.22-.83 3.21-4.03 8.96-9.62 2.33-2.27 3.49-4.86 3.49-7.8 0-1.1-.16-2.32-.49-3.65.89-1.38 2.16-2.82 3.82-4.31.33-.28 1.88-1.55 4.65-3.81.61.39 1.72.58 3.32.58 2.88 0 6.39-.74 10.54-2.24l12.44-4.48c4.15-1.49 7.97-2.24 11.45-2.24 3.82 0 5.72 1.58 5.72 4.73zm-7.132 2.654c0-1.99-1.3-2.986-3.9-2.986-.995 0-2.21.194-3.65.58-21.456 5.807-33.677 14.047-36.664 24.72l.747.747 3.07.166c2.99.16 8.35-1.55 16.1-5.15 6.58-2.99 11.75-5.75 15.51-8.3 5.86-3.93 8.8-7.19 8.8-9.79z"/>
  </g>
  <g fill="#54a793" fill-rule="nonzero">
    <path d="M173.944 134.89c-.9 1.13-3.166 2.148-6.796 3.048-6.127 1.51-9.554 2.396-10.28 2.657-4.036 1.394-6.97 3.252-8.8 5.576 1.395.67 4.096 1.38 8.103 2.14 4.54.84 7.53 1.54 8.98 2.09 3.05 1.14 4.58 2.56 4.58 4.27 0 2.47-1.75 4.6-5.27 6.41-2.12 1.08-4.78 1.98-7.99 2.7-3.21.73-6.05 1.09-8.51 1.09-1.74 0-3.26-.62-4.55-1.87s-1.94-2.74-1.94-4.48c0-1.42.57-2.61 1.7-3.57 0 5.29 1.51 7.93 4.53 7.93 2.94 0 6.49-.68 10.68-2.04 5.26-1.71 7.88-3.7 7.88-5.97 0-2.03-1.81-3.32-5.44-3.88-1.89-.23-5.27-.68-10.15-1.35-3.66-.52-5.49-1.62-5.49-3.31 0-1.59 1.95-3.26 5.84-5.01 2.44-1.1 6.36-2.49 11.76-4.18 4.97-1.57 7.89-2.58 8.76-3.05.44.23 1.25.51 2.44.83zm22.826 16.16c0 1.335-.865 3.658-2.593 6.97-1.728 3.31-2.592 5.473-2.592 6.49 0 .84.233 1.654.697 2.438-1.045.552-1.858.828-2.44.828-1.074 0-1.61-.552-1.61-1.655 0-1.16.85-3.47 2.547-6.94 1.69-3.47 2.54-5.87 2.54-7.21 0-.17-.03-.45-.09-.82-.06-.37-.09-.65-.09-.82-4.27.5-8.4 2.12-12.37 4.88-4.13 2.88-6.99 6.23-8.59 10.07-.64-.23-1.6-.48-2.88-.74.14-.64 1.15-2.19 3-4.66.67-.84 2.51-3.27 5.53-7.27 2.2-2.93 3.6-4.89 4.18-5.88.17-.29 1.04-2.31 2.61-6.05 1.13-2.67 2.17-4.44 3.13-5.32.35.21.71.42 1.09.66.37.24.56.55.56.96 0 .44-2.45 5.59-7.36 15.47 2.44-1.08 4.57-1.99 6.4-2.75 3.48-1.45 5.46-2.18 5.92-2.18.52 0 .91.13 1.18.4.78.78 1.17 1.84 1.17 3.18zm10.28-11.065c0 1.046-.698 1.568-2.092 1.568-1.278 0-1.917-.522-1.917-1.568 0-.523.17-1.25.51-2.178.34-.93.52-1.626.55-2.09.29.174.84 1 1.66 2.482.06.08.32.34.79.78.35.32.53.65.53 1zm-4.096 11.98c0 .464-.813 2.772-2.44 6.925-.202.523-.507 1.292-.914 2.31-.348.783-.798 1.276-1.35 1.48-.32.116-.973.174-1.96.174 0-.203-.037-.494-.11-.87-.072-.38-.108-.67-.108-.872 0-.64.247-1.35.74-2.135.668-1.074 1.046-1.728 1.133-1.96.232-.726.682-2.004 1.35-3.833.494-1.278 1.278-2.353 2.353-3.224.87.87 1.306 1.54 1.306 2.004zm26.66-.872c0 2.846-1.816 5.372-5.446 7.58-1.626.987-5.213 2.613-10.76 4.878-4.268 1.72-6.78 3.21-7.535 4.49-.96 2.38-1.743 4.2-2.352 5.45-1.27 2.59-2.58 3.88-3.92 3.88-.81 0-1.22-.4-1.22-1.22 0-.64.8-1.97 2.4-4 .73-.87 1.78-2.18 3.16-3.92 1.38-1.74 2.23-3.09 2.55-4.05l4.49-5.49c1.89-2.58 2.83-4.66 2.83-6.23-.23.15-.53.33-.91.55-.38.22-.87.45-1.48.68-.43-.38-.65-.91-.65-1.61 0-1.24 2.02-2.46 6.06-3.65 3.43-1.01 6.04-1.52 7.84-1.52 3.31 0 4.97 1.41 4.97 4.23zm-2.57-.13c0-1.22-1.148-1.83-3.443-1.83-1.42 0-2.81.435-4.18 1.306-1.22.78-2.84 2.64-4.88 5.57-2.09 3.05-3.13 5.2-3.13 6.44.84-.29 2.35-.86 4.53-1.7 2.27-.96 4.37-2.3 6.32-4.01.73-.64 1.91-1.8 3.53-3.49.84-.87 1.27-1.64 1.27-2.31zm25.436.13c0 2.846-1.814 5.372-5.444 7.58-1.626.987-5.212 2.613-10.76 4.878-4.268 1.72-6.78 3.21-7.535 4.49-.95 2.38-1.74 4.2-2.35 5.45-1.27 2.59-2.58 3.88-3.92 3.88-.81 0-1.22-.4-1.22-1.22 0-.64.8-1.97 2.4-4 .73-.87 1.78-2.18 3.16-3.92 1.38-1.74 2.23-3.09 2.55-4.05l4.49-5.49c1.89-2.58 2.83-4.66 2.83-6.23-.23.15-.53.33-.91.55-.37.22-.87.45-1.48.68-.43-.38-.65-.91-.65-1.61 0-1.24 2.02-2.46 6.06-3.65 3.43-1.01 6.04-1.52 7.84-1.52 3.31 0 4.97 1.41 4.97 4.23zm-2.57-.13c0-1.22-1.146-1.83-3.44-1.83-1.423 0-2.817.435-4.182 1.306-1.22.78-2.845 2.64-4.878 5.57-2.09 3.05-3.136 5.2-3.136 6.44.842-.29 2.352-.86 4.53-1.7 2.265-.96 4.37-2.3 6.316-4.01.726-.64 1.902-1.8 3.528-3.49.842-.87 1.263-1.64 1.263-2.31zm13.026-10.978c0 1.046-.697 1.568-2.09 1.568-1.28 0-1.918-.522-1.918-1.568 0-.523.167-1.25.5-2.178.335-.93.517-1.626.546-2.09.29.174.842 1 1.655 2.482.05.08.31.34.78.78.35.32.52.65.52 1zm-4.095 11.98c0 .464-.81 2.772-2.43 6.925-.2.523-.51 1.292-.91 2.31-.35.783-.8 1.276-1.35 1.48-.32.116-.97.174-1.96.174 0-.203-.03-.494-.11-.87-.07-.38-.11-.67-.11-.872 0-.64.25-1.35.74-2.135.67-1.074 1.05-1.728 1.14-1.96.23-.726.68-2.004 1.35-3.833.5-1.278 1.28-2.353 2.35-3.224.87.87 1.31 1.54 1.31 2.004zm25.66 2.045c0 1.018-.48 2.484-1.44 4.4-.95 1.917-1.84 3.253-2.65 4.008.03.378.06.61.09.697.06.204.16.42.31.654-.23.87-.81 1.3-1.74 1.3-.49 0-.93-.15-1.33-.44-.39-.29-.58-.67-.58-1.14 0-.84.74-2.28 2.22-4.31 1.48-2.04 2.22-3.44 2.22-4.23 0-1.48-.75-2.23-2.26-2.23-2 0-3.95.93-5.83 2.79-.96 1.01-2.72 2.82-5.27 5.4-2.03 2.06-3.99 3.25-5.88 3.57v-.39l-.39-.44c0-1.54 1.43-4.01 4.27-7.41 1.63-1.94 2.67-3.35 3.14-4.22.26-.76.55-1.51.87-2.27.26-.58.51-.99.76-1.22.25-.23.65-.35 1.2-.35.81 0 1.22.42 1.22 1.26 0 .58-.08 1.04-.22 1.39-.03.12-.35.9-.96 2.35 2.5-1.34 3.92-2.08 4.27-2.22 1.97-.96 3.43-1.44 4.36-1.44 1.1 0 1.99.46 2.66 1.37.67.91 1.01 1.94 1.01 3.07z"/>
    <path d="M302.183 152.313c0 .638-.305 1.742-.915 3.31-.29.755-.436 1.35-.436 1.786 0 4.41-.276 8.08-.827 11.02-1.743 9.4-6.418 14.11-14.026 14.11-1.37 0-3.14-.42-5.32-1.27-2.62-.99-3.92-2.05-3.92-3.18 0-.27.13-.79.39-1.57h.43c.75.84 2.03 1.68 3.83 2.52 1.8.84 3.24 1.26 4.31 1.26 3.51 0 6.44-1.69 8.8-5.05 2.09-3.02 3.13-6.39 3.13-10.11 0-.9-.17-1.66-.52-2.27-.58-.23-1.03-.35-1.35-.35-.18 0-.48.05-.92.17-.44.11-.77.17-1.01.17-2.82 0-4.88-.16-6.19-.48-2.62-.64-3.92-1.95-3.92-3.92 0-2.79 1.59-5.27 4.79-7.45 2.93-2.01 5.83-3.01 8.71-3.01 3.28 0 4.92 1.42 4.92 4.27zm-2.788-.523c0-.96-.886-1.438-2.657-1.438-1.86 0-3.935.784-6.23 2.353-2.526 1.713-3.79 3.455-3.79 5.227 0 1.945 1.903 2.918 5.707 2.918.988 0 1.96-.145 2.92-.435 1.364-.407 2.046-.988 2.046-1.743 0-.203-.06-.493-.19-.87-.13-.38-.19-.654-.19-.83 0-.347.54-1.407 1.61-3.178.53-.843.79-1.51.79-2.004z"/>
  </g>
</svg>
