<?xml version="1.0" encoding="UTF-8" standalone="no"?>
<svg width="148px" height="185px" viewBox="0 0 148 185" version="1.1" xmlns="http://www.w3.org/2000/svg" xmlns:xlink="http://www.w3.org/1999/xlink">
    <!-- Generator: Sketch 40.1 (33804) - http://www.bohemiancoding.com/sketch -->
    <title>grafico-corazon</title>
    <desc>Created with Sketch.</desc>
    <defs></defs>
    <g id="Layout-(ipad)" stroke="none" stroke-width="1" fill="none" fill-rule="evenodd">
        <g id="Home" transform="translate(-567.000000, -181.000000)" stroke-width="11" stroke="#000000">
            <g id="wrap">
                <g id="section-hago">
                    <g id="wrap" transform="translate(284.000000, 157.000000)">
                        <g id="grafico-corazon" transform="translate(362.000000, 105.500000) scale(-1, 1) rotate(25.000000) translate(-362.000000, -105.500000) translate(290.000000, 23.000000)">
                            <path d="M141.254935,98.2011723 C93.1946772,100.166706 125.368781,165.735509 142.288103,157.327677" id="Shape"></path>
                            <path d="M141.133267,98.1528732 C141.133267,118.121474 136.313256,137.695035 142.658002,157.663636 C90.8425774,184.98909 45.3718989,125.083287 9.4183392,94.6048969" id="Shape"></path>
                            <path d="M10.2807747,95.1705731 C-7.6960052,78.3549093 -0.987377861,34.8206957 22.2766902,22.2089479 C33.9087242,19.056011 41.0855254,24.1291986 52.7175595,24.1291986 C52.7175595,24.1291986 56.8526503,59.7697648 66.1533319,64.6473296" id="Shape"></path>
                            <path d="M141.600544,97.4144446 C153.232578,48.0184323 96.1298656,-43.4167393 51.7166448,23.8459157" id="Shape"></path>
                            <path d="M141.318661,98.0107927 C112.767305,90.6539398 93.5428811,76.1237642 66.0489825,64.5629954" id="Shape"></path>
                            <path d="M65.4508761,64.3195502 C53.8188421,87.4410878 27.3951191,79.8911912 9.4183392,95.6558759" id="Shape"></path>
                        </g>
                    </g>
                </g>
            </g>
        </g>
    </g>
</svg>