<?xml version="1.0" encoding="UTF-8" standalone="no"?>
<svg width="318px" height="169px" viewBox="0 0 318 169" version="1.1" xmlns="http://www.w3.org/2000/svg" xmlns:xlink="http://www.w3.org/1999/xlink" xmlns:sketch="http://www.bohemiancoding.com/sketch/ns">
    <!-- Generator: Sketch 3.4.2 (15855) - http://www.bohemiancoding.com/sketch -->
    <title>Logo TOT Copy 20</title>
    <desc>Created with Sketch.</desc>
    <defs></defs>
    <g id="Layout" stroke="none" stroke-width="1" fill="none" fill-rule="evenodd" sketch:type="MSPage">
        <g id="Logotipo-TOT-Copy" sketch:type="MSArtboardGroup" transform="translate(-331.000000, -423.000000)" fill="#000000">
            <g id="Logo-TOT-Copy-20" sketch:type="MSLayerGroup" transform="translate(331.000000, 423.000000)">
                <path d="M91.3195409,70.3267777 C88.9335217,55.9822573 79.5749077,52.6795315 69.9099246,52.6795315 C60.2449415,52.6795315 55.5395815,52.7290553 55.5395815,62.3940384 L58.155423,143.725274 C58.155423,153.390257 60.8775981,168.584805 70.5425812,168.584805 C80.2075644,168.584805 91.6698733,160.673198 91.6698733,151.008215 C91.6698733,151.008215 93.7055601,84.671298 91.3195409,70.3267777 Z" id="Shape" sketch:type="MSShapeGroup"></path>
                <path d="M257,78.1509932 C257,68.48601 250.539983,51.1875 240.875,51.1875 C231.210017,51.1875 221.664062,56.0381419 221.664062,65.703125 L222,138.5 C222,148.164983 229.835017,156 239.5,156 C249.164983,156 257,148.164983 257,138.5 L257,78.1509932 Z" id="Shape" sketch:type="MSShapeGroup"></path>
                <path d="M92.156626,102.990471 C111.702302,102.865159 149.508872,91.3280647 151.06165,90.7915253 C161.10459,87.3213358 194.522619,77.5932299 198.474463,42.765383 C200.557091,24.411045 190.867132,9.80867226 175.614105,3.82001771 C162.618987,-1.28213453 146.070382,-1.50002791 133.338269,6.57817058 C117.640552,16.537969 110.537627,36.9372694 118.698878,53.9473879 C126.812557,70.8583537 148.571773,81.4525288 183.018288,86.0437022 C222.513593,91.3077993 238.438813,92.7531831 254.415253,92.6389564 C257.0574,92.6200658 281.661384,93.254709 293.472696,90.928082 C300.948823,89.4554125 317.768757,77.7030574 317.614356,69.1440363 C317.459955,60.5850152 293.88213,60.6715021 285.323109,60.8259034 C280.769853,60.9080424 216.8777,63.7101382 178.716533,58.6238606 C164.649109,56.7488964 154.94672,52.1320291 148.653724,47.1301684 C142.360727,42.1283077 145.079987,33.6113603 147.101778,32.3285859 C151.822092,29.3336678 155.581959,28.2770013 162.70903,30.0303639 C169.8361,31.7837265 172.019676,39.5488843 169.376456,44.7157442 C161.157084,60.7826399 134.301076,63.8250888 133.779176,64.0084761 C117.631533,69.6824966 107.526773,71.8912921 91.9578817,71.991108 C88.0263211,72.0163142 75.1667229,72.6606953 55.2955961,73.7731512 C54.1963415,73.8346913 7.25399254,76.2637916 6.65459232,76.2995117 C-2.62679311,76.8547317 1.63000101,85.8157151 3.84017085,92.308572 C6.05034069,98.801429 11.6931281,107.366425 20.2382595,106.855142 C21.5637548,106.776091 89.0166507,103.010602 92.156626,102.990471 Z" id="Shape" sketch:type="MSShapeGroup"></path>
            </g>
        </g>
    </g>
</svg>