<svg width="146" height="110" viewBox="0 0 146 110" xmlns="http://www.w3.org/2000/svg">
  <title>
    Logo Superfruits
  </title>
  <g fill="none" fill-rule="evenodd">
    <path d="M50.557 109.93S57.08 97.708 72.53 88.806c6-3.46 8.402-5.367 15.472-6.202 6.08-.718 26.59 8.898 37.512-9.72 3.654-6.228 4.808-11.565 6.338-22.87 1.53-11.305-3.963-23.778-7.513-27.894-5.224-6.058-11.162-11.275-17.668-11.275-6.506 0-5.026 1.653-9.425 2.72-3.044.74-12.368.603-24.718-2.72-12.352-3.323-13.02-4.636-21.973-2.05-8.954 2.584-16.585 10.365-16.585 10.365s-8.38 13.104-14.296 20.063C13.76 46.183 8.23 59.79 19.7 78.63c12.212 16.95 20.928 15.844 25.578 12.663 3.208-2.195 9.96-4.776 13.172-15.603 2.8-9.437.86 7.204-1.078 13.476-.285.924-8.678 7.38-8.678 7.38s-8.516 7.694-20.898 5.5C15.414 99.85 4.666 81.675 2.306 74.42c-2.36-7.255-4.572-23.48 5.996-37.345C18.87 23.208 30.718 13.25 36.318 9.56c4.038-2.493 5.33-4.287 10.378-5.95 5.048-1.66 8.36-3.22 16.56-3.22s11.57 4.883 18.936 4.883c7.367 0 6.643-3.254 27.844-.745 21.2 2.51 35.654 25.487 35.654 42.278 0 16.79-1.153 32.46-16.127 47.91-14.974 15.452-28.16 2.645-31.47 1.323-3.31-1.323-7.216-7.138-19.486.007-12.27 7.146-13.906 8.748-17.43 10.206-3.523 1.458-10.62 3.678-10.62 3.678zm69.51-19.316s7.217-1.034 11.802-11.316c4.583-10.28 4.782-17.367 4.782-17.367s-6.02 9.962-8.54 15.98c-2.52 6.016-8.044 12.704-8.044 12.704zM9.74 49.188s-9.022 9.866.785 23.267c-1.31-9.458-.785-8.325-.785-12.033s-.545-7.402 0-11.234z" fill="#F1730A"/>
    <path d="M95.446 19.82l-8.52-11.604s-8.458 1.988-21.064 19.643-7.46 39.435-11.304 50.276c-3.844 10.842-9.853 21.104-17.888 23.892 4.618-.436 20.78-7.128 23.7-15.51 2.918-8.382 4.002-19.512 7.75-34.692 3.747-15.18 15.555-26.726 20.148-30.014 4.592-3.29 7.178-1.993 7.178-1.993z" fill="#317549"/>
    <path d="M49.4 54.26s23.632-8.18 30.816-8.18c7.184 0 21.664 1.643 24.047.262 2.384-1.38-2.042 5.238-12.613 7.417-10.572 2.177-11.442.21-15.61.21-4.17 0-12.942-.702-19.336 3.78-6.394 4.485-4.768 2.764-7.025.29-2.257-2.476-.28-3.78-.28-3.78z" fill="#317549"/>
  </g>
</svg>
