<?xml version="1.0" encoding="UTF-8" standalone="no"?>
<svg width="1200px" height="200px" viewBox="0 0 1200 200" version="1.1" xmlns="http://www.w3.org/2000/svg" xmlns:xlink="http://www.w3.org/1999/xlink">
    <!-- Generator: Sketch 3.8.3 (29802) - http://www.bohemiancoding.com/sketch -->
    <title>anim_sentir</title>
    <desc>Created with Sketch.</desc>
    <defs>
        <path d="M300.194837,10 C300.194837,10 291.978289,24.4588973 296.212226,31.5414709 C300.446163,38.6240445 310.685732,31.541471 305.627361,25.340026 C300.56899,19.1385809 300.194837,10 300.194837,10 Z" id="path-1"></path>
        <mask id="mask-2" maskContentUnits="userSpaceOnUse" maskUnits="objectBoundingBox" x="0" y="0" width="12" height="24.4977484" fill="white">
            <use xlink:href="#path-1"></use>
        </mask>
        <path d="M500.042855,21.40625 C500.042855,21.40625 489.990672,32.3900827 494.224609,39.4726562 C498.458547,46.5552298 510.419922,40.6875 506.621094,33.671875 C502.822266,26.65625 500.042855,21.40625 500.042855,21.40625 Z" id="path-3"></path>
        <mask id="mask-4" maskContentUnits="userSpaceOnUse" maskUnits="objectBoundingBox" x="0" y="0" width="14.1719077" height="21.2740857" fill="white">
            <use xlink:href="#path-3"></use>
        </mask>
        <path d="M691.246094,36.9548691 C692.972039,39.8420484 696.030612,45.2589155 699.557321,45.2578126 C704.682023,45.2562098 709.996349,38.4918132 707,34.8183594" id="path-5"></path>
        <mask id="mask-6" maskContentUnits="userSpaceOnUse" maskUnits="objectBoundingBox" x="0" y="0" width="16.6224535" height="10.4394533" fill="white">
            <use xlink:href="#path-5"></use>
        </mask>
        <path d="M870.220023,34 C875.214164,44.9394531 885.473291,44.9405562 889,44.9394532" id="path-7"></path>
        <mask id="mask-8" maskContentUnits="userSpaceOnUse" maskUnits="objectBoundingBox" x="0" y="0" width="18.7799768" height="10.9394532" fill="white">
            <use xlink:href="#path-7"></use>
        </mask>
        <path d="M905.113281,34.7226562 C910.107422,45.6621093 915.568994,23.6319623 919.095703,23.6308593" id="path-9"></path>
        <mask id="mask-10" maskContentUnits="userSpaceOnUse" maskUnits="objectBoundingBox" x="0" y="0" width="13.9824219" height="14.1391859" fill="white">
            <use xlink:href="#path-9"></use>
        </mask>
    </defs>
    <g id="Page-1" stroke="none" stroke-width="1" fill="none" fill-rule="evenodd">
        <g id="anim_sentir">
            <rect id="Rectangle-1" fill="#FFFFFF" x="0" y="0" width="1200" height="200"></rect>
            <path d="M11,35.0898438 C11,35.0898438 21.5976564,36.4296884 27.4062501,49.6992188 C33.2148438,62.9687491 42.4648439,67.3984375 42.4648439,67.3984375" id="Path-5-Copy" stroke="#0000FF" stroke-width="3"></path>
            <path d="M157.908203,10 C157.908203,10 161.474609,21.2558594 153.099609,30.875 C144.724609,40.4941406 140.181641,38.1464844 134.660156,42.9667969 C129.138672,47.7871094 127,56.1113281 127,56.1113281" id="Path-5-Copy" stroke="#0000FF" stroke-width="3"></path>
            <path d="M358.908203,11 C358.908203,11 361.474609,21.2558594 353.099609,30.875 C344.724609,40.4941406 340.181641,38.1464844 334.660156,42.9667969 C329.138672,47.7871094 327,56.1113281 327,56.1113281" id="Path-5-Copy-4" stroke="#0000FF" stroke-width="3"></path>
            <path d="M562.908203,15 C562.908203,15 557.474609,20.2558594 549.099609,29.875 C540.724609,39.4941406 540.181641,38.1464844 534.660156,42.9667969 C529.138672,47.7871094 527,56.1113281 527,56.1113281" id="Path-5-Copy-8" stroke="#0000FF" stroke-width="3"></path>
            <path d="M757.908203,16 C757.908203,16 748.474609,17.2558594 740.099609,26.875 C731.724609,36.4941406 741.181641,38.1464844 735.660156,42.9667969 C730.138672,47.7871094 727,56.1113281 727,56.1113281" id="Path-5-Copy-12" stroke="#0000FF" stroke-width="3"></path>
            <path d="M956.908203,18 C956.908203,18 950.829102,18.8144531 942.454102,28.4335937 C934.079102,38.0527344 940.181641,38.1464844 934.660156,42.9667969 C929.138672,47.7871094 927,56.1113281 927,56.1113281" id="Path-5-Copy-16" stroke="#0000FF" stroke-width="3"></path>
            <path d="M1157.9082,14 C1157.9082,14 1157.47461,23.2558594 1149.09961,32.875 C1140.72461,42.4941406 1140.18164,38.1464844 1134.66016,42.9667969 C1129.13867,47.7871094 1127,56.1113281 1127,56.1113281" id="Path-5-Copy-20" stroke="#0000FF" stroke-width="3"></path>
            <path d="M150,139 C150,139 163.034388,149.249909 166.667969,154.585938 C170.109909,159.640534 171.226562,170.171875 171.226562,170.171875" id="Path-5-Copy" stroke="#0000FF" stroke-width="3"></path>
            <path d="M56.7950388,158 C56.7950388,158 53.545039,176.402344 37.2091013,176.402344 C20.8731637,176.402344 27.2091013,186.210938 27.2091013,186.210938" id="Path-5-Copy" stroke="#0000FF" stroke-width="3"></path>
            <path d="M169.652548,71.5883876 C180.424548,95.6823876 167.152548,130.335388 140.739548,147.273388 C114.326548,164.210388 79.5115477,165.414388 56.2675477,157.477388 C33.0225477,149.540388 22.5345477,125.813388 28.7705477,102.102388 C35.0075477,78.3913876 37.5585477,62.8003876 58.8185477,49.1943879 C58.8185477,49.1943879 71.2905477,40.9733879 94.8185477,42.1073879 C118.345548,43.2413879 158.881548,47.4933879 169.652548,71.5883876 Z" id="icono_t0t-2-path" stroke="#0000FF" stroke-width="3" stroke-linecap="square" stroke-linejoin="round"></path>
            <path d="M369.652548,71.5883876 C380.424548,95.6823876 367.152548,130.335388 340.739548,147.273388 C314.326548,164.210388 279.511548,165.414388 256.267548,157.477388 C233.022548,149.540388 222.534548,125.813388 228.770548,102.102388 C235.007548,78.3913876 237.558548,62.8003876 258.818548,49.1943879 C258.818548,49.1943879 271.290548,40.9733879 294.818548,42.1073879 C318.345548,43.2413879 358.881548,47.4933879 369.652548,71.5883876 Z" id="icono_t0t-2-path" stroke="#0000FF" stroke-width="3" stroke-linecap="square" stroke-linejoin="round"></path>
            <path d="M569.652548,71.5883876 C580.424548,95.6823876 567.152548,130.335388 540.739548,147.273388 C514.326548,164.210388 479.511548,165.414388 456.267548,157.477388 C433.022548,149.540388 422.534548,125.813388 428.770548,102.102388 C435.007548,78.3913876 437.558548,62.8003876 458.818548,49.1943879 C458.818548,49.1943879 471.290548,40.9733879 494.818548,42.1073879 C518.345548,43.2413879 558.881548,47.4933879 569.652548,71.5883876 Z" id="icono_t0t-2-path-copy" stroke="#0000FF" stroke-width="3" stroke-linecap="square" stroke-linejoin="round"></path>
            <path d="M769.652548,71.5883876 C780.424548,95.6823876 767.152548,130.335388 740.739548,147.273388 C714.326548,164.210388 679.511548,165.414388 656.267548,157.477388 C633.022548,149.540388 622.534548,125.813388 628.770548,102.102388 C635.007548,78.3913876 637.558548,62.8003876 658.818548,49.1943879 C658.818548,49.1943879 671.290548,40.9733879 694.818548,42.1073879 C718.345548,43.2413879 758.881548,47.4933879 769.652548,71.5883876 Z" id="icono_t0t-2-path-copy-2" stroke="#0000FF" stroke-width="3" stroke-linecap="square" stroke-linejoin="round"></path>
            <path d="M969.652548,71.5883876 C980.424548,95.6823876 967.152548,130.335388 940.739548,147.273388 C914.326548,164.210388 879.511548,165.414388 856.267548,157.477388 C833.022548,149.540388 822.534548,125.813388 828.770548,102.102388 C835.007548,78.3913876 837.558548,62.8003876 858.818548,49.1943879 C858.818548,49.1943879 871.290548,40.9733879 894.818548,42.1073879 C918.345548,43.2413879 958.881548,47.4933879 969.652548,71.5883876 Z" id="icono_t0t-2-path-copy-3" stroke="#0000FF" stroke-width="3" stroke-linecap="square" stroke-linejoin="round"></path>
            <path d="M1169.65255,71.5883876 C1180.42455,95.6823876 1167.15255,130.335388 1140.73955,147.273388 C1114.32655,164.210388 1079.51155,165.414388 1056.26755,157.477388 C1033.02255,149.540388 1022.53455,125.813388 1028.77055,102.102388 C1035.00755,78.3913876 1037.55855,62.8003876 1058.81855,49.1943879 C1058.81855,49.1943879 1071.29055,40.9733879 1094.81855,42.1073879 C1118.34555,43.2413879 1158.88155,47.4933879 1169.65255,71.5883876 Z" id="icono_t0t-2-path-copy-4" stroke="#0000FF" stroke-width="3" stroke-linecap="square" stroke-linejoin="round"></path>
            <use id="Path-8-Copy-4" stroke="#0000FF" mask="url(#mask-2)" stroke-width="8" xlink:href="#path-1"></use>
            <path d="M212,36.0898438 C212,36.0898438 220.597656,37.4296884 226.40625,50.6992188 C232.214844,63.9687491 242.464844,67.3984375 242.464844,67.3984375" id="Path-5-Copy-5" stroke="#0000FF" stroke-width="3"></path>
            <path d="M350,139 C350,139 363.034388,149.249909 366.667969,154.585938 C370.109909,159.640534 371.226562,170.171875 371.226562,170.171875" id="Path-5-Copy-3" stroke="#0000FF" stroke-width="3"></path>
            <path d="M256.795039,158 C256.795039,158 253.545039,176.402344 237.209101,176.402344 C220.873164,176.402344 227.209101,186.210938 227.209101,186.210938" id="Path-5-Copy-2" stroke="#0000FF" stroke-width="3"></path>
            <path d="M412,39.0898438 C412,39.0898438 422.597656,38.4296884 428.40625,51.6992188 C434.214844,64.9687491 442.464844,67.3984375 442.464844,67.3984375" id="Path-5-Copy-9" stroke="#0000FF" stroke-width="3"></path>
            <path d="M550,139 C550,139 563.034388,149.249909 566.667969,154.585938 C570.109909,159.640534 571.226562,170.171875 571.226562,170.171875" id="Path-5-Copy-7" stroke="#0000FF" stroke-width="3"></path>
            <path d="M456.795039,158 C456.795039,158 453.545039,176.402344 437.209101,176.402344 C420.873164,176.402344 427.209101,186.210938 427.209101,186.210938" id="Path-5-Copy-6" stroke="#0000FF" stroke-width="3"></path>
            <path d="M620,40.0898438 C620,40.0898438 619.203125,50.2851563 627.40625,56.6992188 C635.609375,63.1132813 642.464844,67.3984375 642.464844,67.3984375" id="Path-5-Copy-13" stroke="#0000FF" stroke-width="3"></path>
            <path d="M750,139 C750,139 763.034388,149.249909 766.667969,154.585938 C770.109909,159.640534 771.226562,170.171875 771.226562,170.171875" id="Path-5-Copy-11" stroke="#0000FF" stroke-width="3"></path>
            <path d="M656.795039,158 C656.795039,158 653.545039,176.402344 637.209101,176.402344 C620.873164,176.402344 627.209101,186.210938 627.209101,186.210938" id="Path-5-Copy-10" stroke="#0000FF" stroke-width="3"></path>
            <use id="Path-8-Copy-3" stroke="#0000FF" mask="url(#mask-4)" stroke-width="8" xlink:href="#path-3"></use>
            <path d="M834.169125,30.2929688 C834.169125,30.2929688 821.664063,39.6914072 827.472656,52.9609375 C833.28125,66.2304678 842.464844,67.3984375 842.464844,67.3984375" id="Path-5-Copy-17" stroke="#0000FF" stroke-width="3"></path>
            <path d="M950,139 C950,139 963.034388,149.249909 966.667969,154.585938 C970.109909,159.640534 971.226562,170.171875 971.226562,170.171875" id="Path-5-Copy-15" stroke="#0000FF" stroke-width="3"></path>
            <path d="M856.795039,158 C856.795039,158 853.545039,176.402344 837.209101,176.402344 C820.873164,176.402344 827.209101,186.210938 827.209101,186.210938" id="Path-5-Copy-14" stroke="#0000FF" stroke-width="3"></path>
            <use id="Path-8" stroke="#0000FF" mask="url(#mask-6)" stroke-width="8" xlink:href="#path-5"></use>
            <use id="Path-8-Copy" stroke="#0000FF" mask="url(#mask-8)" stroke-width="8" xlink:href="#path-7"></use>
            <use id="Path-8-Copy-2" stroke="#0000FF" mask="url(#mask-10)" stroke-width="8" xlink:href="#path-9"></use>
            <path d="M1022.13281,30.5820312 C1022.13281,30.5820312 1019.59766,35.4296884 1025.40625,48.6992188 C1031.21484,61.9687491 1042.46484,67.3984375 1042.46484,67.3984375" id="Path-5-Copy-21" stroke="#0000FF" stroke-width="3"></path>
            <path d="M1150,139 C1150,139 1163.03439,149.249909 1166.66797,154.585938 C1170.10991,159.640534 1171.22656,170.171875 1171.22656,170.171875" id="Path-5-Copy-19" stroke="#0000FF" stroke-width="3"></path>
            <path d="M100,11.249023 C102.761424,11.249023 105,10.0898509 105,6.5 C105,2.91014913 102.761424,3.23270292 100,3.23270292 C97.2385763,3.23270292 95,2.91014913 95,6.5 C95,10.0898509 97.2385763,11.249023 100,11.249023 Z" id="Oval-1" stroke="#0000FF" stroke-width="4"></path>
            <path d="M1056.79504,158 C1056.79504,158 1053.54504,176.402344 1037.2091,176.402344 C1020.87316,176.402344 1027.2091,186.210938 1027.2091,186.210938" id="Path-5-Copy-18" stroke="#0000FF" stroke-width="3"></path>
            <path d="M1200,199.5 L0,199.5" id="Line" stroke="#FFFFFF"></path>
        </g>
    </g>
</svg>