<svg width="431" height="497" viewBox="0 0 431 497" xmlns="http://www.w3.org/2000/svg"><title>Shape</title><path d="M87.833 496.13c-3.33-3.33-5.142-2.688-7.244-7.245-1.58-3.425-.74-7.977-3.63-10.867 0-2.99-.91-2.825-.73-5.795-.96-.96-.19-3.385 0-4.347.65-3.385 1.3-5.204.72-8.693-.73-13.764-.73-16.662-.73-21.01.72-2.897.72-5.07.72-5.794-.73 0-.73-2.18-.73-3.63-1.08-6.46-3.11-9.1-5.8-14.49-1.45-.73-2.18-2.18-1.45-2.9 0-2.99-1.63-5.11-2.09-7.97-.46-2.88-.57-5.8-.82-8.7 0-2.9 0-5.8-.73-5.8 0-3.22-1.15-6.36-2.17-9.42-1.45-6.52-1.45-22.46 0-30.43.72-3.63 1.45-6.52 1.45-6.52-.73 0-.73-3.63-.73-7.25.52-6.74 2.17-13.53 2.17-20.28.72-.73.72-3.63 1.45-6.52 0-7.25 2.17-11.59 4.34-12.32 1.98 0 1.38-2.86 1.45-3.62.18-2.18.72-4.34.72-6.52.72-2.18.72-5.07.72-7.25-.72-5.8-.72-10.15-1.45-13.04 0-1.45 0-2.9.72-2.9 0 0 .72-1.45.72-3.62-.72-5.07.73-7.97 3.63-10.14 2.89-1.45 4.34-1.45 8.69-2.18 3.07 0 6.82 3 8.69 5.07.51.57-.04 2.17.72 2.17v5.07c.72 0 .72.72.72 1.45-.73.72 0 2.17 4.34 5.07.72.72 2.9 2.17 2.9 2.89.72.72 2.17.72 2.17 1.45h1.45c0 .72 0 1.45.72 1.45 4.35 1.45 7.97 7.97 6.52 11.59v2.9c0 .72 0 1.45-.72 2.17-.73 0-2.9 11.59-2.9 14.49v1.45l2.89-1.45c1.45-.72 5.79-2.9 9.42-3.62 13.44-5.04 31.85-2.85 44.91 2.17 2.9.72 5.79 2.17 6.52 2.17.72.72 1.45 0 .72-1.45 0-2.27-1.27-6.34-2.9-7.97-.72-1.45-.72-3.63-2.17-7.97 0-.73 0-2.18-.72-2.18-.73-2.9-.73-5.8 0-6.52.59-2.33 3.07-8.4 6.52-7.25 1.76 0 3.31-1.45 5.07-1.45.72.73 1.45 0 1.45-.72 0 0 .72-1.45 2.9-2.9 3.62-2.89 8.69-2.89 11.59-.72 1.45.72 2.9 1.45 3.62 2.17 3.16 0 9.4 2.89 11.59 5.07 3.38 2.26 2.99 5.43 4.34 8.7.33.8.57 2.17 1.44 2.17 0 0 .72 2.17.72 5.07.72 5.07 1.45 8.69 2.9 8.69 0 0 .72 1.45 0 2.17 0 1.45 0 2.9.72 3.62.55 1.1.52 2.41.73 3.62.01.07 0 2.17.72 2.17v2.18c-.16.47-3.77 44.19 0 44.19v5.79c.72 10.14-1.45 21.73-5.8 31.15-2.6 5.2-1.25 13.28-.73 18.11.72 0 .72 2.89.72 6.52.72 2.89.72 5.79.72 6.52 0 0 .72 2.89.72 6.52.31 5.8.99 11.59 1.45 17.38.15 1.84-.09 4.98 1.45 6.52v5.07c.73 0 1.45.72 1.45 2.9.72 7.24 1.45 10.86 2.17 11.59 0 .72 0 1.45-.72 2.9-.71.7-.23 2.03-.73 2.89-.51.89-1.45 1.45-2.18 2.17-1.45 0-2.9 1.45-3.62 1.45-3.04 3.03-8.16 1.51-11.59.72-1.2-.28-3.42-1.87-4.35 0 0 1.62-4.35.55-4.35 2.17-2.18 2.18-7.67-.77-9.42-2.18-2.9 0-6.52-5.07-7.25-9.42 0 0 0-1.45-.73-2.9-2.66-2.65-2.29-13.79-2.17-16.66 1.47 0 .79-2.88.73-4.35-.17-3.63.25-6.73-1.45-10.14-.73-3.63-.73-3.63-7.97-1.45-13.04 5.07-34.05 5.07-52.88 0-2.9-.73-5.07-.73-5.07-.73-.73.72-.73 13.76 0 13.76v2.17c-.73 2.17 0 11.59.72 14.49.72 3.62 2.17 16.66 2.17 16.66-3 3-2.85 5.96-7.97 7.24-1.44.73-4.34 2.17-6.52 3.62-5.07 2.18-11.59 2.9-13.76 1.45m216.61-8.69c-5.07-2.17-7.25-5.79-6.52-11.59.72-6.52 1.45-10.87 2.17-11.59 1.45-2.18 1.45-16.66.73-26.81 0-16.2-1.33-32.37-2.18-48.54 0-4.35-.72-12.32 0-18.84 0-23.9 0-26.08-1.45-29.7-.72-1.45-1.45-4.35-1.45-5.79-2.17-5.79-2.9-27.53-1.45-31.15.73-1.45 1.45-2.9 1.45-3.62.73-5.07.73-7.97 0-7.97v-.7c0-.72 0-2.17-.72-3.62-1.45-4.34-2.17-19.56-1.45-21.01 1.84 0 .34-5.07 2.18-5.07v-1.45c-.72 0 0 0 .72-.72 1.08 0 1.45-2.9 1.45-2.9.72 0 2.17-.73 2.89-1.45 1.47-.98 12.02-1.32 10.87-3.62-2.18-2.17-.73-4.35 2.9-3.62 2.17.72 2.17 2.17.72 4.35-2.37 1.19 6.99 1.52 7.97 2.17 4.02 2.01 7.85 2.27 11.59 5.07l4.35 2.17c.72 0 1.45.72 2.17 1.45 0 0 .72.72.72 0 .73 0 2.18.72 4.35 1.44 1.45 1.45 3.62 2.17 4.34 2.17 3.62-.72 21.01 8.69 25.36 12.32.72.72 2.17 2.17 2.9 2.17 2.68 1.34 5.78-5.07 8.69-5.8 2.17-.72 3.62-.72 5.79 0 3.62 1.45 5.07 2.9 5.8 6.52 0 1.45.72 3.63.72 4.35 1.45 2.18 0 7.97-1.45 8.7 0 0-.72 0-1.45.73-1.64.81.47 2.56.72 2.9 1.23 1.67 2.96 3.1 3.62 5.07 2.17 2.9 4.35 5.07 8.69 10.14l3.63 3.62c.79 4.53 5.78 7.58 7.97 10.86.72 1.45 1.45 2.89 2.17 2.89 0 0 .53 2.7 1.45 3.62.72 0 .72.72.72.72 0 .73 0 1.45.73 2.18 0 3.22 1.39 6.29 2.17 9.41 0 10.96 1.95 11.03-.73 21.74 0 0 0 1.45-.73 1.45v1.45c-.77 2.54-3.63 10.02-3.63 10.14-.72.72-1.45 2.17-1.45 4.34-2.17 8.69-3.62 13.04-4.34 13.76-.72 0-.72 0 0 0 0 0-.72 2.17-3.62 8.69-4.35 6.52-6.52 13.04-7.24 19.56-.72 3.62-2.17 5.8-7.97 12.32-1.45 1.45-2.17 3.62-2.17 3.62 0 1.2-.92 2.24-1.57 3.25-2.06 3.22-6.07 10.53-11.47 9.06 0 .72-1.45 1.45-3.62 2.17-4.35 2.9-6.1 4.06-10.86 4.34 0 .72-2.18 1.45-4.35 2.17-2.24 1.49-4.78 2.51-7.24 3.62-.83.37-5.07 1.06-5.07 2.9 0 0-4.35-.08-4.35 1.45-5.04 2.76-15.21 3.98-18.84 9.42 0 0-6.52 3.62-7.25 2.9 0 0-.72.72-1.45.72-1.36.69-2.86 1.08-4.34 1.45-.97.24-2.9-.27-2.9.73-.73.73-6.52 0-9.42-.72m23.18-20.28c2.89-.72 15.21-7.24 17.38-10.14 4.84-2.32 4.54-2.63 9.42-5.07.73 0 1.45-.72 1.45-1.45h.73l2.18-2.17c1.45-.72 2.17-1.45 2.89-1.45 0 0 1.45-1.45 2.9-2.17 5.45-4.84 14.23-8.03 16.57-15.85.55-1.83-.82-5.01-1.35-6.61 0-3.04-.91-2.83-.73-5.8-1.37 0-1.53-1.61-1.66-2.45-.42-2.75-.44-7.61-2.69-9.87.67-4.53-3.54-11.61-4.35-13.77-.72-1.45-.72-2.9-.72-2.9-3.78-7.31-6.47-15.11-10.14-22.46l-2.9-5.79-5.07 10.14c-2.18 5.07-6.52 13.04-8.7 18.11-6.52 12.32-11.59 24.63-15.21 33.32-2.89 7.24-7.24 21.73-7.97 23.9 0 0-.72 2.17-.72 3.62-.89 1.78-.92 3.88-1.45 5.8-.2.74.04 2.17-.72 2.17.56 3.67 1.57 12.73 7.25 11.59.73 0 2.18-.72 3.62-.72m10.87-142.71c-2.17-3.62-3.62-6.52-3.62-6.52 0-1.45-8.695-13.04-12.32-16.66-5.795-6.52-7.97-9.42-9.42-11.59 0-.73-.72-1.45-1.45-1.45 0 0-.72 1.45-.72 2.9-1.45 3.62-.72 5.07 0 13.04.73 3.62.73 15.94 0 23.18 0 2.94.63 6.62-1.45 8.69 0 1.47-.72 2.88-.72 4.34-2.17 3.62-1.44 10.87 0 17.39 1.45 5.79 1.45 10.14.73 33.32 0 10.14 0 13.76 1.45 21.01.73 7.24 1.45 15.21 2.18 23.18 0 7.97 0 7.97 7.25-5.79 5.1-10.2 9.63-20.66 14.34-31.05 4.71-10.39 9.03-20.95 13.91-31.26 1-2.11 2.66-3.87 3.68-5.97 2.95-6.04 1.86-12.87-.98-18.8-2.05-4.3-10.12-14.15-12.85-17.97M397 414.83c3.63-2.42 3.78-7.94 5.08-11.59 1.08-1.08 1.16-2.85 1.45-4.35.69-3.59.74-7.29 1.45-10.87 2.18-6.52 2.9-19.56 1.45-21.73V365c.73 0 .73-1.45.73-2.174-.72-2.894-.72-4.343 0-5.07 0-.722.73-2.17 0-3.62 0-2.173 0-3.622.73-3.622 0-5.368 3.97-9.208 0-14.49-.72-2.172-1.45-2.897-1.45-2.897-1.08 0-1.79-2.37-2.17-2.9-.89-1.264-1.93-2.416-2.9-3.62l-8.69-10.865c-6.36-6.37-8.64-5.15-13.76 2.172-6.66 11.09-8.55 12.75-14.49 24.63l-3.62 8.694 3.62 7.247c2.18 4.346 5.07 9.417 5.8 11.59 0 1.45 1.45 3.623 1.45 5.072.72.723.72 1.45.72 2.172.72.72 7.97 16.66 11.59 21.73 3.197 4.79 6.227 9.69 9.42 14.49.88 1.31 2.03 3.04 3.63 1.45m-35.49-76.06c3.62-6.52 4.34-10.15 8.69-23.91 1.23-4.92 2.69-8.78 5.07-13.04 0-1.45-10.86-11.59-13.04-13.04-1.61-1.62-3.92-2.34-5.79-3.63 0-.73-2.18-1.45-3.63-2.18-2.17-.73-3.62-1.45-3.62-2.18h-.72c-.86 0-5.587-2.41-6.52-2.9-3.23-1.62-12.5-4.35-15.21-4.35h-1.45c-.73-.73-2.177-.73-2.9 0-.727 0-.727.72.72 3.62 3.627 6.52 5.8 10.86 7.25 16.66 2.89 7.96 7.97 18.11 11.59 24.63 2.9 3.62 2.9 4.34 7.24 11.59 1.45 2.9 4.35 7.97 5.79 10.14 2.31 4.61 4.6 3.34 6.52-1.45m-78.97-85.48c0-.97-.027-1.93 0-2.9.02-.81.05-1.7.61-2.35 1.25-1.43 3.97-1.3 4.89.44.54 1.02.52 2.24.29 3.35 0 .43-.1.94-.31 1.32-.13.22-.453.46-.69.56-.89.39-1.93.47-2.86.17-.63-.21-1.24-.61-1.93-.61m51.43-4.35c0-.23.18-.4.34-.53.32-.27.727-.44 1.14-.49.22-.02.52-.06.67.16.13.2-.01.48-.1.65-.33.66-1.08.86-1.77.92-.06 0-.12 0-.18-.01-.07-.02-.14-.03-.2-.05-.34-.12-.03-.53.11-.67m5.8-3.62c.33.33.23.87.01 1.23-.47.78-1.18 1.65-2.185 1.66-.33 0-.8.02-1.01-.31-.2-.31.04-.68.2-.92.55-.8 1.33-1.41 2.173-1.86.23-.12.82-.23.82.18m-75.34.72c0-.73 0-1.45.726-1.45h.73c0 .72-.72 1.45-.72 1.45h-.72m32.6-3.62c-.86-.7-1.35-1.42-1.68-2.47-1.07-3.37 2.86-6.03 5.87-5.41 1.46.29 3.55 1.42 3.51 3.16-.01.68-.15 1.2-.45 1.81-1.45 3.62-4.35 5.07-7.25 2.89m-42.01-2.17c-.34-.09-.66-.22-.95-.4-.26-.16-.49-.38-.68-.61-.66-.79-.68-1.92-.28-2.81.85-1.88 3.73-3.49 5.44-1.71.45.45.73 1.03.85 1.66.16.82.13 1.58-.03 2.41-.73 2.17-2.17 2.9-4.35 1.45m98.53.72c0-.02 0-.02 0 0m-72.44-3.63c-.72-1.45-.72-1.45.73-.73.73 1.45 1.45 4.35 0 4.35.02-.67.12-1.38-.13-2.02-.21-.53-.59-1.03-.59-1.62m-174.59.72c-2.32-2.32-3.04-1.84-3.62-5.07-.73-.73-.73-5.07-1.45-30.43 0-4.35.72-15.94.72-25.35.73-14.49.73-41.3 0-42.02l-2.89 1.45c-1.94 3.88-11.59 3.6-11.59 8.69 0 0-.73 1.45-1.45 2.17-.73 1.45-2.18 3.62-2.9 5.8-.73 1.45-2.18 4.34-3.62 5.79-10.15 10.87-15.22 16.66-16.67 18.83-1.45.72-3.62 3.62-5.07 5.07l-3.62 3.62h-5.8c-12.32-.73-14.49-.73-16.66-2.18-5.35-2.68-6.58-.06-10.87-4.35 0-.54-.95-.52-1.45-.73-2.32-.94-4.5-1.03-5.79-3.62-1.77-5.32-7.99-7-10.86-11.59-2.17 0-4.34-10.14-2.17-13.76 0-4.38 1.45-8.67 1.45-13.04.6-2.39 2.06-9.8 2.9-12.32 0-3.62.72-5.07 4.35-7.97 2.18-2.17 4.35-4.34 5.07-4.34 0 0 1.45 0 2.9-.72 2.18-1.45 4.35-1.45 13.77-2.18 6.52-.72 10.86-.72 15.94 0 0 0 2.9-.72 6.52-1.45 5.07-2.17 9.42-2.9 22.46-4.34 5.79-.72 14.49-2.9 23.18-6.52l2.17-.72V84.6c0-7.245 0-14.49.72-16.662.73-7.245 1.45-19.56.73-22.458-.72-5.07 0-11.59.73-14.49 2.1-6.31 0-12.54 0-18.835-1.45-2.173-2.17-7.244-.72-9.417 2.17-4.347 7.97-3.622 11.59 2.897 2.9 2.898 2.9 5.072 1.45 7.97 0 .724-.73 2.897-.73 5.795-.726 17.387-1.45 21.01-2.9 27.53-1.45 5.794-1.45 7.243-2.17 26.803v21.01h4.35c2.23 0 4.41-.747 6.52-1.45 1.54-.514 2.73-2.173 4.35-2.173 5.36-1.79 2.85-9.172 3.624-12.772.52-2.405 1.67-4.658 2.89-6.795 2.38-4.767 2.505-9.33 5.8-13.765 0-2.463 1.49-4.63 3.12-6.274 5.35-5.382 11.59-12.532 20.06-12.532 2.9-.725 8.69 0 13.04.724 4.79.956 9.605 2.173 14.49 2.173.72.72 2.9.72 4.345.72 1.45-.73 3.62 0 4.35 0 .73.72 3.63 2.17 7.25 3.62 4.8 2.05 11 5.02 11.59 10.86.72-.73 1.45.72 2.9 2.17 1.45 2.17 1.45 7.24.72 17.38 0 1.45 0 3.62.73 5.79 0 1.45-.72 3.62-.72 4.34-.72.72-1.45 3.62-1.45 5.79-.72 5.79-2.89 10.86-5.79 12.31-.72.72-1.45 1.45-1.45 2.17 0 0-2.17.73-3.62 1.45-2.17 1.45-3.62 2.17-3.62 2.17-1.45 1.45-5.79 3.62-9.418 4.35-5.07.72-5.07.72-8.69-1.45-4.35-2.17-10.87-2.9-12.31-2.17 0 .72-.73.72-.73.72-2.17.72-5.07 1.45-5.8 2.17h-1.45c-.72 0-2.9.72-5.07.72-3.62 1.45-11.59.72-15.21 0-16.03-4.01-23.27 2.56-32.6 13.76-1.44.72-2.89 2.9-3.62 3.62-1.45.72-1.45 1.45-1.45 8.69.73 13.76 1.45 21.01 2.9 28.25 1.45 7.97 1.45 8.69 2.9 17.39 0 12.57 3.62 25.1 3.62 37.67 1.45 4.34 1.45 6.52-.72 10.14-.73 2.9-1.45 2.9-3.63 3.62-1.45 0-3.62.72-4.348.72 0 0-1.45 0-1.45-.73m-43.48-84c.73-1.45 2.18-3.62 2.9-4.35 0-.73 1.45-2.9 1.45-4.35.72-2.18 2.17-4.35 2.17-5.07l2.2-4.35c.72-2.18 5.79-8.7 8.69-10.87 1.44-1.45 1.44-1.45-.73-.73-1.45 0-4.35 1.45-6.52 2.17-8.3 1.66-8.29.58-16.67 1.45-4.12.42-10.09 2.95-13.77-.73 0 0-2.18 0-3.62.72-1.45 0-5.07.72-7.25 1.45-5.46 0-8.87 1.89-13.04 5.07 0 .72-1.45 1.45-2.17 1.45-3.62 1.44-4.35 4.34-5.07 11.59v7.24l5.79 4.34c6.58 5.27 13.04 5.8 20.28 9.42h4.35c0 .67 1.13.94 1.8.91 1.86-.1 3.88-.27 5.446-1.28 3.43-2.22 10.95-11.32 13.76-14.13m126.1-57.93c0-.72 5.07-2.17 9.41-3.62 0 0 .72 0 2.17-.72 2.17-.73 3.62-2.17 2.9-3.62 0-.73 0-2.9.72-4.35 2.61-3.91 1.35-8.44-.72-12.32-.9-1.68-3.62-1.93-3.62-4.35-.73-2.9-3.62-5.07-7.25-7.25-3.62-1.45-12.31-3.63-16.66-3.63-13.04.72-12.31.72-15.21 3.62-2.7 2.16-5.27 4.54-7.43 7.24-1.83 2.27-1.3 5.82-3.44 7.97-.54 0-.46.97-.72 1.45-1.88 3.36-5.18 9.52-7.97 12.31-2.32 1.16-5.38 7.86 0 6.52 2.17 0 3.62 0 5.07.72 1.04 1.03 4.34.72 4.34.72 0 .72 2.17.72 4.35.72 7.24-.72 8.69-.72 11.59 0 2.92 0 9.65.91 13.04 1.45.72.72 8.69-2.17 9.42-2.9m126.05 142c-1.56 0-2.36-3.54-3.08-4.16-1.21-1.05-2.71-1.72-4.17-2.36 0-.73-1.45-.73-2.9-.73-2.9.73-2.9.73-3.62-1.44 0-1.45 0-1.45 0 0-1.33 1.33-4.3-2.22-2.9-3.62 0-.49-1.45-.49-1.45 0 1.37 1.36-1.45 1.19-1.45 2.17v.72c-1.95 0 .72-5.79.72-5.79H295c0 2.29-6.52-.12-6.52 2.17 0 0-2.535.75-2.535-.1 0-1.09 2.534-.99 2.534-2.08-.73-.73-.73-2.18-.73-2.9.72-1.45 0-1.45-2.18 0-.73 0-1.45.72-.73 4.34 0 2.17 0 4.35-.73 4.35-.8 2.13-1.95 4.25-3.63 5.8-1.54 1.42-6.52.21-6.52 3.62.72.73-.73.73-1.45-.72-1.35-1.34-6.52-.27-6.52-3.62.72-.72 0-1.45 0-.72-.73 0-.73-.72-.73-2.17.82-2.46-4.18-3.35-2.17-4.35.72-.72 0-1.45-.72-1.45-3.77-1.88-6.58-6.04-7.25-10.14-.15-.91 2.59-1.87 2.89-2.17 1.45-2.18-.73-2.9-3.63-1.45-1.47.98-.25-.98-1.45-2.18-.72 0-.72 0 0 0 1.45-.72 1.45-1.44-.72-2.17-1.45-.72-1.45-.72-.73-.72 1.45-.72 4.35-7.24 2.17-7.97l.72-.72c.42-.21 1.27-.62.99-1-.44-.6-1.42-.48-2.16-.58-.33-.05-1.34.13-1 .13 2.45-2.46.85-6.95-2.9-5.07-2.05 2.05-6.39-6.09-4.35-5.07 1.06 0 6.87-1.64 4.34-2.9l-.73-.72h1.45c0-.73 0-.73.72-.73 0 0 .72-1.45 1.45-2.17.72-1.45.72-2.17.72-1.45.72 2.17 2.9.73 2.9-.72.72-1.45 1.45-2.9 2.17-3.63.72-1.45 2.17-2.17 2.17-2.9l2.18-2.17c.72.36 3.54-.18 3.62-1.45.07-1.21-2.9-.97-2.9-2.18 0 0-.58 2.17-1.45 2.17-2.17.72-2.17-.73-.72-1.45.72-.73.72-2.17.72-3.62-.73-2.18-.73-2.18-1.45-2.18-2.17.72-3.62-1.45-2.17-2.9 1.08 0 1.82 1.45 2.9 1.45 2.17-.72 2.17-1.45.72-2.17-.73-.72-1.45-1.45-2.17-1.45-1.1-1.11-4.28-1.02-5.53-1.63-2.2-1.08-1.79-2.72-4.62-2.72V149c.92-.93-3.63-5.2-3.63-6.52.89-1.795-.51-1.7-2.18-1.45 0-.765-1.48-.41-2.18-.72-2.24-1-2.4-1.99-5.07-1.45-2.18 0-3.63 0-3.63-.725 0 0 0-.72-.72-.72-1.45-.724-1.45-2.9 0-5.795 1.45-1.45 1.45-3.62 1.45-4.342 0 0 0-1.443.72-2.89 1.45-.73 2.18-2.9 2.18-3.62v-2.18l-2.17 2.17c-2.17 2.17-2.9 2.17-5.07 1.45-1.51-.61-3.59-1.87-4.15-3.57-1.28-3.86 3.42-7.78 7.05-6.57l1.45.72c-.44-.437.71-1.12 1.3-1.3 2.13-.63 5.67-.43 7.39 1.29.72 2.17 2.17 2.17 5.07 1.44 1.45-.727 1.45-.727 1.45-2.17-.73-1.45 0-2.18 0-1.45.72.72.72 0 .72-2.18-.72-3.62 1.45-5.8 3.63-5.07 1.45.72 2.18.72 2.9.72 0 .73 1.45.73 2.9 1.45 2.17 0 2.9 0 3.62-1.45.73-.72.73-1.44 0-5.07-.72-2.17-1.45-3.62-2.17-3.62-.78-.78.58-3.72.72-4.35.35-1.5 1.51-6.46 0-7.97-.73-1.45-.73-1.45 0-2.89 1.45-2.177 2.9-2.177 5.07-1.45 2.91 1.94 5.14.07 6.52-2.176 3.56 0 2.78-6.026 3.62-4.346l1.45 2.17.73-2.173c.72-.725 1.45-.725 2.17-.725 0 .73 1.45.73 2.17.73 1.45.72 1.45.72 1.45 1.45-.72 0 0 .72 0 0 1.85 0 .71-2.9 2.18-2.9v1.45c-.73 2.18.72 2.18 1.45.73 0-.72 1.45-2.17 2.17-2.89 3.12-1.56 2.41-3.74 5.79-2.89h.73c-.73-.72-.73-.72 0-1.45 0 0 5.03 2.82 4.34 1.45 0-1.115.5-2.33 1.34-3.064.8-.65.83 3.1.83 3.1-1.45 0-1.45.73.73 2.9.72 2.18 1.45 2.18 1.45 0 0 0 0-.72.72 0 1.7 0 4.13-1.19 2.17-2.17-1.38 0-.52-2.7.72-1.45l2.9-2.9c3.45-2.582 3.49-.133 6.52 2.9 1.13.567 1.22 3.62 2.17 3.62 3.32-2.213 3.7-7.77 8.7-6.52.72 0 2.9.728 3.62.728 2.17.72 2.89 0 2.89-.725.72-.73.72-.73 2.9 0 1.71 0 5.07-.99 5.07.72 0 0 .72.72 2.17 0 1.76 0 5.07 1.45 5.07 1.45 0 2.27 4.01 4.26 4.89 5.79.88 1.54 1.28 3.33 1.63 5.07 1.36-.68 2.13-3.95 3.08-4.89 1.02-1 4.99-1.53 2.72-3.8-.5-.99-.84-2.07-1-3.17-.69-4.84 12.86-.64 6.07 3.89-2.85.95 1.39 2.24 1.83 2.24 2.79 0 8.54-2.51 10.48 1.37.72.72 2.17.72 2.17 1.45 2.77 0 3.3 4.02 3.62 5.79.17.98-.27 2.9.72 2.9.84 2.69 1.59 2.35 4.35 2.9 3.44.423 3.87-.628 6.52 2.17.39.403.14 1.16.45 1.63.21.31 1.38.54 1 .54-2.17.72-2.9 2.17-.73 2.9h-.73c-.72.72-2.9.72-4.35.72-1.45-.73-2.17 0-2.17.72l-1.45 1.447c-1.45.72-.72 2.893.73 3.62l-.73.722c-1.45.73-1.45 1.45 0 .73.73 0 2.9 1.45 2.17 2.17 0 0 2.17.72 2.17 0 1.36-.88 7.36-2.78 8.69-1.45 0 .69 1.09.9 1.74 1.14 2.03.76 4.2 1.04 6.23 1.77.58.21 1.2 1.7 2.17.72 1.45 0 2.17 0 2.17.73 0 0 .72 2.17 2.89 3.62 1.1 1.09 1.63 2.74 2.9 3.62 1.45.99 3.75.22 5.08 1.36 1.97 1.68.31 5.16-2.18 5.16-2.42 1.21-4.39 6.47-2.17 8.69-1.45.72-1.45 2.17.72 4.35l1.45 1.45-2.17.72h-.7c3.62.723 5.8 5.07 2.17 7.243-1.45.73-2.17.73-3.62 0-2.53 0-2.87-2.94-4.35-.72-2.08 1.04-6.77 3.12-5.07 6.52 1.45 1.45 1.45 1.45-.72 1.45-1.53-.76-1.93 3.87-.73 5.07 1.45 2.18 1.45 2.18-1.45 5.8-.72 2.17-2.89 3.62-4.34 4.35-2.17 1.45-2.17 2.9.72 2.17 2.9 0 2.9 1.45 1.45 6.52l-.72 2.89v-4.35c0-3.63-.73-5.8-1.45-3.63 0 1.32-3.05 1.04-3.17 2.36-.19 2.04 2.44 3.58 2.44 5.62-1.48 2.96 3.15 2.3 4.34 2.9 1.45 1.45 1.45 1.45 1.45 3.62-.8 3.16-1.06 3.69-4.35 4.35-.6.12-2.9-.37-2.9-1.45-1.2-1.8-7.21-2.55-6.48-.51.49 1.39 1.74 2.41 2.25 3.79 1.01 2.76-3.63 4.43-5.2 4.69-.76 0-1.62.21-2.27-.18-.69-.42-.51-2.98-2.08-2.72-1.81.3-3.63 1.02-5.07 2.17-.42.33.91.72 1.45.72.34-.34 1.23-.43 1.45 0 .26.52-.16 1.29-.64 1.63-.92.65-4.43 1.34-4.43-.91h-.7c-1.45.72-1.45 1.45.72 2.17h.72c-1.58 1.58-.57 2.9-2.89 2.9-.72-.73-.72.72.73 1.45.72 0 .72.72 0 .72-.73.72-.73.72 0 2.17.45.45 1.24 1.05.99 1.63-.53 1.26-3.89 1.27-3.89 1.27 0 1.31-5.29 6.54-6.52 6.52 0 1.87-8.18 1.24-4.34 5.07v1.45c-1.37 0-1.94 1.93-2.9 2.9-.73 0-1.45.73-1.45 1.45-3.45 2.68-2.71 3.97-5.07 8.69-1.45.73-1.45.73-2.17 0-2.9-1.45-5.08-2.89-6.52-2.17-.73 0-1.45.72-1.45 1.45v.72c-1.32 0-1.59 1.17-2.18 0 0-1.72-3.31-.33-2.82-1.94.69-2.3 1.71-1.46 2.82-3.49.7-1.29-.728-1.45-.728-2.54.725-.73 0-.73-2.17.72h-.72c0-.54-1.12-.29-1.45-.72-.45-.61-1.48-2.17-.72-2.17h.73c0-1.45-3.49-.13-4.07-1.45-.73-1.66.11-3.71-.45-5.44-.19-.58-2.71-.47-2.71.37.72 0 .72 0 .72.72-.73.72 0 1.45.72 2.17.24 0-.525-.13-.73 0-.57.38-1.07.88-1.45 1.45-.87 1.28-1.8 4.71-2.9 3.62 0 0 0-.72.72-1.45 1.45-.72 1.45-1.45.73-2.17 0-.73-.72-.73-1.45-.73 0 .73-.72 0 0 0 0-1.47-2.9-.7-2.9.73-.72 2.18-2.89 1.45-5.79-1.45-.72-2.17-2.9-2.89-2.9-2.89-1.45-.72-2.17.73-1.45 2.9 1.23 1.23 5.07-2 5.07 1.45 0 0 0 .72.73 1.45 1.45.72.73.72-1.45 0-4.3-1.08-.72 1.65-.72 2.17-.72.72-5.79.72-6.52-.72 0-.77-.04 2.17.73 2.17v.72c-.72 1.45 0 2.17.73 2.17 1.166.59 2.17 3.26 2.17 3.26-.25-1.08 2.17-2.53 2.17-2.53-.72-.72-.72-3.62 0-2.9 1.14 0 3.43 2.41 3.06 3.67-.21.73-1.68.44-1.97 1.13-.19.46.65.78 1.09 1 .72.73.72 4.35 0 6.52-.725 1.45-2.9 1.45-3.62 0m-10.87-7.97c0-.72-.725-.72-1.45-.72v.73l.725.73.72-.72m24.63-13.04c0-.2.08-.47-.09-.63-.16-.17-.433-.1-.63-.09-.24.01-.69-.04-.71.3-.01.14-.02.28-.01.42 0 .3.03.39.13.66.13.35.67.61.96.29.23-.25.35-.6.35-.95m10.87-1.45v-.7c-.72 0-.72 0-.72.73v.72l.72-.72m-21.733-3.62c0-.73 0 0 0 0 0 .72-.72.72-1.45.72-.72-.72-1.45-.72 0 .73l.73 1.44.72-1.45v-1.45m-23.9 1.46c0-.72-.72-.72-.72-.72-.72 0-.72 0-.72.72 0 0 0 .722.73.722l.73-.72m73.89-8.7c-.72 0 0-.72 0 0 1.45.73 2.18-.72 2.18-2.17.725-1.45-2.17-1.45-3.62.72-.727 1.45 0 2.9 1.45 2.9v-1.45m-57.96-2.17V202c.15-.45.28-.902.4-1.37.12-.47.125-1.09-.36-1.365-.2-.116-.545-.13-.77-.152-.18-.014-.49-.1-.635.095-.2.267-.07.61-.13.905-.07.4-.23.573-.39.94-.24.567-.26.654-.3 1.27-.01.094.03.26.09.333.15.19.45.095.64.095.485-.01.97 0 1.45 0m-2.9-7.97c-.72.73-.72.73-2.17 0-.72 0-.72 0-.72 1.45.73 1.45.73 2.9.73 2.9-.73.73 0 .73.72.73.44-.22.81-.46 1.09-.88.53-.8.37-1.84.36-2.74 0-.47.004-.96 0-1.45m40.57 4.35h-2.17 2.17m32.6-6.52H379h1.45M253.7 189c0-.72-.72-.72-.72-.72s-.724 0-.724.724v.728c.725 0 1.45-.723 1.45-.723m135.47-8.7c2.9-2.9 2.174-4.35-.724-2.9-.69.23-1.503.5-1.9 1.18-.47.8-.44 1.81-.15 2.67.15.44.624.82 1.106.66.77-.26 1.25-.97 1.67-1.61m-25.353-1.45v-1.45c-.24 0-.69-.04-.714.31-.01.14-.01.28-.01.42 0 .27.01.55.01.82 0 .09-.04.34.11.37.07.01.17-.04.22-.07.21-.17.2-.21.39-.39m34.05-11.59c0-.08-.01-.16-.04-.24-.17-.6-.95-.48-1.41-.49-.2 0-.47-.07-.63.1-.16.16-.09.43-.09.63.33.32.71.65 1.18.69.44.04.98-.19 1-.69m-120.98-7.97c-.72 0-.72 0-1.45.72-.72 1.45-.72 2.17.73 1.45.72-.72.72-1.45.72-2.17m120.26 1.45c0-.73-.72-.73-1.44-.73v.72l.72.72.73-.72m-18.84-6.52c-.56-.49-1.4-.81-2.15-.77-.13 0-.26.03-.38.07-.32.09-.36.41-.36.7.03.43.5.67.89.68.73.01 1.46-.2 2.01-.68m18.84 0c0-.77-.7-1.42-1.45-1.45-.41-.02-1.29.04-1.19.67.13.85 1.08 1.22 1.83 1.32.34.05.81-.15.81-.54m-22.45-.72c0-.73-.72-.73-.72-.73-.72 0-.72 0-.72.73 0 0 0 .72.72.72l.72-.73m3.62-5.8c-.72 0-.72-.73-.72-1.45 0 0 .73 0 1.45.72.59 0 1.61.39 2.04-.31.11-.17.12-.38.15-.58.02-.12 0-.51-.01-.38-.02.19 0 .37 0 .55.72.72 1.45.72 2.17 1.45 1.45 0 2.17 0 2.17-1.45.72-2.18-.72-2.9-3.62-2.18-.67.23-1.63.54-2.35.55-.95.02-1.65-1.16-2.63-.63-1.08.59-.76 1.96-1.26 2.89-.12.22-.28.43-.47.59-.1.08-.26.05-.37.11-.06.02-.23.11-.16.13.42.09.87-.01 1.27.12.49.16 1.29.98 1.63 1.32.72 1.45.72 1.45.72 0 .72-.73 0-1.45 0-1.45m-5.8-5.07s0-.73.72-1.45h-2.18c-.72 1.45.72 3.62 1.45 2.9v-1.45m2.9-4.35c-.72-.73-1.45 0-.72 1.45.73.72.73.72.73 0 .72-.73 0-1.45 0-1.45m-2.9-2.18c.73 0 1.45 0 1.45.73.16.16.33.32.54.41.84.35.74-.86 1.37-1.03.32-.08.67-.03 1-.09 1.13-.21 2.1-.92 2.81-1.81.16-.21 1.06-1.81.09-1.81-1.45-.73-.73-2.9.72-3.62.73-.73.73-1.45-.72-2.18-.73-1.45-1.45-.72-1.45 1.45-.88-.01-1.75-.01-2.63.05-.36.02-.99.2-.99.68-.72.73-1.45.73-2.17.73-.72-.36-1.58-.16-2.26.18-.21.11-1.33.88-.63 1.27.99.55 1.97.76 3.08.9.54.06 1.07.11 1.61.12.16 0 .5-.18.38-.29 0-.92.04-2.16.92-2.75.16-.1.35-.12.54-.15.24-.03.96 0 .72 0-.95.95-1.26 2.35-1.45 3.62-.08.6.23 1.38-.26 1.9-.49.51-1.31.27-1.9.27-2.18-.72-2.18-.72-2.18 1.45.15.46.23.93.37 1.39.14.44.41-.17.45-.26.28-.59.18-.63.62-1.13m-127.5-4.35c-.72.72-.72.72 0 1.45.09.17.18.33.28.48.08.11.17.23.26.34.06.06.25.23.37.26.3.06.47-.39.52-.6.11-.52.11-1.13-.23-1.57-.27-.36-.77-.36-1.18-.36m31.88.73c0-.72-.73-.72-1.45-.72v.72s.72.73 1.45.73v-.73m91.28-2.9c.45 0 .6-.58.64-.91.11-1.17.1-2.99.09-4.17-.37 0-.55.19-.64.53-.16.62-.04 1.41-.53 1.92-.31.33-.57.39-.99.46-.15.03-.5-.05-.63.09-.12.11-.09.5-.09.64h.72c1.45-.73 1.45.72 0 1.44-.72.73-.72 1.45.73 2.17h.72v-2.17M377 126c-.39-.78-.93-1.47-1.45-2.176-.23-.3-.53-.55-.8-.83-.02-.01-.31-.35-.19-.43 1.07-.68 2.37.21 3.44-.49.4-.26.43-.72.46-1.14.01-.24 0-.96 0-.72.72.72 1.45 1.45 2.17 1.45 2.17.72 2.17.72 1.45-2.18 0-.73-.73-2.17-.73-2.17-.73-.72-4.35 1.45-4.35 2.18h-.73c-.72 0-1.45 0-1.45.722-.51.513-1.18 1.16-1.93 1.324-.27.07-2.48-.34-2.08.74.11.29.26.57.4.84 0 .73.72 1.45 1.45 1.45v.73c-.77.77 1.35.72 1.45.72.97.02 1.94.02 2.9 0m-2.9-7.97c1.29 0 1.69-1.64 1.39-2.64-.2-.673-1.1-.434-1.46-.04-.14.16-.25.34-.34.53-.12.23-.22.467-.3.71 0 .73-.72 1.45-1.45 2.177-1.45.72 0 .72 2.18-.72m9.42-5.796c-.726-.72-1.45-.72-2.9 0-1.45 2.17-1.45 2.17 0 2.9.26.18.53.34.81.48 1.11.57 2.955 1.08 3.45-.53.2-.68.006-1.48-.356-2.07-.212-.36-.55-.77-1.01-.77m-131.85 1.45l-1.45-1.45c-.273-.14-.55-.27-.824-.39-.07-.03-.2-.08-.28-.07-.18.03-.05.29-.02.36.13.28.26.55.4.83.13.25.34.62.54.83.42.45 1.04.62 1.64.62v-.72m32.6-.72c-.73-.73-1.45 0-.73 1.45.727.72.727.72.727 0 .73-.73 0-1.45 0-1.45m5.8 0c-.1-.75-.71-2.16-1.72-1.72-.16.06-.32.14-.45.27 0 .78-.76 1.29-1.45 1.45-.25.06-.33-.08-.58.06-.32.18-.244.73-.05.98.72.88 2.016.42 2.84-.02.26-.14.516-.28.755-.46.24-.17.46-.36.66-.57m6.52-5.79c-.73-.72-1.45-.72-1.45 0-.73 0 0 .72.72 1.45 1.45.72 2.17.72.72-1.45m63.04-18.13c0-.73.73-.73 2.18-.73 2.17.73 3.62 0 3.62 0v-2.9c.14-.4.23-.83.3-1.25.08-.58-.53-.91-1.02-.92-.97-.02-1.94 0-2.9 0-2.17 1.45-3.62 6.52-2.17 6.52v-.72M340.8 70.26c-1.45 0-1.45 0-.73 1.45.16.47.4.89.77 1.23.29.26.61.42 1 .47.48.064.95-.07 1.34-.37.77-.61.9-2.01.04-2.59-.29-.2-.61-.33-.96-.364-.53-.05-.96 0-1.47.18m-28.97-1.45c.72-.72 2.17-.72 3.62 0 .55 0 1.09.11 1.64.09.28-.02.56-.1.81-.21.45-.2.59-1.06.2-1.37-.66-.53-1.48-.44-2.19-.82-.51-.27-.36-1.06-.44-1.49-.05-.34-.16-.8-.6-.79-1.92.046-3.42 1.7-4.26 3.284-.11.21-.94 1.81 0 1.79.17-.01.35-.026.51-.086.25-.09.49-.23.71-.38m19.56 170.24h.73-.72m-39.12-2.9c.9 0 1.84 1.1 1.23 1.94-.07.09-.15.16-.25.23-.708.53-1.68.3-2.44 0-.63-.25-.7-1.11-.37-1.63.38-.57 1.19-.85 1.81-.54m36.95-5.79l-1.45-1.45 1.45-.723c2.9-.72 4.35-.72 3.63 1.45 0 2.9-2.18 2.9-3.63.73m-36.22.72c-.18-.1-.37-.21-.55-.32-.25-.15-.78-.62-.39-.91.07-.05.14-.09.22-.13.08-.03.16-.05.24-.07.53-.09 1.08-.05 1.6.11.39.12.37.66.24.96-.11.25-.39.35-.63.35h-.73m69.54-1.45c.07.01.15.02.22.04.63.21.56 1.04.43 1.54-.08.3-.32.6-.65.6v-2.19m-40.57 0v-.72c.727 0 1.45 0 1.45.72l-.723.73-.72-.73m-71.72-2.17c-.45 0-.6-.57-.64-.9-.07-.66-.077-1.33-.1-1.99-.03-.98-.2-2.28.61-3.06.24-.23.535-.41.83-.57 1.517-.5 3.495.04 4.39 1.4 1.11 1.69.546 3.96-1.3 4.84-.38.17-1.08.38-1.494.42-.83.08-1.5.07-2.32-.14m70.274-.73l-.72-.72c.456 0 .93-.01 1.36.18.36.16.52.27.81.54.15.14.31.35.416.53.05.08.08.16.105.24.02.07.03.14.03.21 0 .52-.69.52-1.04.36-.51-.24-.94-.76-.94-1.34M235 206.49c-.725 0-1.45-.726-2.174-2.175-.72-3.62 5.075-5.792 7.25-2.17 1.45 2.9-1.45 5.797-5.07 4.348m11.59-2.9c-.726-1.45 0-2.174.723-.725.72.728.72 1.45.72 1.45-.73 0-1.45 0-1.45-.722m3.62 0c0-.726 0-.726.72-.726.28.097.55.198.82.307.33.135.67.3.86.62.1.164-.05.36-.2.41-.1.03-.19.056-.28.065-.13.02-.27.035-.41.03-.58-.03-1.11-.328-1.52-.726m0-5.07s.72.724.72 1.45l-.73.723c-.08 0-.16-.01-.24-.03-.6-.18-.48-.95-.49-1.42 0-.2-.07-.47.09-.64.16-.17.43-.09.64-.09m-12.32-2.17c-3.63-2.17-1.45-7.25 2.89-6.52.7 0 1.07-.03 1.72.27.73.33.94 1.24 1.17 1.9.37 1.05.76 2.32.1 3.36-.23.36-.52.68-.83.98-2.18 1.45-2.9 1.45-5.07 0m156.48-.73h1.45-1.45m-8.69-2.9c-.09-.18-.16-.38-.22-.57-.1-.29-.12-1.02.38-.94.12.02.24.03.34.08.71.32 1.25.95 1.45 1.71.16.59-.23 1.39-.94 1.1-.55-.23-1.02-.76-1.02-1.39m-154.31-9.42c-2.18-1.45-2.18-1.45-1.45-4.35.64-.64 1.09-1.51 1.93-1.94.68-.33 2.27-.46 2.96-.69.33-.11.9-.58.9-.99.72-1.45 2.17-1.45 1.45 0 0 1.45 0 1.45 2.89 1.45 1.13-.38 3.33.08 2.77 1.68-.33.95-1.17 1.5-2.04 1.93-2.17.72-3.62 2.17-2.9 2.9-.17.62-.89.59-1.36.81-.36.18.13.82-.32.89-1.78.24-3.77-.1-4.84-1.7m-14.49-5.07c-.72-1.45-.72-3.63.73-4.35 2.17-.73 4.34 0 5.07 2.17 1.45 2.9-5.07 5.79-5.8 2.17m206.47-2.18c-.34-1.36-.34-3.29.85-4.28 1.6-1.34 5.38-1.29 6.13 1.04.44 1.42.3 2.92-.55 4.16-.97 1.42-3.24 1.8-4.72 1.03-.8-.42-1.32-1.16-1.72-1.95m-173.84-1.43c-.73-.72-.73-.72 0-.72 0 0 .72 0 .72.72.73 1.45 0 2.17-.72 0m-18.83-2.18c0-.87 1.1-1.08 1.76-1.08.2 0 .4 0 .6.04.21.03.41.09.6.17.36.12.7.46.67.86-.09 1.21-1.55 1.51-2.52 1.44-.2-.01-.41-.05-.59-.12-.52-.18-.97-.86-.51-1.32m7.24.73c.72-.73.72-.73.72-1.45-.73 0-1.45-1.45-.73-2.17 0-.73-.73-2.18-.73-3.62-.52-1.53-.26-3.57 1.11-4.58.95-.71 2.55-.99 2.95-2.3.32-1.05-1.02-1.61-1.36-2.36-.28-.63-.02-1.76.18-2.36 0-2.18 0-2.9 1.45-2.9 1.38-.35 4.4-1.1 5.29.81.3.64-.16 2.8 1.22 2.8l.72-.73c0-.78 1.26-.83 1.14-.47-.88 2.66-2.81 4.65-5.49 5.54-1.44.73 1.45 1.45 3.63 1.45 2.89-.72 6.52.73 5.79 2.18 0 .72 0 1.45.72 1.45.89 1.86 1.56 5.37-.73 6.52-1.45 0-1.45 1.44 0 2.17h-1.45c-1.45-.73-2.9-.73-2.9-1.45-2.81 0-5.57-1.23-8.4-.8-.78.11-1.75.52-1.75 1.51.53.53-.44.69-.73.72-.24.03-.97 0-.73 0m178.94-.72c0-.18-.05-.41.09-.56.15-.16.41-.18.61-.19.4-.02.78-.01 1.18.03.41.05 1.01.21 1.01.72-.55.48-1.29.7-2.02.68-.39-.01-.86-.25-.89-.68m-186.18-3.62c-.28-.57-.14-1.26.18-1.78.47-.75.58-.9 1.25-1.48.17-.15.51-.35.75-.36.24-.01.48.02.7.08.23.06.45.15.65.27.17.11.31.26.45.4.77.82.31 2.12-.35 2.86-.16.19-.53.35-.77.41-.93.24-2.11.33-2.85-.41m178.21-6.52c0-.2-.08-.47.09-.64.16-.17.43-.1.64-.1.24.01.69-.04.71.31.02.14.02.28.02.42 0 .3-.03.39-.13.67-.13.34-.67.6-.96.28-.24-.26-.36-.6-.36-.95m-178.94-2.9c-.73-2.9-2.18-2.9-5.07-.72-1.45.72-2.18.72-2.9.72-2.17-1.45-2.9-4.34-2.17-5.79 1.45-2.17 5.8-2.17 6.52-.72.6.26 1.21.46 1.84.61.88.21 3.24.02 3.24 1.57-.73 1.45-.73 2.18 0 4.35v2.17c-.73 0-1.45-1.45-1.45-2.17m-21.01.72h.72-.72m45.64-.73c0-.73 0-1.45.73-1.45v-1.09 3.26c-.73 0-.73-.72-.73-.72m-17.38-1.45c0-.23.19-.39.34-.52.32-.27.73-.44 1.15-.49.21-.02.52-.06.66.16.13.2-.01.48-.1.65-.33.67-1.08.86-1.77.92-.06 0-.12 0-.19-.01s-.14-.03-.2-.05c-.33-.12-.03-.52.12-.67m-28.2-2.91c.01-.26.13-.53.37-.66.1-.05.23-.06.34-.07.2-.02.47-.07.63.1.16.16.1.42.1.63-.73 0-1.45.72-1.45 0m210.09-1.45c-1.45-.73-1.45-1.45 0-1.45.91.08 1.58.82 2.17 1.45.12.13.25.26.37.4.06.08.12.17.16.27.1.2-.09.43-.3.4-.33-.04-.62-.13-.92-.26-.18-.08-.36-.16-.52-.25-.33-.18-.66-.38-.97-.59m-184.74-.73c.01-.61.82-.99 1.26-.52.12.13.18.35.19.52.08.08.15.17.21.27.16.28.07.67-.18.87-.37.3-.85.36-1.28.18-.31-.12-.55-.46-.49-.81.04-.21.15-.37.29-.51m3.62-2.17c-1.84-.93-2.7-3.04-2.84-5-.07-.99-.09-2.21.68-2.98 2.9-2.17 8.7-1.45 8.7 1.45-.4 0-.35.23-.18.45.73 1.01 1.71 1.83 1.89 3.13.28 1.94-2.72 1.97-3.89 2.2-1.45.73-3.62.73-4.35.73m-7.24-5.07c0-1.45 0-1.45 1.45-1.45.72.36 1.42 1.09 1.37 1.95-.04.67-.82.89-1.37.95-.15.01-.45 0-.59-.08-.5-.29-.63-.91-.86-1.38m194.15 0c-.15-.14-.3-.29-.44-.45-.29-.34.21-.27.44-.27.17 0 .34 0 .51.03.62.09 1.13.41 1.53.89.27.34-.01 1.05-.48 1.01-.68-.05-1.28-.62-1.57-1.2m-206.47-2.89c0-.2-.08-.47.09-.63.17-.17.44-.1.64-.09.47.01 1.25-.12 1.42.48.02.08.03.16.03.24.03.92-1.18 1.9-2 1.21-.33-.28-.17-.87-.17-1.21m-13.76-.73c-.27-.13-.53-.27-.8-.42-.07-.03-.12-.07-.18-.12-.02-.02-.04-.07-.01-.08.21-.08.71-.1.95-.1.81-.01 1.65-.04 2.44.19.16.04.34.16.43.3.17.26.02.66-.28.75-.16.05-.47.04-.63.01-.8-.15-1.16-.26-1.93-.52m20.29-10.14c1.45.72 1.45.72.72 2.17-.61.61-1.65 1.45-2.59 1.14-1.31-.44-1.45-2.36-.25-3.03.64-.36 1.43-.28 2.12-.28m-15.21-9.42c-.89-.88-1.64-2.05-1.55-3.35.18-2.53 3.5-3.36 5.36-2.09 1.51 1.023 1.57 3.58.41 4.862-1.02 1.12-2.96 1.41-4.23.56m36.22-13.04c0-.72.73-.72.73-.72s.73 0 .73.73c0 0-.73.73-1.45.73v-.73m-16.65-15.9c2.18-2.18 6.17-.34 6.82 2.39.29 1.24-.37 2.42-1.02 3.41-.37.254-.78.47-1.2.63-1.97.754-3.71.02-4.83-1.7-.42-.64-.88-1.375-.85-2.186.05-.95.58-1.78 1.09-2.54m172.42 1.45c-.37-.38-.59-.72-.81-1.19-.56-1.18-.15-2.9 1.17-3.37.53-.19 1.16-.38 1.69-.12.56.27.82.91 1.07 1.43.15.31.3.72.34 1.07.05.54-.32 1-.54 1.45-1.45 1.44-2.17 2.17-2.9.72m-144.824-5h.72-.725m1.45-4.35c0-.725.72-.725.72-.725s.72 0 .72.725c0 0-.73.72-1.45.72v-.73m139.81-4.35v2.18-2.17m-129.68-3.62c.15.16.19.21.29.416.03.07-.05.136-.11.136s-.11-.01-.17-.034c-.07-.02-.15-.06-.22-.1-.39-.23-.67-.59-1.05-.82-.13-.08-.26-.147-.39-.22-.03-.02-.07-.035-.1-.056-.01-.004-.02-.022-.02-.025.1-.02.2-.02.3-.02.12-.01.25-.01.38 0 .37.01.93.04 1.04.49.02.08.03.16.03.24m133.3-.73c-.21-.41-.24-.89-.05-1.31.25-.55 1.14-.58 1.49-.14.35.43.61.99.53 1.57-.06.4-.46.69-.86.58-.15-.03-.29-.1-.42-.17-.24-.12-.51-.35-.7-.53m.72-4.34c0-.61-.91-.62-1.27-.64-.78-.05-1.57-.05-2.35-.09-1.83-.1-4.14-.3-5.07-2.17-.73-.73-2.18-1.45-2.18-1.45 0 .72-.72-.73 0-2.9 0-2.17.72-4.35.72-4.35 1.16 0 1.08-1.44 1.83-1.98 1.35-.96 3.12-.92 4.69-.92.53-.18 1.43-.07 1.93.17.85.42 1.68.9 2.47 1.43.65.43 1.58 1.39 1.92 2.11.39.83.13 1.4.28 2.26.16.91.34 1.83.63 2.72.5 1.24.89 2.76.68 4.13-.29 1.85-2.88 3.05-4.3 1.66M282.1 70.22v-.72c.73 0 1.45 0 1.45.72-.01.19-.07.39-.2.53-.272.29-.79.27-1.054-.02-.13-.13-.18-.32-.19-.5m5.79-.73h.72l.72.72-.72.72c-.72 0-.72-.73-.72-1.45m92.73-2.9c-1.45-.73-1.45-1.45 0-2.9.72-1.45 1.45-2.18 2.17-2.18 1.45-.725 1.45-.725 1.45-1.45-.73 0 0-.724 0 0 .72 0 1.44 1.45 2.17 2.9 1.45 2.17 1.45 2.896 0 3.62-1.45 2.17-4.35 2.17-5.8 0m-60.85 0c-.278-.42-.55-.84-.81-1.26-.07-.12-.14-.253-.2-.39-.226-.55.82-.5 1.02-.526.45-.08.66-.12 1-.46.36-.36.354-.51.455-.99.01-.05.01-.29.12-.3.5-.04.62.71.62 1.02.35.705.79 1.55.41 2.34-.09.205-.27.37-.4.55-.33.445-.92 1.39-1.59.97-.33-.22-.42-.63-.59-.96m-31.15-1.45c.08 0 .15.01.22.04.64.203.56 1.03.43 1.533-.07.294-.32.595-.65.595v-2.18m2.17 0V63c.72-2.173.72-2.173 1.45-.724.72 2.173-.73 5.07-1.45 2.897m-7.97-1.447h.72l.72.724-.73.724c-.73 0-.73-.723-.73-1.447m24.63-2.174c0-.725 0-.725.73-.725v.724l-.73.724v-.725m-10.87-2.17c-.73-.72-1.45-1.45-.73-1.45 0 0 .73 0 1.45.73 0 .73.72 1.45 0 1.45 0 0-.72 0-.72-.72m11.59-2.9h1.45c2.17.73 3.62 2.18 2.9 2.9-.08.16-.16.32-.27.47-.07.12-.16.24-.26.34-.21.22-.69.34-.8-.06-.16-.57-.1-1.29-.56-1.75-.34-.34-.53-.37-1-.45-.41-.07-1.02 0-1.26-.45-.09-.14-.13-.3-.16-.46-.04-.18-.02-.35-.02-.53m28.25 2.17c.08-.32.17-.63.27-.95.12-.4.24-.87.56-1.17.17-.16.43-.05.49.16.04.2.09.4.11.6.03.34-.02.98-.07 1.31-.09.57-.18 1.19-.53 1.66-.2.28-.46.57-.83.57v-2.18m13.04-1.45c0-.72 0-.72.73-.72 0 0 .73 0 .73.72l-.73.72c-.73 0-.73-.73-.73-.73m-31.15-2.17s0-.72-.72-1.45c-.1-.19-.58-.68-.4-.98.11-.19.57.15.61.17.9.54 1.85 1.05 2.57 1.84.18.2.33.47.3.76-.04.38-.71.34-.92.36-.55.07-.62.13-1.17.02-.12-.02-.24-.13-.25-.26-.02-.14 0-.29 0-.44m5.07-1.45c.72 0 .72 0 .72.73l-.42 1.24c-.07.24-.04.25-.14.47-.04.09-.14-.01-.15-.06-.01-.03 0-.08 0-.12l-.01-.81v-1.45m28.98 0c.72-.72 2.9.73 2.17 1.45 0 .08-.01.16-.03.24-.16.54-.87.22-1.15 0-.51-.41-.96-1-.99-1.69m17.39 1.45v-.73c.72 0 1.45 0 1.45.73v.73c-.73 0-1.45-.72-1.45-.72m-24.6-2.18c.31.31.34.78.04 1.13-.09.11-.22.19-.35.26-.23.15-.67.18-.83-.08-.39-.58-.35-1.32-.32-1.98.01-.22.05-.58.18-.79.18-.32.63-.34.87-.06.18.23.29.44.33.73.03.26.06.53.06.79m-36.22-4.35v-1.45c.73-.72 1.45 0 .73 1.45 0 .73 0 .73-.73 0m43.47 0c0-.24-.05-.68.3-.71h.42c.19-.01.47-.08.63.09.16.17.09.44.09.64 0 0-.73.73-1.45.73v-.72m13.04-2.9c-.31-.16-.43-.22-.71-.42-.04-.03-.12-.1-.12-.16 0-.07.07-.11.12-.12.26-.03.51-.05.76-.06.39 0 .78.02 1.13.21.44.25.26.88.08 1.22-.16.31-.3.52-.54.77 0 0-.72-.72-.72-1.45m-14.49-4.34h.73-.73" fill="#81E8B3" fill-rule="evenodd"/></svg>
