<?xml version="1.0" encoding="UTF-8" standalone="no"?>
<svg width="533px" height="502px" viewBox="0 0 533 502" version="1.1" xmlns="http://www.w3.org/2000/svg" xmlns:xlink="http://www.w3.org/1999/xlink">
    <!-- Generator: Sketch 3.8.3 (29802) - http://www.bohemiancoding.com/sketch -->
    <title>espiral</title>
    <desc>Created with Sketch.</desc>
    <defs></defs>
    <g id="Page-1" stroke="none" stroke-width="1" fill="none" fill-rule="evenodd">
        <g id="espiral" transform="translate(1.000000, 1.000000)" stroke="#81E8B3">
            <path d="M257.80854,295.363074 C244.551661,295.363074 227.111014,290.841424 227.111014,270.921323 C227.111014,251.001222 236.196548,236.802747 257.80854,236.802747 C295.497232,236.802747 297.693462,254.673199 302.374114,270.921323 C307.054767,287.169448 295.020223,327.317718 257.80854,327.317718 C220.601827,327.317718 191.464517,303.72564 191.464517,270.921323 C191.464517,238.117006 213.046697,194.411043 257.80854,194.411043 C302.572868,194.411043 344.39067,217.044133 344.39067,270.921323 C344.39067,324.796029 294.1308,362.12448 257.80854,362.12448 C221.163306,362.12448 151.77835,348.964493 151.77835,270.921323 C151.77835,192.880638 197.548869,148.141155 257.80854,148.141155 C318.070697,148.141155 398.034325,169.845071 398.034325,270.921323 C398.034325,371.997575 344.097509,427.454858 257.80854,427.454858 C171.524541,427.454858 82.0530275,362.126964 82.0530275,270.921323 C82.0530275,179.718167 169.395391,90.7808044 257.80854,90.7808044 C362.12448,90.7808044 468.045356,138.449422 468.045356,270.921323 C468.045356,403.395709 387.013426,500 257.80854,500 C128.60614,500 -5.68434189e-14,428.436205 -5.68434189e-14,270.921323 C-5.68434189e-14,119.364087 128.519185,0 257.80854,0 C393.204607,0 531.504964,70.1700339 531.504964,271.075358 C531.504964,471.975712 297.802777,347.056456 257.80854,271.075358 C257.80854,255.356415 275.02559,261.8979 275.02559,272.556073 C275.02559,283.214247 276.449164,295.363074 257.80854,295.363074 Z" id="Shape"></path>
        </g>
    </g>
</svg>