<?xml version="1.0" encoding="UTF-8" standalone="no"?>
<svg width="798px" height="666px" viewBox="0 0 798 666" version="1.1" xmlns="http://www.w3.org/2000/svg" xmlns:xlink="http://www.w3.org/1999/xlink">
    <!-- Generator: Sketch 40.1 (33804) - http://www.bohemiancoding.com/sketch -->
    <title>Group 3</title>
    <desc>Created with Sketch.</desc>
    <defs></defs>
    <g id="Layout-(ipad)" stroke="none" stroke-width="1" fill="none" fill-rule="evenodd">
        <g id="Home" transform="translate(-482.000000, -693.000000)">
            <g id="wrap">
                <g id="section-todh" transform="translate(289.000000, 694.000000)">
                    <g id="Group-3" transform="translate(194.000000, 0.000000)">
                        <path d="M600.310162,17.2071984 C600.310162,18.2422179 600.310162,19.2772374 599.89644,20.1828794" id="Shape" stroke="#81E8B3"></path>
                        <path d="M587.355502,12.8083658 C588.77767,12.4202335 590.587702,12.9377432 591.880583,12.1614786" id="Shape" stroke="#81E8B3"></path>
                        <path d="M591.880583,12.0321012 C591.751294,9.70330739 589.941262,8.28015564 589.165534,6.21011673 C589.553398,4.01070039 590.07055,1.68190661 591.622006,0.129377432 C592.139159,0 592.785599,0 593.173463,0 C596.405663,1.68190661 599.767152,4.26945525 603.387217,3.88132296 C606.490129,7.76264591 605.972977,16.0428016 600.284304,17.2071984" id="Shape" stroke="#81E8B3"></path>
                        <path d="M591.880583,12.0321012 C595.888511,11.7733463 596.793528,16.3015564 600.413592,17.2071984" id="Shape" stroke="#81E8B3"></path>
                        <path d="M599.89644,20.1828794 C597.95712,20.7003891 595.888511,19.4066148 594.078479,20.5710117 C592.914887,23.9348249 595.888511,28.5924125 599.120712,29.6274319 C600.672168,29.1099222 602.611489,28.7217899 603.645793,27.1692607 C603.257929,24.5817121 601.835761,22.1235409 599.89644,20.1828794" id="Shape" stroke="#81E8B3"></path>
                        <path d="M254.606954,157.19358 C260.037051,165.344358 273.483006,157.452335 268.570061,149.042802 C263.657116,149.689689 257.322003,150.077821 253.57265,153.700389 C253.184786,155.123541 253.443362,156.417315 254.606954,157.19358" id="Shape" stroke="#81E8B3"></path>
                        <path d="M226.641909,29.368677 C231.425566,27.6867704 238.665696,29.6274319 240.475728,34.5437743 C239.7,35.5787938 238.40712,36.3550584 237.372816,37.0019455 C233.106311,36.6138132 228.839806,35.3200389 225.866181,32.4737354 C225.349029,31.3093385 226.254045,30.4036965 226.641909,29.368677" id="Shape" stroke="#81E8B3"></path>
                        <path d="M226.641909,29.368677 C225.736893,26.3929961 224.314725,23.1585603 225.090453,20.0535019 C230.649838,20.1828794 240.863592,27.4280156 242.932201,18.5009728 C237.631392,17.8540856 228.322654,16.9484436 229.098382,9.44455253 C232.072006,4.39883268 239.441424,5.692607 242.544337,9.57392996 C242.673625,11.1264591 240.475728,11.5145914 240.863592,13.1964981" id="Shape" stroke="#81E8B3"></path>
                        <path d="M195.354207,21.3472763 C194.837055,17.5953307 196.129935,13.8433852 197.552104,10.479572" id="Shape" stroke="#81E8B3"></path>
                        <path d="M641.010032,17.4659533 C645.276537,17.3365759 649.413754,18.3715953 653.421683,19.4066148" id="Shape" stroke="#81E8B3"></path>
                        <path d="M653.421683,19.2772374 C654.068123,15.7840467 657.817476,13.1964981 661.308252,14.3608949 C663.118285,16.5603113 662.471845,20.0535019 661.049676,22.3822957" id="Shape" stroke="#81E8B3"></path>
                        <path d="M661.049676,22.3822957 C661.178964,25.7461089 661.178964,29.7568093 659.239644,32.6031128" id="Shape" stroke="#81E8B3"></path>
                        <path d="M659.239644,32.6031128 C659.368932,33.25 659.368932,33.7675097 659.368932,34.2850195 C656.136731,35.7081712 651.870227,35.7081712 648.250162,35.5787938" id="Shape" stroke="#81E8B3"></path>
                        <path d="M653.421683,19.2772374 C653.525113,19.6653696 653.731974,20.1828794 653.835405,20.5710117" id="Shape" stroke="#81E8B3"></path>
                        <path d="M661.049676,22.3822957 C658.722492,21.7354086 656.266019,21.3472763 653.938835,20.7003891" id="Shape" stroke="#81E8B3"></path>
                        <path d="M653.938835,20.7003891 C652.775243,25.2285992 655.619579,30.0155642 659.239644,32.6031128" id="Shape" stroke="#81E8B3"></path>
                        <path d="M486.640129,33.1206226 C490.906634,32.6031128 495.173139,34.2850195 498.793204,35.7081712 C500.473948,32.0856031 501.63754,28.0749027 502.671845,24.0642023 C500.215372,23.0291829 497.7589,22.1235409 495.431715,20.959144" id="Shape" stroke="#81E8B3"></path>
                        <path d="M495.431715,20.959144 C496.466019,18.3715953 496.853883,15.266537 495.561003,12.8083658 C494.655987,12.0321012 493.492395,11.5145914 492.328803,11.7733463 C487.28657,13.8433852 490.389482,23.1585603 495.431715,20.959144" id="Shape" stroke="#81E8B3"></path>
                        <path d="M183.847573,30.7918288 C183.718285,32.8618677 183.201133,34.9319066 182.942557,36.8725681 C184.364725,38.6838521 186.821197,39.3307393 188.889806,39.9776265" id="Shape" stroke="#81E8B3"></path>
                        <path d="M183.847573,30.7918288 C186.433333,30.0155642 190.053398,30.0155642 191.346278,27.2986381 C190.441262,22.5116732 185.916181,22.6410506 182.03754,22.5116732 C180.227508,24.3229572 178.1589,26.3929961 177.641748,29.1099222 C179.063916,31.1799611 182.03754,29.4980545 183.847573,30.7918288" id="Shape" stroke="#81E8B3"></path>
                        <path d="M398.465696,28.0749027 C399.887864,28.9805447 401.568608,29.8861868 403.249353,28.9805447 C406.093689,25.2285992 406.740129,19.7947471 406.869417,15.266537" id="Shape" stroke="#81E8B3"></path>
                        <path d="M392.259871,26.1342412 C392.389159,29.4980545 396.267799,29.2392996 398.465696,28.2042802" id="Shape" stroke="#81E8B3"></path>
                        <path d="M398.465696,28.0749027 C400.534304,23.67607 398.982848,18.6303502 398.982848,14.1021401" id="Shape" stroke="#81E8B3"></path>
                        <path d="M392.259871,26.1342412 C394.587055,23.1585603 394.974919,15.7840467 390.061974,15.7840467 C387.217638,18.3715953 388.769094,24.5817121 392.259871,26.1342412" id="Shape" stroke="#81E8B3"></path>
                        <path d="M135.752427,266.51751 C138.596764,267.164397 138.85534,263.929961 140.923948,262.894942" id="Shape" stroke="#81E8B3"></path>
                        <path d="M140.923948,262.765564 C141.182524,261.213035 141.699676,259.660506 143.251133,259.013619 C146.612621,259.919261 146.871197,267.035019 143.509709,268.328794 C140.665372,267.552529 142.346117,264.318093 140.923948,262.765564" id="Shape" stroke="#81E8B3"></path>
                        <path d="M135.623139,266.129377 C135.623139,268.587549 134.459547,270.786965 135.235275,273.245136 C128.900162,276.608949 123.340777,269.234436 118.944984,265.48249" id="Shape" stroke="#81E8B3"></path>
                        <path d="M119.094917,265.109327 C118.965629,265.109327 118.965629,265.109327 118.836341,264.97995 C116.638445,262.909911 117.672749,258.122946 120.517085,256.570417 C121.939254,256.182284 123.49071,256.699794 124.912878,256.699794" id="Shape" stroke="#81E8B3"></path>
                        <path id="Shape" stroke="#81E8B3"></path>
                        <path d="M135.105987,265.828351 C136.528155,259.747611 129.546602,248.491775 124.116505,256.77193" id="Shape" stroke="#81E8B3"></path>
                        <path d="M125.409385,261.9893 C124.892233,260.566148 124.504369,259.142996 124.116505,257.719844" id="Shape" stroke="#81E8B3"></path>
                        <path d="M135.105987,266.388132 C131.61521,265.48249 128.770874,263.024319 125.409385,261.601167" id="Shape" stroke="#81E8B3"></path>
                        <path d="M126.055825,261.601167 C124.633657,264.447471 121.14288,263.671206 118.944984,265.611868" id="Shape" stroke="#81E8B3"></path>
                        <path d="M764.609385,31.1799611 C764.480097,26.651751 761.118608,22.8998054 759.825728,18.7597276" id="Shape" stroke="#81E8B3"></path>
                        <path d="M787.751942,45.7996109 C789.432686,48.9046693 791.630583,51.8803502 792.535599,55.3735409 C789.561974,60.1605058 783.097573,60.2898833 778.831068,63.6536965" id="Shape" stroke="#81E8B3"></path>
                        <path d="M787.751942,45.7996109 C786.071197,47.6108949 783.614725,47.9990272 781.28754,47.7402724" id="Shape" stroke="#81E8B3"></path>
                        <path d="M781.416828,47.8696498 C780.382524,49.2928016 778.831068,49.8103113 777.150324,49.8103113" id="Shape" stroke="#81E8B3"></path>
                        <path d="M777.150324,49.8103113 C774.823139,54.3385214 768.22945,57.5729572 768.617314,63.7830739" id="Shape" stroke="#81E8B3"></path>
                        <path d="M777.279612,27.8161479 C773.659547,26.0048638 770.039482,23.5466926 766.807282,20.959144" id="Shape" stroke="#81E8B3"></path>
                        <path d="M777.279612,27.8161479 C779.089644,26.651751 777.796764,24.0642023 779.218932,22.8998054 C782.709709,25.7461089 787.364078,28.7217899 788.786246,33.25" id="Shape" stroke="#81E8B3"></path>
                        <path d="M788.656958,33.25 C793.569903,32.7324903 799,36.0963035 798.870712,41.4007782 C795.638511,43.9883268 790.854854,42.82393 787.751942,45.7996109" id="Shape" stroke="#81E8B3"></path>
                        <path d="M777.279612,27.8161479 C780.253236,29.1099222 779.865372,31.6974708 779.865372,34.4143969" id="Shape" stroke="#81E8B3"></path>
                        <path d="M779.865372,34.4143969 C774.435275,32.6031128 764.738673,37.7782101 771.978803,43.0826848" id="Shape" stroke="#81E8B3"></path>
                        <path d="M771.849515,43.0826848 C775.340291,41.4007782 780.770388,43.6001946 781.416828,47.7402724" id="Shape" stroke="#81E8B3"></path>
                        <path d="M788.656958,33.25 C785.812621,34.4143969 782.709709,34.4143969 779.736084,34.4143969" id="Shape" stroke="#81E8B3"></path>
                        <path d="M771.849515,43.0826848 C772.366667,46.1877432 775.340291,47.6108949 777.150324,49.8103113" id="Shape" stroke="#81E8B3"></path>
                        <path d="M241.436153,176.768308 C240.401849,176.250798 239.626121,175.862666 239.238257,175.215779 C238.979681,173.275117 239.626121,170.946323 241.177577,169.781927 C244.539066,169.264417 248.159131,174.051382 245.831946,177.027063 C245.314794,177.285818 244.797642,177.415195 244.409778,177.544573 C243.375474,177.544573 242.34117,177.027063 241.436153,176.768308" id="Shape" stroke="#81E8B3"></path>
                        <path d="M435.959223,36.2256809 C437.898544,35.4494163 439.837864,36.4844358 441.38932,37.5194553 C442.035761,38.6838521 442.165049,40.1070039 441.777184,41.4007782 C440.355016,43.4708171 437.252104,43.3414397 435.054207,42.6945525" id="Shape" stroke="#81E8B3"></path>
                        <path d="M431.434142,42.3064202 C428.97767,46.5758755 423.676861,45.540856 420.186084,43.4708171" id="Shape" stroke="#81E8B3"></path>
                        <path d="M431.434142,42.3064202 C431.434142,39.848249 428.072654,38.8132296 428.460518,36.3550584 C430.658414,35.1906615 433.890615,34.8025292 435.959223,36.2256809" id="Shape" stroke="#81E8B3"></path>
                        <path d="M431.434142,42.3064202 C432.597735,42.6064202 433.761327,42.6064202 435.054207,42.6064202" id="Shape" stroke="#81E8B3"></path>
                        <path d="M435.959223,36.2256809 C435.700647,38.4250973 435.442071,40.6245136 435.054207,42.6945525" id="Shape" stroke="#81E8B3"></path>
                        <path d="M261.290761,174.735247 C259.739305,177.452173 259.610017,181.592251 258.705001,185.085442 C257.799985,184.567932 258.058561,183.015403 256.11924,183.532913 C255.602088,178.487193 256.507104,170.724547 261.290761,174.735247 L261.290761,174.735247 Z" id="Shape" stroke="#81E8B3"></path>
                        <path d="M278.208988,173.786614 C279.501869,176.762295 276.916108,179.091088 274.588924,179.99673 C273.813195,176.891672 273.296043,172.751594 278.208988,173.786614 L278.208988,173.786614 Z" id="Shape" stroke="#81E8B3"></path>
                        <path d="M380.536084,51.233463 C380.436084,50.7159533 380.336084,50.0690661 380.236084,49.5515564" id="Shape" stroke="#81E8B3"></path>
                        <path d="M380.365372,49.5515564 C374.935275,49.6515564 369.505178,50.0515564 364.075081,49.7515564" id="Shape" stroke="#81E8B3"></path>
                        <path d="M388.510518,47.6326272 C392.259871,46.9326272 396.526375,47.4326272 400.405016,47.5326272" id="Shape" stroke="#81E8B3"></path>
                        <path d="M363.428641,59.6429961 C368.08301,59.3842412 372.866667,61.0661479 377.391748,59.3842412" id="Shape" stroke="#81E8B3"></path>
                        <path d="M377.391748,59.3842412 C376.228155,56.1498054 377.779612,53.0447471 380.623948,51.233463" id="Shape" stroke="#81E8B3"></path>
                        <path d="M385.666181,55.114786 C387.864078,53.3035019 388.510518,50.327821 388.510518,47.6108949" id="Shape" stroke="#81E8B3"></path>
                        <path d="M388.510518,47.7402724 C385.924757,47.3521401 381.270388,46.1877432 380.236084,49.6809339" id="Shape" stroke="#81E8B3"></path>
                        <path d="M377.391748,59.3842412 C379.072492,60.6780156 379.977508,62.7480545 381.658252,64.1712062 C384.890453,63.1361868 387.08835,58.3492218 385.666181,55.114786" id="Shape" stroke="#81E8B3"></path>
                        <path d="M385.666181,55.114786 C383.080421,55.3735409 382.563269,52.3978599 380.623948,51.233463" id="Shape" stroke="#81E8B3"></path>
                        <path d="M652.516667,65.3356031 C653.292395,65.8531128 654.455987,66.3706226 654.714563,67.2762646 C654.585275,68.1819066 654.714563,69.0875486 654.197411,69.8638132 C650.706634,72.4513619 644.500809,74.1332685 642.432201,68.9581712 C643.983657,64.8180934 649.413754,66.6293774 652.516667,65.3356031" id="Shape" stroke="#81E8B3"></path>
                        <path d="M652.516667,65.3356031 C648.638026,57.1848249 641.785761,50.8453307 634.674919,45.2821012" id="Shape" stroke="#81E8B3"></path>
                        <path d="M574.168123,45.9289883 C578.822492,47.0933852 584.252589,45.1527237 588.260518,48.2577821" id="Shape" stroke="#81E8B3"></path>
                        <path d="M588.260518,48.2577821 C591.492718,48.1284047 594.854207,48.516537 598.086408,48.1284047 C598.60356,48.516537 598.862136,49.0340467 599.379288,49.422179" id="Shape" stroke="#81E8B3"></path>
                        <path d="M588.260518,48.2577821 C586.062621,51.233463 581.796117,51.4922179 578.563916,52.9153696" id="Shape" stroke="#81E8B3"></path>
                        <path d="M759.437864,53.5622568 C759.567152,49.6809339 763.704369,47.7402724 767.065858,47.2227626" id="Shape" stroke="#81E8B3"></path>
                        <path d="M246.973555,183.974708 C241.155593,186.044747 246.068538,196.653696 251.627923,193.160506 C254.860124,189.92607 250.852195,184.36284 246.973555,183.974708" id="Shape" stroke="#81E8B3"></path>
                        <path d="M185.916181,50.4571984 C183.071845,54.7266537 184.364725,62.4892996 190.441262,63.2655642 C194.061327,60.807393 196.000647,56.5379377 197.681392,52.5272374 C195.095631,48.9046693 189.536246,49.5515564 185.916181,50.4571984" id="Shape" stroke="#81E8B3"></path>
                        <path d="M434.019903,52.6566148 C434.278479,54.9854086 433.761327,56.5379377 431.434142,56.2791829 C431.304854,54.7266537 430.658414,54.9854086 430.399838,52.6566148 C431.822006,51.6215953 432.597735,51.6215953 434.019903,52.6566148 L434.019903,52.6566148 Z" id="Shape" stroke="#81E8B3"></path>
                        <path d="M593.173463,52.1391051 C595.888511,52.7859922 595.759223,56.1498054 595.759223,59.3842412 C592.268447,60.2898833 587.226214,61.713035 584.381877,58.3492218 C584.899029,53.8210117 592.268447,56.2791829 593.173463,52.1391051 L593.173463,52.1391051 Z" id="Shape" stroke="#81E8B3"></path>
                        <path d="M270.561339,192.51027 C269.13917,193.545289 266.036258,192.769024 263.838361,193.027779 C263.191921,191.604628 266.294834,191.734005 263.838361,191.47525 C265.131242,189.534589 271.466355,186.94704 270.561339,192.51027 L270.561339,192.51027 Z" id="Shape" stroke="#81E8B3"></path>
                        <path d="M573.521683,89.6585603 C574.297411,79.6964981 570.677346,67.2762646 577.529612,59.1254864 C581.53754,60.5486381 581.278964,65.7237354 582.830421,68.9581712" id="Shape" stroke="#81E8B3"></path>
                        <path d="M241.510032,66.7587549 C241.897896,67.9231518 242.156472,69.2169261 242.027184,70.5107004 C240.734304,72.9688716 237.76068,72.3219844 235.950647,73.6157588" id="Shape" stroke="#81E8B3"></path>
                        <path d="M241.510032,66.7587549 C242.027184,65.4649805 240.475728,63.9124514 239.829288,62.8774319 C234.916343,63.2655642 227.805502,61.0661479 224.702589,65.8531128 C228.322654,72.8394942 236.209223,68.6994163 241.510032,66.7587549" id="Shape" stroke="#81E8B3"></path>
                        <path d="M241.768608,198.206226 C247.327994,199.370623 254.050971,199.241245 258.317476,203.251946 C257.929612,204.675097 257.153883,205.839494 256.636731,207.133268" id="Shape" stroke="#81E8B3"></path>
                        <path d="M256.636731,207.262646 C257.024595,210.367704 254.050971,212.437743 252.11165,214.378405" id="Shape" stroke="#81E8B3"></path>
                        <path d="M252.758091,213.731518 C249.784466,216.448444 245.388673,215.930934 241.768608,217.61284" id="Shape" stroke="#81E8B3"></path>
                        <path d="M257.671036,207.230391 C253.792395,206.324749 248.620874,204.513465 245.647249,208.136033 C246.681553,211.758601 250.948058,211.887978 253.145955,214.34615" id="Shape" stroke="#81E8B3"></path>
                        <path d="M585.933333,61.9717899 C589.682686,64.9474708 594.466343,66.8881323 596.276375,71.8044747 C594.078479,72.5807393 594.724919,70.8988327 592.139159,71.8044747 C591.36343,67.5350195 584.123301,67.2762646 585.933333,61.9717899 L585.933333,61.9717899 Z" id="Shape" stroke="#81E8B3"></path>
                        <path d="M201.68932,210.222879 C208.024434,209.964124 214.359547,209.187859 220.565372,211.128521" id="Shape" stroke="#81E8B3"></path>
                        <path d="M659.310356,89.5291829 C659.610356,90.8229572 659.210356,91.9873541 659.110356,93.2811284" id="Shape" stroke="#81E8B3"></path>
                        <path d="M658.981068,93.2811284 C660.7911,96.2568093 660.920388,99.8793774 660.920388,103.243191 C654.585275,105.571984 647.603722,104.019455 640.880744,103.631323" id="Shape" stroke="#81E8B3"></path>
                        <path d="M659.368932,89.5291829 C660.273948,87.8472763 661.308252,85.7772374 660.14466,83.9659533 C652.645955,81.5077821 643.854369,81.1196498 637.26068,75.4270428" id="Shape" stroke="#81E8B3"></path>
                        <path d="M659.368932,89.5291829 C655.878155,88.4941634 651.999515,89.9173152 649.543042,92.5048638 C649.155178,93.2811284 649.284466,94.3161479 649.413754,95.2217899 C649.543042,95.4805447 649.930906,95.7392996 650.189482,95.9980545 C653.550971,96.7743191 656.395307,94.963035 659.110356,93.2811284" id="Shape" stroke="#81E8B3"></path>
                        <path d="M181.3911,91.0817121 C185.786893,88.4941634 189.27767,84.7422179 189.92411,79.4377432 C193.156311,77.2383268 197.164239,78.9202335 200.39644,79.9552529 C199.491424,87.2003891 193.932039,92.8929961 188.760518,97.8093385" id="Shape" stroke="#81E8B3"></path>
                        <path d="M210.480906,224.728599 C211.644498,224.987354 212.678803,226.410506 213.842395,226.022374 C215.781715,224.728599 218.496764,223.434825 217.591748,220.588521 C217.203883,219.682879 216.298867,218.906615 215.264563,218.906615 C213.583819,219.941634 211.256634,220.329767 209.705178,221.623541 C209.446602,222.270428 209.446602,222.917315 209.446602,223.434825 C209.57589,223.822957 210.093042,224.211089 210.480906,224.728599" id="Shape" stroke="#81E8B3"></path>
                        <path d="M235.821359,101.431907 C240.605016,101.949416 242.285761,95.7392996 245.259385,93.151751 C244.612945,91.0817121 244.612945,88.8822957 243.707929,86.9416342 C237.889968,87.7178988 232.459871,96.3861868 235.821359,101.431907" id="Shape" stroke="#81E8B3"></path>
                        <path d="M595.759223,88.8822957 C595.629935,91.2110895 594.207767,90.4348249 593.173463,90.9523346 C593.819903,92.6342412 595.242071,90.8229572 595.242071,93.5398833 C592.527023,94.5749027 586.579773,94.1867704 582.830421,95.6099222 C582.571845,94.5749027 581.408252,94.7042802 581.796117,93.0223735 C584.769741,91.8579767 587.614078,90.5642023 592.139159,90.9523346 C589.294822,89.270428 585.545469,91.0817121 582.830421,90.4348249 C583.218285,84.6128405 592.527023,87.459144 595.759223,88.8822957 L595.759223,88.8822957 Z" id="Shape" stroke="#81E8B3"></path>
                        <path d="M596.793528,86.8122568 C602.094337,87.3297665 600.930744,92.7636187 601.965049,96.6449416 C600.025728,97.938716 596.664239,97.0330739 595.759223,95.6099222 C595.629935,92.2461089 596.017799,89.270428 596.793528,86.8122568 L596.793528,86.8122568 Z" id="Shape" stroke="#81E8B3"></path>
                        <path d="M202.982201,106.995136 C200.008576,109.32393 194.319903,107.124514 191.604854,105.960117 C188.501942,96.7743191 203.757929,100.655642 202.982201,106.995136 L202.982201,106.995136 Z" id="Shape" stroke="#81E8B3"></path>
                        <path d="M425.745469,108.547665 C431.175566,106.218872 432.985599,111.652724 431.434142,115.922179" id="Shape" stroke="#81E8B3"></path>
                        <path d="M419.022492,120.967899 C420.44466,126.919261 427.943366,126.401751 430.011974,131.835603" id="Shape" stroke="#81E8B3"></path>
                        <path d="M419.022492,120.967899 C417.21246,120.321012 415.014563,120.967899 413.592395,119.803502 C414.238835,115.534047 412.558091,111.393969 413.463107,107.253891 C417.341748,106.089494 422.254693,106.089494 425.616181,108.547665" id="Shape" stroke="#81E8B3"></path>
                        <path d="M419.022492,120.967899 C420.056796,116.310311 424.194013,113.075875 425.745469,108.547665" id="Shape" stroke="#81E8B3"></path>
                        <path d="M462.333981,132.741245 C464.531877,135.975681 468.539806,139.468872 468.151942,143.608949 C465.049029,146.455253 461.0411,148.266537 457.033172,149.560311" id="Shape" stroke="#81E8B3"></path>
                        <path d="M462.333981,132.741245 C458.326052,139.210117 452.120227,135.328794 446.690129,133.51751" id="Shape" stroke="#81E8B3"></path>
                        <path d="M462.333981,132.741245 C462.721845,128.9893 466.212621,126.013619 466.341909,122.002918 C464.661165,119.156615 460.653236,119.027237 457.679612,118.509728 C455.998867,120.321012 456.645307,123.167315 456.645307,125.366732" id="Shape" stroke="#81E8B3"></path>
                        <path d="M599.637864,148.395914 C595.112783,143.220817 593.690615,136.234436 589.42411,130.929961" id="Shape" stroke="#81E8B3"></path>
                        <path d="M587.872654,141.021401 C590.587702,143.738327 593.044175,146.972763 594.207767,150.724708" id="Shape" stroke="#81E8B3"></path>
                        <path d="M587.872654,141.021401 C586.83835,136.881323 576.495307,132.870623 575.848867,138.692607 C576.753883,139.986381 578.176052,141.021401 579.210356,142.185798 C582.054693,142.703307 585.157605,141.927043 587.872654,141.021401" id="Shape" stroke="#81E8B3"></path>
                        <path d="M668.936246,150.724708 C676.434951,152.535992 672.685599,168.190661 667.126214,171.425097 C663.118285,169.872568 664.152589,164.050584 660.14466,162.2393 C646.052265,174.142023 647.73301,156.805447 644.630097,147.61965" id="Shape" stroke="#81E8B3"></path>
                        <path d="M571.582362,166.120623 C573.263107,169.613813 575.202427,172.848249 577.141748,176.34144" id="Shape" stroke="#81E8B3"></path>
                        <path d="M577.01246,176.34144 C579.210356,176.729572 581.408252,177.376459 582.959709,179.058366" id="Shape" stroke="#81E8B3"></path>
                        <path d="M583.088997,179.058366 C587.226214,174.400778 590.199838,167.414397 593.173463,161.592412" id="Shape" stroke="#81E8B3"></path>
                        <path d="M577.01246,176.34144 C576.366019,177.117704 575.590291,178.023346 575.202427,179.058366 C575.461003,180.999027 577.529612,182.292802 579.339644,182.422179 C581.020388,181.904669 582.442557,180.740272 582.959709,179.058366" id="Shape" stroke="#81E8B3"></path>
                        <path d="M397.431392,169.613813 C404.930097,167.026265 411.653074,161.20428 419.79822,161.592412" id="Shape" stroke="#81E8B3"></path>
                        <path d="M415.661003,174.788911 C415.143851,179.187743 420.44466,179.317121 421.866828,182.422179 C416.178155,186.821012 408.550162,179.058366 408.67945,173.107004 C410.360194,171.425097 412.816667,172.589494 414.755987,173.236381" id="Shape" stroke="#81E8B3"></path>
                        <path d="M415.661003,174.788911 C420.961812,175.435798 428.072654,172.977626 426.650485,166.25 C422.642557,167.931907 416.566019,168.190661 414.755987,173.236381" id="Shape" stroke="#81E8B3"></path>
                        <path d="M415.661003,174.788911 C415.402427,174.530156 415.014563,173.883268 414.755987,173.236381" id="Shape" stroke="#81E8B3"></path>
                        <path d="M707.98123,181.128405 C708.239806,176.212062 711.472006,171.81323 709.92055,166.638132" id="Shape" stroke="#81E8B3"></path>
                        <path d="M709.403398,189.92607 C714.187055,193.93677 721.685761,192.254864 726.081553,196.265564 C726.081553,197.171206 725.176537,197.688716 724.659385,198.335603" id="Shape" stroke="#81E8B3"></path>
                        <path d="M693.113107,183.845331 C698.026052,186.950389 703.973301,187.856031 709.403398,189.92607" id="Shape" stroke="#81E8B3"></path>
                        <path d="M709.403398,189.92607 C714.057767,184.88035 716.902104,178.670233 720.39288,172.848249" id="Shape" stroke="#81E8B3"></path>
                        <path d="M653.938835,193.419261 C657.041748,193.289883 660.273948,195.359922 662.342557,197.300584 C661.825405,198.076848 661.43754,198.723735 661.049676,199.241245 C660.920388,199.370623 660.7911,199.5 660.661812,199.5" id="Shape" stroke="#81E8B3"></path>
                        <path d="M634.028479,207.780156 C638.294984,203.381323 645.017961,201.699416 647.862298,195.748054" id="Shape" stroke="#81E8B3"></path>
                        <path d="M647.73301,195.748054 C643.725081,194.713035 637.519256,190.184825 639.84644,185.656615 C644.630097,187.467899 650.448058,189.40856 653.809547,193.419261" id="Shape" stroke="#81E8B3"></path>
                        <path d="M647.73301,195.748054 C649.801618,195.101167 652.516667,195.4893 653.809547,193.419261" id="Shape" stroke="#81E8B3"></path>
                        <path d="M634.028479,207.780156 C632.864887,206.357004 631.959871,204.416342 630.149838,203.769455 C627.305502,203.898833 623.685437,206.615759 623.685437,209.462062 C626.917638,212.437743 631.054854,210.108949 634.028479,207.780156" id="Shape" stroke="#81E8B3"></path>
                        <path d="M694.276699,202.734436 C697.638188,203.251946 700.870388,204.157588 704.231877,204.286965" id="Shape" stroke="#81E8B3"></path>
                        <path d="M704.231877,204.157588 C709.27411,201.052529 715.609223,200.01751 721.297896,201.052529 C721.815049,202.087549 722.202913,203.251946 722.332201,204.416342 C717.80712,205.06323 714.962783,208.168288 711.730583,210.885214 C708.239806,211.532101 704.231877,207.650778 704.231877,204.157588" id="Shape" stroke="#81E8B3"></path>
                        <path d="M655.231715,268.328794 C656.91246,270.269455 658.334628,272.727626 659.49822,274.927043 C658.85178,276.09144 657.817476,277.126459 656.653883,277.643969" id="Shape" stroke="#81E8B3"></path>
                        <path d="M656.653883,277.773346 C656.395307,281.266537 653.163107,283.724708 650.31877,285.406615 C650.31877,286.700389 650.577346,288.123541 650.448058,289.546693" id="Shape" stroke="#81E8B3"></path>
                        <path d="M650.577346,289.44303 C654.455987,289.34303 658.334628,288.84303 662.213269,289.24303" id="Shape" stroke="#81E8B3"></path>
                        <path d="M650.577346,289.546693 C647.08657,290.322957 643.595793,291.228599 639.975728,290.840467" id="Shape" stroke="#81E8B3"></path>
                        <path d="M655.231715,268.328794 C655.361003,265.223735 652.387379,263.671206 651.223786,261.213035 C652.258091,258.107977 656.653883,260.048638 658.334628,257.719844 C653.680259,252.41537 645.793689,255.002918 639.717152,253.709144 C635.967799,251.639105 634.804207,246.722763 631.054854,244.782101" id="Shape" stroke="#81E8B3"></path>
                        <path d="M655.231715,268.328794 C651.61165,268.587549 649.930906,272.339494 651.223786,275.444553 C652.516667,277.126459 654.973139,276.608949 656.783172,277.773346" id="Shape" stroke="#81E8B3"></path>
                        <path d="M407.903722,270.916342 C410.230906,271.433852 413.333819,271.304475 414.626699,273.633268 C409.97233,278.678988 405.059385,284.242218 400.14644,288.899805" id="Shape" stroke="#81E8B3"></path>
                        <path d="M407.903722,270.916342 C404.800809,267.423152 399.5,264.318093 394.974919,263.929961 C394.069903,269.751946 403.120065,275.185798 407.903722,270.916342" id="Shape" stroke="#81E8B3"></path>
                        <path d="M415.661003,302.225681 C416.824595,302.743191 417.21246,304.166342 417.988188,305.071984 C422.125405,305.201362 427.167638,302.355058 429.62411,298.991245 C428.719094,294.463035 424.194013,290.969844 419.79822,290.452335 C417.341748,293.298638 414.238835,298.085603 415.661003,302.225681" id="Shape" stroke="#81E8B3"></path>
                        <path d="M657.5589,309.34144 C663.894013,307.659533 674.107767,314.775292 669.841262,321.244163" id="Shape" stroke="#81E8B3"></path>
                        <path d="M657.5589,309.34144 C658.076052,304.942607 652.258091,299.120623 648.638026,303.519455 C647.862298,308.177043 653.550971,311.152724 657.5589,309.34144" id="Shape" stroke="#81E8B3"></path>
                        <path d="M401.180744,320.856031 C400.14644,320.209144 398.724272,319.432879 398.85356,318.009728 C401.051456,313.610895 411.394498,316.198444 408.03301,321.891051 C405.705825,323.055447 403.378641,321.502918 401.180744,320.856031" id="Shape" stroke="#81E8B3"></path>
                        <path d="M712.894175,309.858949 C717.289968,308.694553 721.427184,311.670233 725.822977,311.799611" id="Shape" stroke="#81E8B3"></path>
                        <path d="M712.806311,309.858949 C712.706311,310.635214 712.606311,310.893969 712.506311,311.411479" id="Shape" stroke="#81E8B3"></path>
                        <path d="M712.506311,311.411479 C714.057767,314.645914 714.445631,318.656615 713.540615,322.020428 C711.859871,323.055447 709.791262,323.314202 707.98123,324.349222" id="Shape" stroke="#81E8B3"></path>
                        <path d="M707.98123,324.219844 C706.300485,327.583658 705.266181,331.206226 703.973301,334.699416" id="Shape" stroke="#81E8B3"></path>
                        <path d="M690.656634,311.670233 C697.379612,307.918288 706.041909,305.977626 712.894175,309.858949" id="Shape" stroke="#81E8B3"></path>
                        <path d="M712.506311,311.411479 C708.110518,312.83463 701.38754,317.750973 704.619741,322.796693 C705.783333,323.055447 707.076214,323.44358 707.98123,324.219844" id="Shape" stroke="#81E8B3"></path>
                        <path d="M654.197411,347.507782 C650.189482,348.413424 630.537702,348.284047 635.838511,340.003891 C642.302913,341.685798 653.163107,345.696498 654.197411,335.087549 C651.61165,330.041829 643.725081,331.853113 641.527184,326.031128 C643.725081,322.92607 647.73301,324.478599 650.706634,323.184825 C649.155178,317.233463 641.010032,316.845331 636.355663,314.257782" id="Shape" stroke="#81E8B3"></path>
                        <path d="M762.799353,343.367704 C760.084304,338.321984 761.635761,331.594358 757.75712,327.066148" id="Shape" stroke="#81E8B3"></path>
                        <path d="M762.799353,343.367704 C766.290129,339.357004 771.332362,341.944553 774.823139,344.532101" id="Shape" stroke="#81E8B3"></path>
                        <path d="M774.693851,344.532101 C777.538188,341.685798 774.952427,337.286965 777.021036,334.440661" id="Shape" stroke="#81E8B3"></path>
                        <path d="M777.150324,334.440661 C776.374595,329.524319 778.70178,324.090467 776.116019,319.432879" id="Shape" stroke="#81E8B3"></path>
                        <path d="M776.116019,319.562257 C775.598867,319.303502 775.081715,319.044747 774.564563,318.656615" id="Shape" stroke="#81E8B3"></path>
                        <path d="M774.564563,318.656615 C771.332362,319.432879 767.970874,321.244163 764.609385,320.597276 C763.316505,319.821012 762.799353,318.009728 763.316505,316.715953 C766.160841,312.317121 774.305987,312.964008 774.564563,318.656615" id="Shape" stroke="#81E8B3"></path>
                        <path d="M784.002589,335.346304 C784.649029,335.734436 784.907605,335.993191 785.295469,336.381323 C789.303398,345.567121 776.116019,352.16537 780.123948,360.316148" id="Shape" stroke="#81E8B3"></path>
                        <path d="M777.150324,334.440661 C779.34822,335.087549 781.675405,335.605058 784.002589,335.346304" id="Shape" stroke="#81E8B3"></path>
                        <path d="M784.002589,335.346304 C784.519741,329.136187 781.416828,323.314202 780.770388,317.233463 C778.831068,316.845331 777.667476,318.785992 776.116019,319.562257" id="Shape" stroke="#81E8B3"></path>
                        <path d="M762.799353,343.367704 C762.799353,343.755837 762.670065,344.532101 762.670065,345.049611 C764.480097,349.060311 771.332362,350.61284 774.564563,347.507782 C774.952427,346.60214 774.952427,345.567121 774.823139,344.532101" id="Shape" stroke="#81E8B3"></path>
                        <path d="M797.319256,326.678016 C794.733495,327.713035 793.182039,325.384241 790.079126,326.160506 C789.561974,323.702335 787.493366,321.373541 789.044822,318.39786 C793.569903,317.750973 797.577832,321.114786 797.319256,326.678016 L797.319256,326.678016 Z" id="Shape" stroke="#81E8B3"></path>
                        <path d="M750.775566,328.748054 C754.524919,330.947471 758.920712,343.755837 751.809871,343.755837 C746.250485,343.755837 744.569741,331.464981 750.775566,328.748054 L750.775566,328.748054 Z" id="Shape" stroke="#81E8B3"></path>
                        <path d="M566.022977,343.626459 C571.840939,343.885214 577.400324,344.402724 583.218285,344.532101" id="Shape" stroke="#81E8B3"></path>
                        <path d="M583.218285,344.532101 C593.561327,340.521401 594.724919,348.413424 586.450485,353.329767" id="Shape" stroke="#81E8B3"></path>
                        <path d="M586.450485,353.329767 C586.83835,355.787938 589.682686,357.081712 589.941262,359.669261 C586.83835,361.22179 582.701133,359.928016 579.986084,362.386187" id="Shape" stroke="#81E8B3"></path>
                        <path d="M583.218285,344.532101 C583.735437,347.63716 583.864725,351.389105 586.450485,353.329767" id="Shape" stroke="#81E8B3"></path>
                        <path d="M579.856796,362.386187 C577.141748,361.868677 573.909547,363.809339 574.168123,366.914397 C575.590291,369.890078 579.081068,371.31323 582.183981,370.666342 C584.769741,367.690661 580.761812,364.973735 579.856796,362.386187" id="Shape" stroke="#81E8B3"></path>
                        <path d="M794.474919,345.437743 C790.854854,346.860895 793.440615,351.64786 795.509223,353.329767 C797.836408,352.941634 798.094984,349.448444 797.70712,347.63716 C796.672816,346.731518 795.897087,345.437743 794.474919,345.437743" id="Shape" stroke="#81E8B3"></path>
                        <path d="M416.695307,348.413424 C417.8589,347.766537 419.281068,346.731518 420.703236,347.378405 C423.418285,352.294747 428.848382,355.270428 431.434142,360.18677" id="Shape" stroke="#81E8B3"></path>
                        <path d="M416.695307,348.413424 C411.91165,347.378405 404.671521,348.154669 401.956472,352.941634 C402.473625,356.046693 405.188673,358.504864 408.03301,359.539883 C412.558091,357.857977 415.531715,352.941634 416.695307,348.413424" id="Shape" stroke="#81E8B3"></path>
                        <path d="M404.930097,372.736381 C406.481553,372.218872 408.03301,371.960117 409.584466,371.960117" id="Shape" stroke="#81E8B3"></path>
                        <path d="M409.584466,371.960117 C412.816667,376.229572 418.246764,382.051556 423.806149,377.911479 C424.064725,377.264591 424.064725,376.617704 424.194013,376.229572 C421.608252,371.830739 414.238835,369.7607 409.584466,371.960117" id="Shape" stroke="#81E8B3"></path>
                        <path d="M404.930097,372.736381 C401.827184,371.31323 397.56068,372.348249 395.621359,375.065175 C395.362783,376.100195 396.009223,377.135214 396.914239,377.782101 C399.887864,377.782101 403.637217,375.84144 404.930097,372.736381" id="Shape" stroke="#81E8B3"></path>
                        <path d="M414.368123,395.894942 C419.410356,400.035019 427.03835,407.150778 424.323301,413.878405" id="Shape" stroke="#81E8B3"></path>
                        <path d="M414.368123,395.894942 C414.368123,395.118677 414.238835,394.859922 414.238835,394.342412 C409.067314,390.331712 400.14644,387.097276 393.682039,389.684825 C397.689968,395.118677 407.515858,398.223735 414.368123,395.894942" id="Shape" stroke="#81E8B3"></path>
                        <path d="M584.511165,405.986381 C586.579773,407.150778 588.77767,408.444553 591.104854,408.703307" id="Shape" stroke="#81E8B3"></path>
                        <path d="M591.234142,408.57393 C591.36343,403.140078 591.622006,397.576848 593.302751,392.142996" id="Shape" stroke="#81E8B3"></path>
                        <path d="M591.234142,408.57393 C592.785599,410.126459 593.819903,412.196498 595.371359,413.61965 C592.527023,418.794747 587.096926,421.511673 582.313269,424.616732 C582.701133,425.781128 583.606149,426.816148 583.994013,427.980545" id="Shape" stroke="#81E8B3"></path>
                        <path d="M580.24466,404.821984 C581.53754,405.468872 582.959709,406.115759 584.511165,405.986381" id="Shape" stroke="#81E8B3"></path>
                        <path d="M584.511165,405.986381 C585.545469,401.199416 583.347573,396.283074 585.804045,391.754864" id="Shape" stroke="#81E8B3"></path>
                        <path d="M580.24466,404.821984 C580.503236,403.0107 580.8911,401.328794 580.761812,399.51751 C578.95178,395.894942 573.392395,393.178016 569.643042,395.118677 C570.160194,399.776265 575.073139,405.080739 580.24466,404.821984" id="Shape" stroke="#81E8B3"></path>
                        <path d="M583.994013,427.980545 C583.218285,428.756809 581.666828,428.756809 581.408252,430.050584 C581.020388,432.379377 583.476861,433.673152 585.028317,434.837549 C586.709061,434.708171 588.648382,433.931907 589.165534,432.120623 C587.872654,430.179961 585.804045,429.015564 583.994013,427.980545" id="Shape" stroke="#81E8B3"></path>
                        <path d="M631.959871,416.724708 C646.440129,415.819066 650.060194,398.611868 661.308252,392.142996" id="Shape" stroke="#81E8B3"></path>
                        <path d="M397.172816,433.026265 C394.974919,435.484436 396.914239,439.107004 399.370712,440.659533 C402.215049,437.425097 403.895793,432.76751 403.637217,428.368677 C398.85356,423.064202 390.32055,419.571012 391.354854,410.773346 C395.104207,405.727626 402.344337,408.05642 406.998706,410.385214" id="Shape" stroke="#81E8B3"></path>
                        <path d="M649.543042,441.694553 C651.999515,434.837549 653.033819,428.368677 649.02589,422.417315 C647.603722,420.217899 644.242233,412.325875 650.96521,411.937743 C653.292395,412.714008 654.455987,415.172179 655.490291,417.242218" id="Shape" stroke="#81E8B3"></path>
                        <path d="M656.524595,437.683852 C653.809547,439.107004 655.231715,443.635214 657.041748,445.187743 C660.015372,443.893969 660.273948,438.201362 656.524595,437.683852" id="Shape" stroke="#81E8B3"></path>
                        <path d="M591.104854,457.866732 C590.846278,456.961089 590.71699,455.537938 591.880583,455.020428 C595.112783,457.478599 596.922816,462.394942 596.922816,466.535019 C594.078479,468.216926 590.587702,468.216926 587.355502,468.475681 C585.804045,467.958171 585.028317,466.146887 584.640453,464.723735 C584.769741,464.464981 585.286893,464.076848 585.674757,463.818093" id="Shape" stroke="#81E8B3"></path>
                        <path d="M634.287055,463.041829 C635.192071,468.216926 640.234304,469.898833 643.854369,472.486381" id="Shape" stroke="#81E8B3"></path>
                        <path d="M643.854369,472.615759 C646.440129,472.357004 648.638026,473.650778 651.094498,474.038911 C652.387379,478.825875 647.862298,484.518482 643.725081,486.847276" id="Shape" stroke="#81E8B3"></path>
                        <path d="M638.036408,477.790856 C642.044337,478.955253 642.173625,483.61284 643.725081,486.717899" id="Shape" stroke="#81E8B3"></path>
                        <path d="M643.854369,472.615759 C642.561489,474.297665 640.105016,474.038911 638.424272,474.944553 C637.648544,475.720817 637.90712,476.885214 638.036408,477.790856" id="Shape" stroke="#81E8B3"></path>
                        <path d="M638.036408,477.790856 C634.804207,481.025292 637.26068,491.763619 643.207929,488.65856 C643.466505,488.011673 643.595793,487.106031 643.725081,486.717899" id="Shape" stroke="#81E8B3"></path>
                        <path d="M397.948544,470.54572 C398.20712,468.993191 398.85356,467.440661 400.017152,466.276265 C406.222977,465.629377 412.816667,467.052529 418.893204,468.605058" id="Shape" stroke="#81E8B3"></path>
                        <path d="M586.83835,477.790856 C590.458414,478.308366 593.690615,480.11965 596.664239,482.060311" id="Shape" stroke="#81E8B3"></path>
                        <path d="M586.83835,477.790856 C585.286893,481.801556 587.743366,485.941634 589.294822,489.434825" id="Shape" stroke="#81E8B3"></path>
                        <path d="M583.347573,491.375486 C583.476861,490.987354 583.476861,490.599222 583.476861,490.211089 C578.176052,486.847276 572.745955,482.448444 573.909547,477.532101 C575.202427,471.580739 581.53754,476.108949 586.83835,477.661479" id="Shape" stroke="#81E8B3"></path>
                        <path d="M396.397087,481.930934 C391.096278,489.305447 402.473625,498.620623 407.774434,490.211089 C406.352265,485.424125 400.79288,483.354086 396.397087,481.930934" id="Shape" stroke="#81E8B3"></path>
                        <path d="M645.147249,546.10214 C645.147249,543.126459 646.957282,540.668288 648.508738,538.210117" id="Shape" stroke="#81E8B3"></path>
                        <path d="M648.37945,538.210117 C643.207929,534.975681 636.872816,536.657588 631.572006,535.105058" id="Shape" stroke="#81E8B3"></path>
                        <path d="M772.883819,547.654669 C773.013107,536.916342 771.203074,525.660506 771.590939,514.534047 C771.073786,513.88716 770.039482,513.88716 769.651618,513.88716 C767.195146,514.922179 764.480097,515.439689 762.023625,516.86284 C760.730744,521.391051 760.601456,529.671206 753.749191,528.894942" id="Shape" stroke="#81E8B3"></path>
                        <path d="M649.801618,538.080739 C651.223786,540.280156 651.482362,543.902724 649.413754,545.714008 C647.991586,546.231518 646.569417,546.231518 645.147249,545.972763" id="Shape" stroke="#81E8B3"></path>
                        <path d="M645.147249,546.10214 C645.017961,546.10214 644.888673,546.231518 644.759385,546.231518 C642.949353,545.843385 641.13932,545.067121 639.717152,543.902724" id="Shape" stroke="#81E8B3"></path>
                        <path d="M649.801618,538.080739 C649.413754,538.080739 648.896602,538.180739 648.37945,538.180739" id="Shape" stroke="#81E8B3"></path>
                        <path d="M639.717152,543.902724 C639.2,541.185798 634.028479,540.797665 631.959871,541.57393 C631.572006,543.385214 632.606311,545.325875 633.640615,546.61965 C636.097087,548.172179 638.55356,545.972763 639.717152,543.902724" id="Shape" stroke="#81E8B3"></path>
                        <path d="M590.846278,522.42607 C592.397735,521.779183 593.690615,520.614786 594.466343,519.062257 C590.458414,511.428988 580.373948,514.922179 574.685275,509.488327 C573.263107,512.075875 574.685275,515.698444 576.107443,518.027237 C578.434628,518.932879 580.761812,517.509728 583.088997,518.027237" id="Shape" stroke="#81E8B3"></path>
                        <path d="M386.441909,516.733463 C395.492071,510.135214 407.645146,520.744163 418.246764,519.709144" id="Shape" stroke="#81E8B3"></path>
                        <path d="M397.819256,540.150778 C397.431392,533.811284 395.492071,527.342412 397.689968,521.132296" id="Shape" stroke="#81E8B3"></path>
                        <path d="M397.819256,540.150778 C393.682039,540.927043 389.02767,539.633268 385.278317,541.703307 C383.985437,544.032101 384.761165,547.395914 386.571197,549.336576 C391.872006,551.14786 400.14644,545.972763 397.819256,540.150778" id="Shape" stroke="#81E8B3"></path>
                        <path d="M586.967638,545.714008 C587.355502,543.514591 587.096926,540.927043 586.191909,538.857004 C580.373948,538.339494 575.719579,533.811284 572.616667,529.283074" id="Shape" stroke="#81E8B3"></path>
                        <path d="M586.967638,545.714008 C582.313269,546.360895 577.529612,547.784047 573.392395,549.465953 C573.521683,554.123541 578.046764,557.487354 581.925405,558.781128 C587.355502,557.487354 588.260518,550.371595 586.967638,545.714008" id="Shape" stroke="#81E8B3"></path>
                        <path d="M435.054207,537.692607 C436.993528,537.175097 435.959223,540.409533 435.571359,540.797665 C434.407767,540.797665 435.312783,538.598249 435.054207,537.692607 L435.054207,537.692607 Z" id="Shape" stroke="#81E8B3"></path>
                        <g id="Group" transform="translate(223.942604, 281.401433) rotate(-90.000000) translate(-223.942604, -281.401433) translate(204.942604, 244.901433)" stroke="#81E8B3">
                            <path d="M17.7124595,13.1964981 C15.126699,17.983463 11.2480583,27.2986381 4.0079288,24.4523346 C3.23220065,22.1235409 1.42216828,20.0535019 0.775728155,17.5953307" id="Shape"></path>
                            <path d="M17.7124595,13.1964981 C15.5145631,7.24513619 8.27443366,5.692607 5.17152104,0.388132296" id="Shape"></path>
                            <path d="M17.7124595,13.1964981 C22.7546926,17.983463 28.7019417,32.344358 37.1056634,25.2285992 C37.1056634,23.9348249 36.5885113,22.770428 35.8127832,21.7354086" id="Shape"></path>
                            <path d="M35.8127832,21.7354086 C35.8127832,16.9484436 34.907767,11.2558366 31.5462783,7.63326848 C30.7705502,7.37451362 29.994822,7.37451362 29.2190939,7.63326848 C22.3668285,12.6789883 28.3140777,22.5116732 35.8127832,21.7354086" id="Shape"></path>
                            <path d="M20.168932,35.5787938 C20.168932,36.0963035 20.268932,36.4844358 20.268932,37.131323" id="Shape"></path>
                            <path d="M20.2982201,37.0019455 C31.2877023,47.8696498 17.5831715,60.6780156 19.3932039,72.4513619" id="Shape"></path>
                            <path d="M20.2982201,37.0019455 C19.0053398,43.2120623 12.1530744,55.6322957 12.0237864,62.2305447 C12.0237864,65.0768482 12.4116505,69.4756809 9.69660194,71.9338521" id="Shape"></path>
                            <path d="M17.3245955,33.8968872 C13.7045307,39.0719844 11.1187702,44.7645914 8.92087379,50.7159533 C2.71504854,54.5972763 1.42216828,61.9717899 2.71504854,68.6994163 C2.71504854,68.8287938 2.32718447,69.6050584 2.19789644,70.5107004" id="Shape"></path>
                            <path d="M2.45647249,34.6731518 C5.81796117,30.2743191 13.3166667,30.5330739 17.1953074,33.7675097" id="Shape"></path>
                            <path d="M17.3245955,33.8968872 C18.3588997,34.155642 19.3932039,34.9319066 20.2982201,35.5787938" id="Shape"></path>
                            <path d="M20.168932,35.5787938 C25.211165,33.6381323 29.865534,37.5194553 34.5199029,39.0719844" id="Shape"></path>
                        </g>
                        <path d="M398.077832,569.519455 C390.579126,571.460117 397.043528,581.551556 402.861489,581.163424 C408.420874,580.775292 411.653074,572.365759 412.558091,568.484436 C407.903722,567.449416 402.602913,567.837549 398.077832,569.519455" id="Shape" stroke="#81E8B3"></path>
                        <path d="M647.73301,596.429961 C648.37945,596.300584 648.767314,596.041829 649.155178,595.783074 C648.767314,590.090467 649.155178,584.139105 647.862298,578.575875" id="Shape" stroke="#81E8B3"></path>
                        <g id="Group" transform="translate(228.170992, 463.616045) rotate(-90.000000) translate(-228.170992, -463.616045) translate(207.670992, 437.116045)" stroke="#81E8B3">
                            <path d="M14.4802589,24.0642023 C11.5066343,27.2986381 15.6438511,34.0262646 10.9894822,35.7081712" id="Shape"></path>
                            <path d="M9.17944984,9.44455253 C13.8338188,12.9377432 10.084466,20.1828794 14.3509709,23.9348249" id="Shape"></path>
                            <path d="M14.4802589,24.0642023 C15.2559871,24.1642023 16.1610032,24.2642023 16.9367314,24.3642023" id="Shape"></path>
                            <path d="M16.8074434,24.4523346 C19.910356,23.9348249 22.6254045,26.2636187 25.7283172,26.5223735" id="Shape"></path>
                            <path d="M25.6747952,26.5223735 C26.1874304,24.9698444 25.5722681,23.2879377 25.4697411,21.6060311" id="Shape"></path>
                            <path d="M25.4697411,21.6060311 C20.168932,20.0535019 21.0739482,11.1264591 24.5647249,7.89202335 C27.7969256,7.37451362 31.4169903,8.79766537 33.2270227,11.5145914" id="Shape"></path>
                            <path d="M33.0977346,11.5145914 C36.2006472,12.1614786 38.6571197,14.4902724 40.7257282,16.8190661" id="Shape"></path>
                            <path d="M25.7283172,26.5223735 C26.2454693,27.0398833 27.1504854,27.8161479 27.6676375,28.3336576" id="Shape"></path>
                            <path d="M27.6676375,28.2042802 C30.3826861,27.8161479 33.3563107,27.9455253 35.9420712,29.2392996 C36.9763754,33.8968872 38.0106796,38.942607 37.3642395,43.8589494" id="Shape"></path>
                            <path d="M27.6676375,28.2042802 C26.6333333,34.4143969 28.7019417,41.1420233 26.7626214,47.2227626" id="Shape"></path>
                            <path d="M16.8074434,24.4523346 C16.5488673,28.7217899 21.3325243,34.6731518 21.2032362,40.8832685 C20.9446602,50.0690661 11.2480583,56.6673152 4.65436893,49.9396887" id="Shape"></path>
                            <path d="M9.17944984,9.44455253 C9.56731392,6.4688716 8.40372168,3.49319066 6.72297735,1.16439689 C5.55938511,0.776264591 4.13721683,0.905642023 2.9736246,1.42315175 C1.29288026,3.75194553 3.4907767,6.85700389 4.78365696,9.05642023 C6.20582524,9.57392996 7.75728155,10.0914397 9.17944984,9.44455253" id="Shape"></path>
                            <path d="M25.4697411,21.6060311 C29.736246,19.9241245 30.3826861,14.7490272 33.0977346,11.5145914" id="Shape"></path>
                            <polyline id="Path-435" points="0.5060835 20.2192247 8.67370303 20.5529864 12.6905961 19.6571993"></polyline>
                            <path d="M13.9914727,23.9634631 L17.5811935,24.3382871" id="Path-436"></path>
                        </g>
                        <path d="M567.445146,633.949416 C570.677346,634.855058 573.650971,636.27821 577.141748,636.407588" id="Shape" stroke="#81E8B3"></path>
                        <path d="M577.141748,636.407588 C581.925405,636.148833 586.579773,633.431907 591.36343,634.337549" id="Shape" stroke="#81E8B3"></path>
                        <path d="M577.141748,636.407588 C577.341748,637.442607 577.341748,638.477626 577.341748,639.512646" id="Shape" stroke="#81E8B3"></path>
                        <path d="M577.400324,639.512646 C580.503236,640.288911 581.666828,643.782101 582.830421,646.36965 C582.442557,649.215953 580.373948,652.579767 577.01246,651.41537 C573.392395,648.957198 573.133819,641.453307 577.400324,639.512646" id="Shape" stroke="#81E8B3"></path>
                        <path d="M413.463107,648.051556 C414.368123,647.792802 415.273139,647.534047 415.790291,647.275292 C417.8589,642.876459 418.246764,637.960117 420.315372,633.561284" id="Shape" stroke="#81E8B3"></path>
                        <path d="M413.463107,648.051556 C407.257282,644.040856 398.85356,644.558366 392.130583,643.782101 C389.803398,654.002918 409.843042,657.625486 413.463107,648.051556" id="Shape" stroke="#81E8B3"></path>
                        <path d="M468.798382,106.995136 C469.056958,113.075875 459.10178,115.275292 458.067476,108.935798 C463.497573,106.218872 460.911812,99.1031128 465.178317,95.868677" id="Shape" stroke="#81E8B3"></path>
                        <path d="M468.798382,106.995136 C482.244337,108.030156 480.951456,87.8472763 467.63479,90.4348249 C467.246926,92.3754864 464.919741,93.6692607 465.178317,95.868677" id="Shape" stroke="#81E8B3"></path>
                        <path d="M468.798382,106.995136 C465.954045,103.7607 468.92767,98.7149805 465.178317,95.868677" id="Shape" stroke="#81E8B3"></path>
                        <path d="M420.832524,89.6585603 C420.703236,93.2811284 423.806149,95.0924125 427.03835,95.2217899 C432.339159,92.3754864 428.201942,81.1196498 422.383981,80.8608949 C419.410356,82.5428016 420.703236,86.8122568 420.832524,89.6585603" id="Shape" stroke="#81E8B3"></path>
                        <path d="M705.266181,274.538911 C706.300485,274.797665 707.464078,274.797665 708.239806,275.444553 C708.498382,278.808366 710.308414,284.371595 706.559061,286.312257 C702.163269,285.018482 703.456149,277.773346 705.266181,274.538911" id="Shape" stroke="#81E8B3"></path>
                        <path d="M705.266181,274.538911 C702.551133,270.786965 696.86246,272.857004 693.888835,269.622568 C694.276699,266 699.44822,265.353113 700.482524,261.9893 C706.300485,261.342412 714.187055,259.919261 712.635599,254.226654 C711.21343,249.439689 703.068285,244.523346 698.15534,242.712062 C694.405987,239.348249 690.398058,236.113813 688.070874,231.456226" id="Shape" stroke="#81E8B3"></path>
                        <path d="M584.899029,337.54572 C582.830421,343.108949 576.236731,337.675097 574.555987,334.958171 C576.753883,329.006809 583.864725,333.535019 584.899029,337.54572 L584.899029,337.54572 Z" id="Shape" stroke="#81E8B3"></path>
                        <path d="M629.632686,389.296693 C635.709223,389.167315 641.397896,386.062257 647.345146,385.41537" id="Shape" stroke="#81E8B3"></path>
                        <path d="M647.345146,385.41537 C647.991586,387.356031 647.862298,390.072957 649.801618,391.237354 C654.326699,391.754864 657.817476,387.744163 657.688188,383.345331 C654.326699,381.534047 650.577346,384.509728 647.345146,385.41537" id="Shape" stroke="#81E8B3"></path>
                        <g id="Group" transform="translate(235.163157, 360.553867) rotate(-90.000000) translate(-235.163157, -360.553867) translate(213.163157, 338.053867)" stroke="#81E8B3">
                            <path d="M36.0713592,41.5301556 C36.2006472,42.3064202 36.0713592,43.2120623 36.3299353,43.9883268 C36.7177994,44.5058366 38.2692557,44.635214 38.9156958,44.3764591 C41.3721683,42.6945525 41.8893204,39.5894942 43.4407767,37.2607004 C43.5700647,36.6138132 43.1822006,35.4494163 42.9236246,34.9319066 C40.9843042,34.0262646 39.0449838,32.7324903 36.8470874,32.7324903 C35.166343,35.4494163 35.037055,38.2957198 36.0713592,41.5301556" id="Shape"></path>
                            <path d="M32.3220065,18.3715953 C34.5199029,18.6303502 36.5885113,19.9241245 38.1399676,21.4766537 C30.7705502,27.9455253 15.9024272,31.0505837 18.2296117,44.5058366" id="Shape"></path>
                            <path d="M6.20582524,18.3715953 C7.88656958,19.4066148 9.95517799,19.5359922 11.3773463,20.959144" id="Shape"></path>
                            <path d="M11.3773463,21.0885214 C14.738835,20.1828794 18.6174757,21.4766537 21.5911003,19.4066148" id="Shape"></path>
                            <path d="M21.7203883,19.2772374 C17.3245955,14.7490272 14.738835,8.79766537 13.1873786,2.58754864" id="Shape"></path>
                            <path d="M25.9868932,20.7003891 C28.1847896,19.9241245 30.5119741,19.7947471 32.3220065,18.3715953" id="Shape"></path>
                            <path d="M32.3220065,18.3715953 C26.8919094,13.7140078 21.2032362,8.53891051 21.0739482,0.388132296" id="Shape"></path>
                            <path d="M6.20582524,18.3715953 C7.11084142,14.4902724 6.33511327,9.96206226 4.91294498,6.21011673 C3.36148867,6.0807393 1.55145631,6.4688716 0.775728155,7.89202335 C-1.41886503e-13,11.1264591 0.517152104,14.8784047 1.29288026,18.1128405 C2.45647249,19.6653696 4.78365696,19.5359922 6.20582524,18.3715953" id="Shape"></path>
                            <path d="M11.3773463,21.0885214 C10.6016181,24.3229572 9.82588997,28.9805447 12.1530744,31.6974708 C15.6438511,26.651751 24.5647249,27.6867704 25.8576052,20.8297665" id="Shape"></path>
                            <path d="M25.9868932,20.7003891 C24.5647249,20.0535019 23.1425566,19.5359922 21.7203883,19.2772374" id="Shape"></path>
                        </g>
                        <path d="M411.394498,602.5107 C415.143851,603.157588 418.376052,606.003891 422.254693,605.745136 C422.513269,605.227626 422.771845,604.710117 422.901133,604.192607" id="Shape" stroke="#81E8B3"></path>
                        <path d="M399.758576,617.777237 C392.906311,619.200389 385.278317,610.920233 390.061974,604.580739 C382.046117,594.877432 396.526375,594.230545 401.43932,600.570039" id="Shape" stroke="#81E8B3"></path>
                        <path d="M401.43932,600.699416 C402.344337,596.429961 401.697896,589.702335 407.515858,588.40856 C412.170227,591.384241 410.230906,597.853113 411.26521,602.5107" id="Shape" stroke="#81E8B3"></path>
                        <path d="M406.610841,608.07393 C406.998706,608.07393 407.257282,608.17393 407.515858,608.17393" id="Shape" stroke="#81E8B3"></path>
                        <path d="M407.515858,608.203307 C409.196602,606.650778 410.101618,604.451362 411.394498,602.5107" id="Shape" stroke="#81E8B3"></path>
                        <path d="M399.758576,617.777237 C402.861489,614.930934 402.861489,610.014591 406.610841,607.944553" id="Shape" stroke="#81E8B3"></path>
                        <path d="M406.610841,608.07393 C404.412945,606.003891 402.085761,603.675097 401.43932,600.699416" id="Shape" stroke="#81E8B3"></path>
                        <path d="M399.758576,617.777237 C399.758576,621.917315 396.655663,626.963035 400.405016,630.456226 C409.067314,633.561284 412.687379,624.892996 412.558091,617.777237 C409.455178,615.448444 409.067314,611.437743 407.515858,608.07393" id="Shape" stroke="#81E8B3"></path>
                        <path d="M214.70556,164.568093 C215.610576,167.673152 213.929831,170.77821 212.507663,173.495136 C199.708149,173.883268 208.11187,184.88035 210.309767,191.090467" id="Shape" stroke="#81E8B3"></path>
                        <path d="M196.517799,177.247082 C196.905663,174.788911 197.293528,172.330739 198.069256,170.001946 C203.757929,168.837549 209.446602,166.379377 214.876699,164.568093" id="Shape" stroke="#81E8B3"></path>
                        <path d="M215.652427,164.340705 C220.823948,159.941872 218.75534,149.591678 210.739482,153.99051" id="Shape" stroke="#81E8B3"></path>
                        <path d="M211.211694,190.44358 C207.462341,190.831712 200.868652,191.478599 201.773668,196.783074 C205.005868,199.111868 210.306677,201.699416 214.314606,200.276265 C213.538878,197.041829 214.185318,192.513619 211.211694,190.44358" id="Shape" stroke="#81E8B3"></path>
                        <path d="M454.188835,28.0749027 C450.051618,29.1099222 444.750809,27.557393 440.09644,27.1692607 C435.054207,31.3093385 427.03835,29.6274319 422.125405,26.2636187" id="Shape" stroke="#81E8B3"></path>
                        <path d="M454.188835,28.0749027 C453.930259,26.3929961 453.930259,24.7110895 453.800971,22.8998054 C455.352427,21.6060311 457.679612,21.9941634 459.618932,22.2529183" id="Shape" stroke="#81E8B3"></path>
                        <path d="M459.618932,22.3822957 C460.006796,22.2529183 461.0411,21.864786 461.68754,21.7354086" id="Shape" stroke="#81E8B3"></path>
                        <path d="M461.68754,21.7354086 C461.816828,19.7947471 460.265372,18.5009728 459.489644,16.9484436 C463.626861,14.7490272 468.669094,18.2422179 473.323463,17.7247082 C475.133495,19.5359922 474.874919,22.8998054 473.840615,25.0992218" id="Shape" stroke="#81E8B3"></path>
                        <path d="M461.68754,21.7354086 C465.824757,22.6410506 470.091262,23.1585603 473.840615,24.9698444" id="Shape" stroke="#81E8B3"></path>
                        <path d="M454.188835,28.067956 C457.16246,27.7163419 460.006796,28.8883888 462.980421,28.41957" id="Shape" stroke="#81E8B3"></path>
                        <path d="M462.980421,28.463035 C466.471197,29.6274319 471.51343,29.6274319 474.099191,26.7811284 C474.228479,26.1342412 473.969903,25.0992218 473.969903,24.8404669" id="Shape" stroke="#81E8B3"></path>
                        <path d="M459.618932,22.3822957 C459.74822,25.0992218 463.885437,25.4873541 462.980421,28.5924125" id="Shape" stroke="#81E8B3"></path>
                        <g id="Group" transform="translate(110.894822, 284.889105)" stroke="#81E8B3">
                            <path d="M2.23220065,19.0184825 C4.68867314,23.0291829 9.08446602,20.3122568 12.1873786,19.0184825 C14.7731392,16.3015564 12.8338188,12.8083658 11.6702265,9.96206226 C10.1187702,7.89202335 7.01585761,8.9270428 4.68867314,9.05642023 C2.74935275,11.9027237 -1.5171521,15.7840467 2.23220065,19.0184825" id="Shape"></path>
                            <path d="M17.2296117,31.0505837 C18.3932039,38.6838521 14.126699,46.4464981 17.7467638,53.6916342" id="Shape"></path>
                            <path d="M10.1187702,30.5330739 C8.56731392,35.4494163 5.33511327,40.2363813 0.810032362,42.82393" id="Shape"></path>
                            <path d="M0.163592233,27.1692607 C3.0079288,29.6274319 7.27443366,28.3336576 9.9894822,30.5330739" id="Shape"></path>
                            <path d="M10.1187702,30.5330739 C12.4459547,29.368677 15.0317152,30.2743191 17.3588997,31.0505837" id="Shape"></path>
                            <path d="M17.2296117,31.0505837 C34.6834951,30.5330739 20.8496764,10.9970817 24.211165,0.905642023" id="Shape"></path>
                        </g>
                        <path d="M460.39466,43.3414397 C461.816828,42.0476654 458.843204,40.7538911 459.360356,38.6838521 C462.333981,33.5087549 471.125566,35.9669261 468.151942,43.3414397 C463.238997,47.0933852 455.611003,44.635214 457.291748,38.1663424 C459.10178,39.2013619 459.360356,41.6595331 460.39466,43.3414397 L460.39466,43.3414397 Z" id="Shape" stroke="#81E8B3"></path>
                        <path d="M524.521521,54.9854086 C528.658738,52.6566148 533.313107,55.2441634 537.579612,54.209144" id="Shape" stroke="#81E8B3"></path>
                        <path d="M524.521521,54.9854086 C525.297249,61.0661479 531.11521,67.1468872 537.579612,64.3005837" id="Shape" stroke="#81E8B3"></path>
                        <path d="M511.851294,54.9050239 C516.117799,54.7050239 520.384304,54.4050239 524.650809,54.9050239" id="Shape" stroke="#81E8B3"></path>
                        <path d="M577.400324,102.466926 C583.864725,103.631323 590.587702,101.302529 597.052104,101.949416 C597.698544,103.890078 599.508576,107.383268 597.181392,109.065175 C594.595631,109.453307 591.880583,108.288911 589.294822,109.065175" id="Shape" stroke="#81E8B3"></path>
                        <path d="M775.598867,111.264591 C778.960356,112.170233 782.063269,114.110895 785.554045,112.817121" id="Shape" stroke="#81E8B3"></path>
                        <path d="M785.554045,112.817121 C785.941909,111.135214 786.329773,109.582685 787.622654,108.547665 C785.941909,105.183852 784.261165,101.561284 781.546117,98.844358" id="Shape" stroke="#81E8B3"></path>
                        <path d="M785.554045,112.817121 C787.493366,113.33463 789.561974,113.464008 791.372006,114.240272" id="Shape" stroke="#81E8B3"></path>
                        <path d="M790.596278,120.450389 C786.976214,129.377432 781.804693,139.210117 778.443204,148.784047" id="Shape" stroke="#81E8B3"></path>
                        <path d="M773.142395,120.838521 C770.427346,124.978599 771.46165,129.765564 770.427346,134.293774" id="Shape" stroke="#81E8B3"></path>
                        <path d="M773.142395,120.838521 C769.780906,119.932879 765.385113,121.356031 763.316505,117.86284 C763.187217,116.180934 763.445793,114.499027 763.962945,112.946498" id="Shape" stroke="#81E8B3"></path>
                        <path d="M763.962945,112.946498 C763.187217,109.194553 763.445793,105.31323 762.411489,101.561284" id="Shape" stroke="#81E8B3"></path>
                        <path d="M763.962945,112.946498 C767.324434,112.040856 770.685922,111.523346 773.918123,110.229572" id="Shape" stroke="#81E8B3"></path>
                        <path d="M773.918123,110.229572 C775.081715,105.31323 773.271683,100.396887 770.16877,96.3861868" id="Shape" stroke="#81E8B3"></path>
                        <path d="M773.142395,120.838521 C774.176699,120.450389 775.211003,120.191634 776.116019,119.544747" id="Shape" stroke="#81E8B3"></path>
                        <path d="M776.012589,119.544747 C775.909159,116.827821 775.598867,113.981518 775.598867,111.264591" id="Shape" stroke="#81E8B3"></path>
                        <path d="M775.598867,111.264591 C775.081715,110.876459 774.435275,110.488327 773.918123,110.100195" id="Shape" stroke="#81E8B3"></path>
                        <path d="M776.116019,119.544747 C780.770388,120.967899 785.812621,119.544747 790.596278,120.450389" id="Shape" stroke="#81E8B3"></path>
                        <path d="M790.596278,120.450389 C790.596278,120.191634 790.696278,119.932879 790.696278,119.674125" id="Shape" stroke="#81E8B3"></path>
                        <path d="M790.725566,119.674125 C790.337702,117.86284 790.725566,115.922179 791.372006,114.240272" id="Shape" stroke="#81E8B3"></path>
                        <path d="M790.725566,119.674125 C792.794175,117.474708 796.284951,119.285992 798.224272,117.086576 C797.965696,116.051556 797.836408,115.016537 797.189968,114.240272 C795.250647,113.722763 793.182039,113.33463 791.242718,114.36965" id="Shape" stroke="#81E8B3"></path>
                        <path d="M579.210356,108.030156 L581.278964,108.030156 C582.183981,110.876459 584.640453,112.299611 584.381877,116.310311 C582.054693,118.121595 579.856796,118.121595 577.6589,116.827821 C577.529612,113.593385 577.529612,113.33463 576.624595,111.135214 C578.563916,111.135214 577.917476,108.547665 579.210356,108.030156 L579.210356,108.030156 Z" id="Shape" stroke="#81E8B3"></path>
                        <path d="M511.851294,135.846304 C510.687702,140.892023 509.006958,145.678988 507.714078,150.595331" id="Shape" stroke="#81E8B3"></path>
                        <path d="M498.40534,119.156615 C502.283981,118.768482 506.162621,117.86284 510.17055,117.345331" id="Shape" stroke="#81E8B3"></path>
                        <path d="M510.17055,117.345331 C507.714078,113.075875 505.257605,106.865759 508.619094,102.725681" id="Shape" stroke="#81E8B3"></path>
                        <path d="M508.619094,102.725681 C508.87767,101.043774 508.87767,99.1031128 509.911974,97.6799611 C513.273463,96.9036965 517.152104,97.938716 519.99644,95.4805447" id="Shape" stroke="#81E8B3"></path>
                        <path d="M520.125728,95.6099222 C520.384304,93.0223735 517.41068,90.9523346 518.315696,88.364786 C520.772168,87.0710117 523.745793,87.9766537 526.072977,86.2947471" id="Shape" stroke="#81E8B3"></path>
                        <path d="M525.943689,86.2947471 C528.788026,79.5671206 537.7089,79.1789883 543.914725,79.9552529 C546.112621,87.0710117 535.898867,84.6128405 533.313107,89.0116732" id="Shape" stroke="#81E8B3"></path>
                        <path d="M529.046602,102.984436 C529.82233,106.089494 533.442395,106.607004 534.605987,109.32393" id="Shape" stroke="#81E8B3"></path>
                        <path d="M518.574272,134.681907 C517.798544,140.503891 514.049191,145.678988 513.661327,151.759728" id="Shape" stroke="#81E8B3"></path>
                        <path d="M525.943689,86.2947471 C528.012298,88.2354086 530.985922,87.7178988 533.313107,89.0116732" id="Shape" stroke="#81E8B3"></path>
                        <path d="M520.125728,95.6099222 C521.28932,97.6799611 523.357929,98.844358 524.262945,101.043774" id="Shape" stroke="#81E8B3"></path>
                        <path d="M524.133657,101.043774 C525.167961,101.561284 525.943689,102.078794 526.719417,102.596304" id="Shape" stroke="#81E8B3"></path>
                        <path d="M526.719417,102.596304 C526.719417,102.596304 528.400162,102.796304 529.046602,102.796304" id="Shape" stroke="#81E8B3"></path>
                        <path d="M529.046602,102.984436 C531.503074,100.526265 535.123139,98.9737354 536.286731,95.4805447 C535.640291,93.151751 533.442395,91.5992218 533.442395,89.0116732" id="Shape" stroke="#81E8B3"></path>
                        <path d="M508.619094,102.725681 C513.661327,105.571984 519.479288,103.631323 524.133657,101.043774" id="Shape" stroke="#81E8B3"></path>
                        <path d="M510.17055,117.345331 C510.558414,117.604086 510.81699,117.86284 511.204854,118.121595" id="Shape" stroke="#81E8B3"></path>
                        <path d="M511.204854,118.250973 C514.049191,116.051556 516.376375,113.33463 519.867152,112.040856" id="Shape" stroke="#81E8B3"></path>
                        <path d="M519.737864,111.911479 C520.772168,107.900778 525.297249,106.348249 526.719417,102.596304" id="Shape" stroke="#81E8B3"></path>
                        <path d="M519.737864,111.911479 C521.806472,113.981518 524.780097,111.782101 526.977994,113.33463" id="Shape" stroke="#81E8B3"></path>
                        <path d="M526.977994,113.405253 C527.495146,113.305253 527.753722,113.305253 528.141586,113.205253" id="Shape" stroke="#81E8B3"></path>
                        <path d="M528.141586,113.205253 C529.951618,111.393969 533.054531,111.523346 534.605987,109.32393" id="Shape" stroke="#81E8B3"></path>
                        <path d="M528.141586,113.205253 C529.693042,115.404669 531.76165,117.215953 532.666667,119.932879" id="Shape" stroke="#81E8B3"></path>
                        <path d="M532.666667,119.932879 C539.389644,124.719844 539.64822,114.240272 537.191748,110.229572 C536.416019,109.712062 535.511003,109.194553 534.605987,109.32393" id="Shape" stroke="#81E8B3"></path>
                        <path d="M511.204854,118.250973 C511.304854,119.41537 511.304854,120.579767 511.404854,121.614786" id="Shape" stroke="#81E8B3"></path>
                        <path d="M511.334142,121.614786 C513.273463,123.037938 515.342071,124.331712 517.281392,125.496109" id="Shape" stroke="#81E8B3"></path>
                        <path d="M517.41068,125.496109 C518.832848,127.178016 519.867152,128.9893 521.160032,130.671206" id="Shape" stroke="#81E8B3"></path>
                        <path d="M521.160032,130.800584 C527.23657,129.894942 528.270874,123.037938 532.666667,119.932879" id="Shape" stroke="#81E8B3"></path>
                        <path d="M526.977994,113.464008 C524.650809,118.121595 522.452913,123.42607 517.281392,125.496109" id="Shape" stroke="#81E8B3"></path>
                        <path d="M511.851294,135.846304 C514.049191,135.458171 516.117799,134.423152 518.574272,134.552529" id="Shape" stroke="#81E8B3"></path>
                        <path d="M518.574272,134.681907 C519.608576,133.388132 520.513592,132.223735 521.28932,130.800584" id="Shape" stroke="#81E8B3"></path>
                        <path d="M511.334142,121.614786 C506.291909,125.237354 508.23123,131.964981 511.722006,135.846304" id="Shape" stroke="#81E8B3"></path>
                        <path d="M650.31877,128.9893 C654.714563,129.377432 658.85178,130.541829 663.247573,130.541829" id="Shape" stroke="#81E8B3"></path>
                        <path d="M663.247573,130.541829 C663.894013,132.094358 664.023301,133.905642 664.799029,135.587549 C668.419094,136.881323 671.522006,132.48249 671.392718,129.248054 C668.936246,127.824903 665.057605,128.213035 663.247573,130.541829" id="Shape" stroke="#81E8B3"></path>
                        <path d="M722.720065,131.964981 C723.495793,133.129377 724.917961,134.164397 726.469417,133.905642 C727.374434,133.258755 728.408738,132.353113 728.020874,131.188716 C726.598706,128.730545 724.142233,124.202335 720.651456,125.754864 C719.358576,128.083658 721.685761,130.024319 722.720065,131.964981" id="Shape" stroke="#81E8B3"></path>
                        <path d="M713.540615,105.31323 C717.80712,105.442607 721.297896,108.030156 724.659385,110.229572" id="Shape" stroke="#81E8B3"></path>
                        <path d="M709.144822,110.100195 C708.62767,118.639105 701.258252,124.978599 698.672492,132.611868 C704.619741,134.423152 711.730583,131.706226 716.384951,137.657588" id="Shape" stroke="#81E8B3"></path>
                        <path d="M709.144822,110.100195 C703.973301,109.712062 697.896764,110.617704 694.018123,106.477626 C694.405987,92.7636187 700.482524,102.208171 709.532686,104.27821 C711.21343,104.666342 712.118447,104.27821 713.540615,105.442607" id="Shape" stroke="#81E8B3"></path>
                        <path d="M709.144822,110.100195 C711.472006,109.453307 712.635599,107.512646 713.540615,105.442607" id="Shape" stroke="#81E8B3"></path>
                        <path d="M416.178155,149.172179 C417.600324,150.207198 419.539644,151.371595 419.668932,153.182879 C417.600324,156.417315 410.230906,154.347276 410.748058,150.207198 C412.170227,149.172179 414.497411,149.948444 416.178155,149.172179" id="Shape" stroke="#81E8B3"></path>
                        <path d="M416.178155,149.172179 C415.014563,143.997082 408.291586,140.892023 409.067314,134.940661" id="Shape" stroke="#81E8B3"></path>
                        <path d="M409.067314,134.940661 C408.550162,123.94358 419.79822,130.671206 421.996117,136.751946" id="Shape" stroke="#81E8B3"></path>
                        <path d="M421.996117,136.751946 C427.943366,135.975681 433.244175,139.210117 438.932848,139.857004" id="Shape" stroke="#81E8B3"></path>
                        <path d="M409.067314,134.940661 C413.075243,135.975681 418.376052,141.021401 421.996117,136.751946" id="Shape" stroke="#81E8B3"></path>
                        <path d="M792.147735,182.939689 C786.846926,188.373541 786.329773,196.394942 786.200485,203.5107" id="Shape" stroke="#81E8B3"></path>
                        <path d="M772.883819,192.125486 C773.013107,191.607977 773.271683,191.349222 773.530259,190.831712 C779.089644,190.831712 786.200485,188.114786 784.907605,180.999027" id="Shape" stroke="#81E8B3"></path>
                        <path d="M784.907605,181.128405 C782.321845,180.999027 779.34822,179.187743 779.477508,176.212062" id="Shape" stroke="#81E8B3"></path>
                        <path d="M784.907605,181.128405 C785.812621,180.740272 786.846926,180.35214 787.88123,180.093385" id="Shape" stroke="#81E8B3"></path>
                        <path d="M787.751942,180.093385 C789.432686,176.988327 787.364078,173.753891 787.493366,170.390078" id="Shape" stroke="#81E8B3"></path>
                        <path d="M787.493366,170.390078 C787.105502,170.131323 786.717638,169.872568 786.329773,169.613813" id="Shape" stroke="#81E8B3"></path>
                        <path d="M779.477508,176.212062 C781.933981,173.107004 781.28754,168.061284 777.279612,166.379377 C773.659547,169.225681 775.728155,174.659533 779.477508,176.212062" id="Shape" stroke="#81E8B3"></path>
                        <path d="M787.751942,180.093385 C789.17411,181.128405 790.596278,182.163424 792.147735,182.939689" id="Shape" stroke="#81E8B3"></path>
                        <path d="M792.147735,182.939689 C795.250647,178.928988 792.923463,172.460117 791.759871,167.802529 C789.82055,167.543774 789.17411,170.001946 787.493366,170.390078" id="Shape" stroke="#81E8B3"></path>
                        <path d="M582.313269,187.209144 L582.313269,186.821012 C584.381877,185.39786 587.743366,185.009728 590.07055,186.174125 C591.104854,190.184825 592.656311,194.45428 591.234142,198.594358" id="Shape" stroke="#81E8B3"></path>
                        <path d="M422.642557,192.713619 C423.418285,192.513619 424.323301,192.513619 425.099029,192.513619" id="Shape" stroke="#81E8B3"></path>
                        <path d="M412.945955,200.01751 C414.885275,195.618677 421.349676,197.300584 422.642557,192.772374" id="Shape" stroke="#81E8B3"></path>
                        <path d="M422.642557,192.772374 C416.824595,189.279183 409.843042,187.856031 403.249353,185.785992" id="Shape" stroke="#81E8B3"></path>
                        <path d="M425.099029,192.513619 C428.97767,196.394942 433.244175,204.157588 439.320712,202.863813 C442.294337,197.818093 436.864239,190.961089 432.080583,189.149805 C429.753398,190.055447 427.296926,191.219844 425.099029,192.513619" id="Shape" stroke="#81E8B3"></path>
                        <path d="M412.945955,200.01751 C407.645146,198.206226 401.697896,193.93677 396.138511,196.524319 C399.5,201.570039 402.732201,207.521401 405.835113,212.825875 C411.394498,213.472763 416.566019,213.60214 421.866828,210.885214 C421.866828,205.710117 415.402427,203.898833 412.945955,200.01751" id="Shape" stroke="#81E8B3"></path>
                        <path d="M586.967638,229.386187 C589.036246,228.868677 591.492718,228.7393 593.561327,229.386187 C596.017799,234.949416 591.880583,240.512646 595.242071,245.817121" id="Shape" stroke="#81E8B3"></path>
                        <path d="M586.967638,229.386187 C587.614078,236.7607 587.614078,244.005837 589.811974,250.992218" id="Shape" stroke="#81E8B3"></path>
                        <path d="M586.967638,229.386187 C583.735437,228.092412 580.115372,228.868677 576.883172,228.22179" id="Shape" stroke="#81E8B3"></path>
                        <path d="M0,465.241245 C0.258576052,464.464981 0.905016181,463.688716 1.68074434,463.429961 L2.84433657,463.429961 C6.9815534,467.311284 3.36148867,475.720817 8.66229773,478.955253 C16.2902913,474.944553 10.213754,465.758755 9.30873786,459.548638" id="Shape" stroke="#81E8B3"></path>
                        <path d="M79.2535599,476.885214 C80.5464401,471.451362 85.7179612,470.02821 90.5016181,470.804475 C91.5359223,468.475681 91.4066343,465.5 91.0187702,462.912451" id="Shape" stroke="#81E8B3"></path>
                        <path d="M91.0187702,462.912451 C89.0794498,462.912451 87.2694175,462.265564 85.5886731,461.4893 C84.942233,459.419261 84.4250809,456.44358 86.7522654,455.149805 C87.7865696,454.891051 88.8208738,454.891051 89.72589,454.373541" id="Shape" stroke="#81E8B3"></path>
                        <path d="M92.1823625,457.866732 C99.939644,457.219844 99.810356,445.187743 91.7944984,446.093385 C88.4330097,447.516537 89.3380259,451.527237 89.72589,454.244163" id="Shape" stroke="#81E8B3"></path>
                        <path d="M91.0187702,462.912451 C91.6652104,461.359922 92.3116505,459.678016 92.1823625,457.866732" id="Shape" stroke="#81E8B3"></path>
                        <path d="M92.1823625,457.866732 C91.6652104,456.44358 90.8894822,455.279183 89.72589,454.244163" id="Shape" stroke="#81E8B3"></path>
                        <path d="M52.8788026,472.486381 C49.3880259,465.629377 49.905178,452.821012 60.7653722,455.279183" id="Shape" stroke="#81E8B3"></path>
                        <path d="M60.7653722,455.279183 C60.8946602,452.432879 61.5411003,448.680934 65.4197411,449.715953" id="Shape" stroke="#81E8B3"></path>
                        <path d="M65.4197411,449.715953 C65.9368932,448.680934 66.3247573,448.034047 66.9711974,447.516537 C69.686246,446.740272 72.1427184,449.198444 73.0477346,451.527237" id="Shape" stroke="#81E8B3"></path>
                        <path d="M60.7653722,455.279183 C62.3168285,457.090467 62.3168285,459.93677 64.5147249,461.359922 C66.7126214,460.713035 69.0398058,459.419261 69.686246,457.090467 C68.0055016,454.761673 66.5833333,452.303502 65.4197411,449.715953" id="Shape" stroke="#81E8B3"></path>
                        <path d="M29.736246,471.968872 C32.3220065,475.850195 36.2006472,481.801556 41.1135922,476.755837 C41.2428803,473.909533 40.5964401,471.06323 39.1742718,468.605058" id="Shape" stroke="#81E8B3"></path>
                        <path d="M29.2190939,472.615759 C26.6333333,472.098249 24.1768608,473.392023 21.7203883,473.133268 C20.8153722,472.227626 20.039644,471.192607 19.3932039,470.157588 C20.9446602,467.699416 23.9182848,467.440661 26.5040453,467.311284" id="Shape" stroke="#81E8B3"></path>
                        <path d="M27.1504854,466.276265 C27.0211974,462.783074 24.5647249,459.419261 21.9789644,456.961089" id="Shape" stroke="#81E8B3"></path>
                        <path d="M29.865534,471.451362 C29.994822,469.251946 28.5726537,467.570039 27.1504854,466.01751" id="Shape" stroke="#81E8B3"></path>
                        <path d="M417.988188,242.194553 C418.376052,247.240272 423.935437,249.310311 426.133333,253.191634" id="Shape" stroke="#81E8B3"></path>
                        <path d="M417.988188,242.194553 C420.056796,241.547665 423.159709,241.159533 423.547573,238.442607 C421.608252,235.466926 415.531715,233.138132 413.333819,237.019455 C414.497411,239.089494 416.436731,240.512646 417.988188,242.194553" id="Shape" stroke="#81E8B3"></path>
                        <path d="M584.381877,239.348249 C586.579773,252.027237 571.453074,247.88716 576.107443,238.830739 C579.727508,237.79572 581.925405,237.019455 584.381877,239.348249 L584.381877,239.348249 Z" id="Shape" stroke="#81E8B3"></path>
                        <path d="M589.42411,282.172179 C587.226214,288.511673 578.693204,287.347276 574.297411,290.581712 C575.978155,293.68677 581.149676,295.2393 580.8911,299.896887" id="Shape" stroke="#81E8B3"></path>
                        <path d="M572.228803,279.714008 C578.176052,279.325875 583.735437,281.395914 589.42411,282.301556" id="Shape" stroke="#81E8B3"></path>
                        <path d="M589.42411,282.172179 C589.553398,282.042802 589.682686,282.042802 589.811974,281.913424 C590.07055,281.525292 590.458414,280.878405 590.71699,280.360895 C585.286893,274.797665 577.788188,270.140078 572.745955,263.283074" id="Shape" stroke="#81E8B3"></path>
                        <path d="M712.247735,334.181907 C714.833495,334.570039 716.514239,336.769455 717.16068,339.227626 C716.126375,340.392023 714.316343,340.262646 712.894175,340.650778 C710.954854,340.133268 710.56699,337.54572 709.92055,335.863813 C710.179126,335.216926 711.342718,334.570039 712.247735,334.181907" id="Shape" stroke="#81E8B3"></path>
                        <path d="M756.076375,381.534047 C760.084304,381.404669 764.221521,378.170233 768.22945,379.981518 C772.237379,390.849222 756.205663,393.566148 754.654207,382.957198 C754.783495,382.439689 755.559223,381.922179 756.076375,381.534047" id="Shape" stroke="#81E8B3"></path>
                        <path d="M777.4089,394.083658 C777.796764,394.18716 778.184628,394.394163 778.572492,394.497665" id="Shape" stroke="#81E8B3"></path>
                        <path d="M778.572492,394.57179 C779.089644,394.47179 779.736084,394.47179 780.253236,394.47179" id="Shape" stroke="#81E8B3"></path>
                        <path d="M780.253236,394.47179 C781.028964,393.43677 781.804693,392.401751 782.838997,391.496109" id="Shape" stroke="#81E8B3"></path>
                        <path d="M782.838997,391.496109 C783.356149,387.873541 784.002589,384.250973 782.321845,380.757782" id="Shape" stroke="#81E8B3"></path>
                        <path d="M782.838997,391.496109 C785.683333,392.272374 791.11343,390.590467 791.11343,394.9893 C790.854854,395.248054 790.208414,395.377432 789.82055,395.506809" id="Shape" stroke="#81E8B3"></path>
                        <path d="M767.841586,395.894942 C770.81521,393.95428 774.435275,395.765564 777.4089,394.083658" id="Shape" stroke="#81E8B3"></path>
                        <path d="M777.4089,394.083658 C776.76246,389.684825 779.606796,384.509728 777.279612,380.499027" id="Shape" stroke="#81E8B3"></path>
                        <path d="M767.841586,395.894942 C764.092233,395.506809 758.791424,393.824903 756.076375,397.059339 C755.171359,399.388132 757.11068,401.458171 757.886408,403.398833 C757.627832,406.115759 755.042071,407.797665 754.912783,410.514591 C755.947087,414.784047 759.955016,416.854086 763.575081,418.794747 C773.013107,414.266537 770.81521,404.04572 767.841586,395.894942" id="Shape" stroke="#81E8B3"></path>
                        <path d="M778.572492,394.601167 C778.572492,400.552529 780.123948,406.633268 781.933981,412.196498 C782.709709,412.58463 784.002589,412.455253 784.649029,412.067121 C786.717638,406.374514 785.683333,397.964981 780.123948,394.342412" id="Shape" stroke="#81E8B3"></path>
                        <path d="M726.727994,382.310311 C726.98657,382.569066 726.98657,382.957198 726.98657,383.345331 C726.340129,383.733463 725.435113,383.604086 724.788673,383.604086 C716.126375,378.428988 701.38754,381.922179 697.379612,369.113813" id="Shape" stroke="#81E8B3"></path>
                        <path d="M702.163269,382.569066 C700.7411,384.639105 700.870388,385.41537 700.09466,387.744163 C692.983819,388.261673 689.62233,385.156615 687.68301,380.499027 C689.363754,369.113813 700.09466,376.229572 702.163269,382.569066 L702.163269,382.569066 Z" id="Shape" stroke="#81E8B3"></path>
                        <path d="M696.733172,397.835603 C696.603883,396.412451 694.664563,395.636187 694.793851,394.083658 C703.714725,388.90856 714.574919,387.744163 724.788673,386.838521" id="Shape" stroke="#81E8B3"></path>
                        <path d="M696.733172,397.835603 C692.595955,401.846304 694.793851,408.05642 695.311003,412.714008 C697.5089,413.10214 699.060356,411.161479 700.223948,409.608949 C700.870388,406.503891 699.706796,403.398833 700.09466,400.293774 C698.931068,399.51751 698.026052,398.48249 696.733172,397.835603" id="Shape" stroke="#81E8B3"></path>
                        <path d="M720.910032,402.234436 C719.617152,400.811284 718.712136,398.870623 716.772816,398.223735 C716.772816,396.929961 718.194984,396.283074 718.45356,395.118677 C719.875728,394.47179 721.944337,394.859922 722.978641,395.894942 C722.978641,397.964981 723.107929,401.199416 720.910032,402.234436" id="Shape" stroke="#81E8B3"></path>
                        <path d="M720.910032,402.234436 C719.487864,403.140078 717.936408,403.916342 716.514239,404.692607 C716.772816,407.797665 719.358576,410.255837 718.712136,413.490272 C718.194984,413.878405 717.289968,413.878405 716.772816,413.360895" id="Shape" stroke="#81E8B3"></path>
                        <path d="M719.74644,447.516537 L719.74644,446.740272 C715.738511,443.505837 714.187055,438.589494 714.187055,433.543774" id="Shape" stroke="#81E8B3"></path>
                        <path d="M684.450809,452.174125 C692.337379,454.632296 700.999676,454.632296 709.144822,453.209144" id="Shape" stroke="#81E8B3"></path>
                        <path d="M709.015534,453.209144 C710.308414,452.432879 711.989159,452.432879 713.152751,451.39786 C713.411327,445.058366 708.239806,440.142023 705.136893,434.966926" id="Shape" stroke="#81E8B3"></path>
                        <path d="M709.015534,453.209144 C712.506311,463.300584 696.345307,466.793774 701.38754,476.885214" id="Shape" stroke="#81E8B3"></path>
                        <path d="M707.33479,474.297665 C707.98123,475.07393 709.144822,475.462062 710.179126,475.332685 C713.282039,470.02821 715.738511,463.947471 718.45356,458.384241" id="Shape" stroke="#81E8B3"></path>
                        <path d="M694.923139,466.405642 C692.595955,470.54572 683.287217,468.346304 679.925728,465.888132 C680.184304,462.524319 680.055016,461.748054 679.925728,458.125486 C686.390129,453.726654 695.311003,457.866732 694.923139,466.405642 L694.923139,466.405642 Z" id="Shape" stroke="#81E8B3"></path>
                        <path d="M708.886246,558.910506 C699.44822,548.430934 705.007605,524.366732 700.223948,511.687743 C699.965372,510.911479 698.931068,510.652724 698.413916,510.393969" id="Shape" stroke="#81E8B3"></path>
                        <path d="M689.105178,536.269455 C691.173786,537.304475 692.725243,539.245136 693.888835,541.185798 C693.888835,544.290856 692.337379,547.395914 690.656634,549.854086" id="Shape" stroke="#81E8B3"></path>
                        <path d="M689.105178,536.269455 C685.743689,538.210117 680.830744,534.587549 679.020712,531.611868 C680.701456,529.283074 682.252913,526.566148 684.192233,524.237354" id="Shape" stroke="#81E8B3"></path>
                        <path d="M689.105178,536.269455 C688.717314,534.975681 688.070874,533.811284 687.812298,532.51751 C693.630259,527.730545 692.208091,520.614786 687.165858,515.698444" id="Shape" stroke="#81E8B3"></path>
                        <path d="M709.661974,512.075875 C709.92055,511.817121 710.049838,511.817121 710.179126,511.687743 C710.308414,511.687743 710.437702,511.558366 710.56699,511.558366 C714.833495,516.604086 711.472006,524.496109 711.859871,530.576848 C711.601294,530.964981 711.21343,531.223735 710.825566,531.611868" id="Shape" stroke="#81E8B3"></path>
                        <path d="M620.323948,578.705253 C623.944013,580.904669 628.469094,578.964008 631.830583,581.551556" id="Shape" stroke="#81E8B3"></path>
                        <path d="M631.830583,581.551556 C631.054854,584.785992 628.598382,585.691634 626.012621,586.726654 C625.495469,591.772374 625.624757,598.758755 630.149838,602.251946 C643.078641,604.192607 643.078641,581.810311 631.830583,581.551556" id="Shape" stroke="#81E8B3"></path>
                        <path d="M704.102589,591.513619 C709.532686,591.901751 715.609223,593.195525 720.651456,594.748054 C720.780744,598.5 718.324272,602.251946 715.350647,604.580739" id="Shape" stroke="#81E8B3"></path>
                        <path d="M715.350647,604.580739 C715.550647,606.003891 715.350647,607.427043 715.350647,608.850195" id="Shape" stroke="#81E8B3"></path>
                        <path d="M700.7411,602.898833 C697.121036,601.734436 694.147411,599.146887 691.690939,596.300584" id="Shape" stroke="#81E8B3"></path>
                        <path d="M700.7411,602.898833 C702.938997,601.087549 705.654045,600.311284 708.239806,599.01751" id="Shape" stroke="#81E8B3"></path>
                        <path d="M708.110518,599.01751 C707.593366,596.041829 704.231877,594.618677 703.973301,591.513619" id="Shape" stroke="#81E8B3"></path>
                        <path d="M704.102589,591.513619 C699.189644,588.537938 694.923139,584.785992 691.044498,580.38716" id="Shape" stroke="#81E8B3"></path>
                        <path d="M708.110518,599.01751 C711.21343,599.793774 712.764887,602.898833 715.221359,604.580739" id="Shape" stroke="#81E8B3"></path>
                        <path d="M700.7411,602.898833 C701.775405,606.392023 706.171197,606.262646 707.722654,609.367704" id="Shape" stroke="#81E8B3"></path>
                        <path d="M707.722654,609.238327 C710.179126,610.402724 712.894175,609.497082 715.350647,608.720817" id="Shape" stroke="#81E8B3"></path>
                        <path d="M707.722654,609.238327 C703.585437,611.696498 696.86246,611.178988 694.923139,616.61284 C695.440291,632.914397 709.791262,621.270428 714.962783,614.154669 C715.479935,612.472763 715.997087,610.532101 715.350647,608.850195 L715.350647,608.720817" id="Shape" stroke="#81E8B3"></path>
                        <path d="M590.975566,603.54572 C593.173463,594.4893 580.761812,588.279183 583.735437,577.670233 C586.579773,576.635214 589.941262,576.635214 593.044175,576.117704 C593.690615,576.635214 593.819903,577.023346 593.949191,577.670233 C593.819903,581.292802 588.519094,581.292802 589.294822,585.174125" id="Shape" stroke="#81E8B3"></path>
                        <path d="M687.424434,627.7393 C690.785922,630.456226 695.698867,630.714981 697.379612,635.501946" id="Shape" stroke="#81E8B3"></path>
                        <path d="M645.405825,640.547665 C639.587864,639.771401 633.511327,640.030156 627.822654,637.830739" id="Shape" stroke="#81E8B3"></path>
                        <path d="M645.405825,640.547665 C645.017961,637.183852 643.466505,633.949416 642.302913,630.844358" id="Shape" stroke="#81E8B3"></path>
                        <path d="M642.302913,630.844358 C637.777832,632.138132 632.347735,632.655642 627.951942,630.326848" id="Shape" stroke="#81E8B3"></path>
                        <path d="M642.302913,630.844358 C643.078641,630.197471 643.854369,629.291829 644.888673,629.162451 C648.250162,630.068093 650.189482,633.173152 652.904531,634.984436 C653.809547,637.960117 652.775243,641.712062 649.801618,643.135214" id="Shape" stroke="#81E8B3"></path>
                        <path d="M649.801618,643.135214 C649.67233,645.205253 646.957282,645.464008 646.569417,647.275292 C647.474434,650.250973 648.37945,654.391051 643.983657,654.779183 C642.820065,654.261673 641.915049,653.226654 640.880744,652.579767" id="Shape" stroke="#81E8B3"></path>
                        <path d="M640.880744,652.579767 C638.812136,652.967899 636.614239,652.321012 634.674919,651.41537 C634.804207,649.86284 635.321359,648.180934 636.484951,647.016537 C637.389968,646.628405 638.55356,646.628405 639.329288,647.145914 C640.751456,648.569066 641.397896,650.639105 640.880744,652.579767" id="Shape" stroke="#81E8B3"></path>
                        <path d="M645.405825,640.547665 C646.957282,641.32393 648.37945,642.229572 649.801618,643.135214" id="Shape" stroke="#81E8B3"></path>
                        <path d="M577.788188,658.919261 C583.218285,661.248054 589.294822,660.342412 594.854207,662.412451" id="Shape" stroke="#81E8B3"></path>
                        <path d="M577.788188,658.919261 C575.461003,658.013619 573.133819,656.202335 570.548058,656.719844 C568.996602,659.307393 571.840939,663.059339 574.038835,664.48249 C575.719579,662.929961 576.236731,660.601167 577.788188,658.919261" id="Shape" stroke="#81E8B3"></path>
                        <path d="M221.908252,483.172443 C221.908252,483.172443 222.152718,476.529005 222.154509,475.522034 C222.156299,474.515063 221.866585,471.541109 221.866585,471.541109" id="Path-434"></path>
                        <path d="M223.278359,458.590942 L228.118874,458.116305" id="Path-437" stroke="#81E8B3"></path>
                        <g id="Group" transform="translate(137.994277, 466.825400) rotate(-90.000000) translate(-137.994277, -466.825400) translate(121.994277, 434.825400)" stroke="#81E8B3">
                            <path d="M2.32718447,34.8025292 C16.8074434,33.8968872 20.4275081,16.6896887 31.6755663,10.2208171" id="Shape"></path>
                            <path d="M19.910356,59.7723735 C22.3668285,52.9153696 23.4011327,46.4464981 19.3932039,40.4951362 C17.9710356,38.2957198 14.6095469,30.4036965 21.3325243,30.0155642 C23.6597087,30.7918288 24.823301,33.25 25.8576052,35.3200389" id="Shape"></path>
                            <path d="M26.8919094,55.7616732 C24.1768608,57.1848249 25.5990291,61.713035 27.4090615,63.2655642 C30.3826861,61.9717899 30.6412621,56.2791829 26.8919094,55.7616732" id="Shape"></path>
                            <path d="M0,7.37451362 C6.07653722,7.24513619 11.7652104,4.14007782 17.7124595,3.49319066" id="Shape"></path>
                            <path d="M17.7124595,3.49319066 C18.3588997,5.43385214 18.2296117,8.15077821 20.168932,9.3151751 C24.6940129,9.83268482 28.1847896,5.82198444 28.0555016,1.42315175 C24.6940129,-0.388132296 20.9446602,2.58754864 17.7124595,3.49319066" id="Shape"></path>
                        </g>
                    </g>
                </g>
            </g>
        </g>
    </g>
</svg>