<?xml version="1.0" encoding="UTF-8" standalone="no"?>
<svg width="351px" height="359px" viewBox="0 0 351 359" version="1.1" xmlns="http://www.w3.org/2000/svg" xmlns:xlink="http://www.w3.org/1999/xlink">
    <!-- Generator: Sketch 40.1 (33804) - http://www.bohemiancoding.com/sketch -->
    <title>mountain</title>
    <desc>Created with Sketch.</desc>
    <defs></defs>
    <g id="Layout-(ipad)" stroke="none" stroke-width="1" fill="none" fill-rule="evenodd">
        <g id="Home" transform="translate(-929.000000, -1402.000000)" stroke-width="16" stroke="#81E8B3">
            <g id="wrap">
                <g id="section-pienso" transform="translate(289.000000, 1410.000000)">
                    <g id="mountain" transform="translate(816.500000, 171.500000) rotate(-90.000000) translate(-816.500000, -171.500000) translate(645.000000, -4.000000)">
                        <path d="M283.790034,326.967679 C284.818242,333.136755 283.790034,340.334011 285.84645,346.503087 C288.931076,350.615804 301.269577,351.643983 306.410619,349.587625 C325.94658,336.221293 330.059414,311.544989 342.397915,293.037761 C343.426123,287.896864 340.341498,278.64325 338.285081,274.530533 C322.861954,267.333278 307.438828,257.051484 289.959284,257.051484 C276.592574,278.64325 275.564366,301.263196 283.790034,326.967679" id="Shape"></path>
                        <path d="M253.971989,142.923577 C271.451532,144.979936 287.902867,155.261729 300.241369,167.599882 C241.633487,219.008849 123.389516,243.685153 141.897268,350.615804" id="Shape"></path>
                        <path d="M46.2738827,142.923577 C59.6405924,151.149012 76.0919276,152.177191 87.4022205,163.487164" id="Shape"></path>
                        <path d="M87.4022205,164.515344 C114.13564,157.318088 144.981893,167.599882 168.630688,151.149012" id="Shape"></path>
                        <path d="M169.658896,150.120833 C134.699809,114.134556 114.13564,66.8383062 101.797139,17.4856979" id="Shape"></path>
                        <path d="M203.589775,161.430806 C221.069318,155.261729 239.57707,154.23355 253.971989,142.923577" id="Shape"></path>
                        <path d="M253.971989,142.923577 C210.787234,105.909121 165.546062,64.7819476 164.517854,0.00664914166" id="Shape"></path>
                        <path d="M46.2738827,142.923577 C53.4713418,112.078197 47.3020911,76.0919203 35.9917982,46.2747194 C23.6532969,45.2465401 9.25837862,48.3310781 3.08912794,59.6410509 C-3.08012273,85.3455344 1.03271105,115.162735 7.20196172,140.867219 C16.4558377,153.205371 34.9635898,152.177191 46.2738827,142.923577" id="Shape"></path>
                        <path d="M87.4022205,164.515344 C81.2329698,190.219827 75.0637191,227.234283 93.5714711,248.826049 C121.333099,208.727055 192.279482,216.95249 202.561566,162.458985" id="Shape"></path>
                        <path d="M203.589775,161.430806 C192.279482,156.289909 180.969189,152.177191 169.658896,150.120833" id="Shape"></path>
                    </g>
                </g>
            </g>
        </g>
    </g>
</svg>