<?xml version="1.0" encoding="UTF-8" standalone="no"?>
<svg width="42px" height="42px" viewBox="0 0 42 42" version="1.1" xmlns="http://www.w3.org/2000/svg" xmlns:xlink="http://www.w3.org/1999/xlink" xmlns:sketch="http://www.bohemiancoding.com/sketch/ns">
    <!-- Generator: Sketch 3.4.2 (15855) - http://www.bohemiancoding.com/sketch -->
    <title>logotot</title>
    <desc>Created with Sketch.</desc>
    <defs></defs>
    <g id="Page-1" stroke="none" stroke-width="1" fill="none" fill-rule="evenodd" sketch:type="MSPage">
        <g id="logotot" sketch:type="MSLayerGroup" transform="translate(1.000000, 1.000000)" stroke="#000000">
            <polygon id="Triangle-1-Copy-3" stroke-linejoin="round" sketch:type="MSShapeGroup" points="19.5176341 0 35.6020046 32.1687412 3.43326347 32.1687412 "></polygon>
            <polygon id="Polygon-1-Copy-11" sketch:type="MSShapeGroup" points="20.0412222 0 39.1015572 13.848144 31.8211571 36.2549116 8.26128736 36.2549116 0.980887233 13.848144 "></polygon>
            <polygon id="Polygon-1-Copy-10" sketch:type="MSShapeGroup" points="20.0412222 0 37.3974298 10.0206111 37.3974298 30.0618333 20.0412222 40.0824444 2.68501465 30.0618333 2.68501465 10.0206111 "></polygon>
            <polygon id="Polygon-1-Copy-9" sketch:type="MSShapeGroup" points="20.0412222 0 34.2125063 5.86993808 40.0824444 20.0412222 34.2125063 34.2125063 20.0412222 40.0824444 5.86993808 34.2125063 0 20.0412222 5.86993808 5.86993808 "></polygon>
            <rect id="Rectangle-3-Copy-3" stroke-linejoin="round" sketch:type="MSShapeGroup" x="5.72210578" y="5.78209235" width="28.3175538" height="28.3175538"></rect>
            <ellipse id="Oval-1-Copy-3" sketch:type="MSShapeGroup" cx="20.0488281" cy="20.3687989" rx="20.0488281" ry="13.502272"></ellipse>
            <ellipse id="Oval-2-Copy-3" sketch:type="MSShapeGroup" cx="20.0488281" cy="20.0488281" rx="20.0488281" ry="20.0488281"></ellipse>
        </g>
    </g>
</svg>